<svg width="20" height="20" viewBox="0 0 20 20" fill="none" xmlns="http://www.w3.org/2000/svg">
<path d="M10 18.125C5.51996 18.125 1.87504 14.4832 1.87504 10.007C1.87119 8.8137 2.13096 7.63425 2.63578 6.55296C3.14061 5.47166 3.87803 4.51521 4.79535 3.75195L5.45551 3.20508L6.5559 4.52227L5.89575 5.06914C5.17213 5.67193 4.59059 6.42711 4.19266 7.2807C3.79473 8.1343 3.59024 9.06525 3.59379 10.007C3.59379 13.5379 6.46762 16.4105 10 16.4105C13.5325 16.4105 16.4063 13.5379 16.4063 10.007C16.4062 9.06262 16.1965 8.13001 15.7924 7.27644C15.3882 6.42288 14.7997 5.66966 14.0692 5.07109L13.4051 4.52422L14.4989 3.20312L15.1629 3.75C16.0888 4.50886 16.8347 5.46372 17.347 6.54572C17.8592 7.62772 18.1249 8.80991 18.125 10.007C18.125 14.4832 14.4801 18.125 10 18.125Z" fill="white"/>
<path d="M9.14062 1.875H10.8594V10.625H9.14062V1.875Z" fill="white"/>
</svg>
