<?xml version="1.0" encoding="UTF-8" standalone="no"?>
<!-- Created with Inkscape (http://www.inkscape.org/) -->

<svg
   xmlns:dc="http://purl.org/dc/elements/1.1/"
   xmlns:cc="http://creativecommons.org/ns#"
   xmlns:rdf="http://www.w3.org/1999/02/22-rdf-syntax-ns#"
   xmlns:svg="http://www.w3.org/2000/svg"
   xmlns="http://www.w3.org/2000/svg"
   xmlns:sodipodi="http://sodipodi.sourceforge.net/DTD/sodipodi-0.dtd"
   xmlns:inkscape="http://www.inkscape.org/namespaces/inkscape"
   id="svg2"
   version="1.1"
   inkscape:version="0.91 r13725"
   xml:space="preserve"
   width="800"
   height="307"
   viewBox="0 0 800 307"
   sodipodi:docname="Logo Sevran.svg"><metadata
     id="metadata8"><rdf:RDF><cc:Work
         rdf:about=""><dc:format>image/svg+xml</dc:format><dc:type
           rdf:resource="http://purl.org/dc/dcmitype/StillImage" /><dc:title></dc:title></cc:Work></rdf:RDF></metadata><defs
     id="defs6" /><sodipodi:namedview
     pagecolor="#ffffff"
     bordercolor="#666666"
     borderopacity="1"
     objecttolerance="10"
     gridtolerance="10"
     guidetolerance="10"
     inkscape:pageopacity="0"
     inkscape:pageshadow="2"
     inkscape:window-width="1440"
     inkscape:window-height="788"
     id="namedview4"
     showgrid="false"
     inkscape:zoom="1.0612927"
     inkscape:cx="383.61824"
     inkscape:cy="27.431588"
     inkscape:window-x="0"
     inkscape:window-y="1"
     inkscape:window-maximized="1"
     inkscape:current-layer="g10" /><g
     id="g10"
     inkscape:groupmode="layer"
     inkscape:label="Logo Sevran"
     transform="matrix(1.25,0,0,-1.25,-26.883375,331.75927)"><path
       d="m 341.86518,161.87061 c -20.0148,37.86528 -63.38924,72.00578 -119.2882,88.98104 C 133.7452,277.81396 47.009883,251.21124 28.867663,191.41788 10.698293,131.6313 68.015253,61.301331 156.85381,34.339023 c 88.83857,-26.9623082 175.5671,-0.373157 193.7229,59.42699 4.42055,29.140067 -2.61909,51.149987 -8.71153,68.104597 z"
       style="fill:#d3e1ea;fill-opacity:1;fill-rule:nonzero;stroke:none"
       id="path292"
       inkscape:connector-curvature="0"
       sodipodi:nodetypes="cccscc" /><path
       d="m 86.432253,120.42709 24.234867,-11.64251 -23.128967,-13.684704 1.20089,-27.321892 48.225487,32.437546 -0.82095,18.95639 -50.878287,28.1157 1.16696,-26.86053 z"
       style="fill:#5c97b7;fill-opacity:1;fill-rule:nonzero;stroke:none"
       id="path288"
       inkscape:connector-curvature="0" /><g
       id="g5091"
       transform="matrix(6.7846774,0,0,6.7846774,-2136.1195,-178.78872)"><path
         inkscape:connector-curvature="0"
         id="path296"
         style="fill:#005782;fill-opacity:1;fill-rule:nonzero;stroke:none"
         d="m 345.36495,46.523475 -2.261,0.217 c -0.657,0.049 -1.059,0.268 -1.305,0.491 -0.299,0.277 -0.393,0.612 -0.403,0.847 -0.035,0.81 0.577,1.753 2.172,1.823 0.811,0.035 2.348,0.181 3.577,-0.943 l 2.748,2.999 c -1.663,1.525 -3.703,2.064 -6.37,1.947 -4.232,-0.184 -6.686,-2.778 -6.538,-6.177 0.07,-1.592 0.544,-2.828 1.446,-3.681 0.874,-0.825 2.152,-1.317 3.808,-1.482 l 2.261,-0.215 c 0.606,-0.053 1.005,-0.218 1.25,-0.445 0.275,-0.273 0.395,-0.636 0.415,-1.08 0.046,-1.07 -0.791,-1.71 -2.594,-1.788 -1.489,-0.065 -3.204,0.202 -4.211,1.124 l -2.8,-3.053 c 1.966,-1.852 4.315,-2.273 7.162,-2.149 3.921,0.171 7.099,2.379 6.931,6.167 -0.073,1.725 -0.527,3.093 -1.562,4.016 -0.817,0.751 -2.044,1.22 -3.726,1.382" /><path
         inkscape:connector-curvature="0"
         id="path298"
         style="fill:#005782;fill-opacity:1;fill-rule:nonzero;stroke:none"
         d="m 355.562,43.7182 c -0.076,0.339 -0.112,0.741 -0.014,1.146 0.124,0.657 0.585,1.28 1.6,1.51 1.015,0.229 1.697,-0.136 2.093,-0.673 0.266,-0.323 0.405,-0.702 0.481,-1.04 l -4.16,-0.943 z m 0.79,6.167 c -3.666,-0.831 -5.682,-3.998 -4.645,-8.573 1.366,-6.031 5.181,-6.342 8.278,-5.642 2.6,0.591 3.828,1.69 4.932,3.442 l -3.124,1.974 c -0.584,-0.926 -1.14,-1.49 -2.622,-1.825 -1.587,-0.362 -2.705,0.478 -2.966,1.624 l 8.374,1.897 -0.432,1.899 c -0.831,3.665 -3.738,6.122 -7.795,5.204" /><path
         inkscape:connector-curvature="0"
         id="path300"
         style="fill:#005782;fill-opacity:1;fill-rule:nonzero;stroke:none"
         d="m 369.6694,43.0993 -2.643,7.19 -1.794,-0.079 -2.702,-0.118 4.05,-9.677 1.739,-4.155 3.266,0.142 4.561,14.285 -4.497,-0.196 -1.98,-7.392 z" /><path
         inkscape:connector-curvature="0"
         id="path302"
         style="fill:#005782;fill-opacity:1;fill-rule:nonzero;stroke:none"
         d="m 387.3027,50.0225 c -1.008,0.924 -1.963,1.222 -3.348,1.162 -1.465,-0.064 -2.662,-0.797 -3.261,-1.452 l -0.052,1.152 -4.179,-0.183 0.612,-14.06 4.286,0.187 -0.368,8.415 c -0.068,1.594 1.066,1.984 1.64,2.01 0.733,0.031 1.14,-0.266 1.575,-0.666 l 3.095,3.435 z" /><path
         inkscape:connector-curvature="0"
         id="path304"
         style="fill:#005782;fill-opacity:1;fill-rule:nonzero;stroke:none"
         d="m 394.405,42.6853 c 0.031,-0.679 -0.056,-1.128 -0.357,-1.427 -0.451,-0.466 -0.84,-0.562 -1.676,-0.6 -0.938,-0.04 -1.433,0.49 -1.461,1.117 -0.03,0.652 0.475,1.144 1.309,1.182 l 2.169,0.094 0.016,-0.366 z m 4.516,-5.089 -0.399,9.121 c -0.148,3.422 -2.39,4.999 -6.414,4.823 -2.379,-0.102 -3.668,-0.606 -5.041,-2.103 l 2.783,-2.55 c 0.649,0.709 1.109,0.991 2.204,1.038 1.491,0.065 2.138,-0.378 2.194,-1.659 l 0.017,-0.366 -2.85,-0.125 c -3.345,-0.146 -4.696,-2.168 -4.604,-4.286 0.057,-1.304 0.526,-2.461 1.373,-3.236 0.818,-0.752 2.014,-1.171 3.426,-1.109 1.49,0.065 2.255,0.519 3.081,1.418 l 0.049,-1.149 4.181,0.183 z" /><path
         inkscape:connector-curvature="0"
         id="path306"
         style="fill:#005782;fill-opacity:1;fill-rule:nonzero;stroke:none"
         d="m 409.7772,51.1084 c -0.792,0.724 -1.882,1.121 -3.213,1.064 -1.126,-0.05 -2.386,-0.552 -3.212,-1.449 l -0.049,1.149 -4.183,-0.183 0.614,-14.059 4.286,0.186 -0.366,8.416 c -0.072,1.619 1.065,1.984 1.638,2.009 0.576,0.025 1.739,-0.237 1.811,-1.859 l 0.369,-8.414 4.283,0.188 -0.392,8.989 c -0.066,1.489 -0.331,2.812 -1.586,3.963" /></g><g
       id="g5099"
       transform="matrix(6.7846774,0,0,6.7846774,-2136.1195,-178.78872)"><path
         inkscape:connector-curvature="0"
         id="path308"
         style="fill:#005782;fill-opacity:1;fill-rule:nonzero;stroke:none"
         d="m 364.8102,32.4725 -0.435,-0.02 -0.085,0.764 c -0.016,0.154 -0.036,0.368 -0.041,0.461 -0.023,-0.095 -0.104,-0.314 -0.156,-0.467 l -0.271,-0.78 -0.407,-0.019 -0.295,1.943 0.486,0.02 0.073,-0.717 c 0.014,-0.149 0.03,-0.354 0.035,-0.446 0.029,0.098 0.09,0.298 0.147,0.454 l 0.272,0.733 0.404,0.018 0.096,-0.719 c 0.019,-0.152 0.036,-0.349 0.036,-0.444 0.024,0.092 0.094,0.301 0.144,0.454 l 0.252,0.733 0.49,0.02 -0.745,-1.988 z" /><path
         inkscape:connector-curvature="0"
         id="path310"
         style="fill:#005782;fill-opacity:1;fill-rule:nonzero;stroke:none"
         d="m 368.3773,32.6288 -0.436,-0.019 -0.083,0.763 c -0.018,0.152 -0.036,0.368 -0.039,0.461 -0.024,-0.095 -0.104,-0.315 -0.158,-0.469 l -0.272,-0.778 -0.407,-0.019 -0.293,1.942 0.486,0.023 0.071,-0.719 c 0.014,-0.149 0.031,-0.354 0.036,-0.446 0.028,0.096 0.09,0.297 0.148,0.454 l 0.271,0.733 0.403,0.017 0.096,-0.718 c 0.019,-0.152 0.036,-0.349 0.037,-0.445 0.025,0.094 0.093,0.302 0.143,0.453 l 0.252,0.733 0.49,0.022 -0.745,-1.988 z" /><path
         inkscape:connector-curvature="0"
         id="path312"
         style="fill:#005782;fill-opacity:1;fill-rule:nonzero;stroke:none"
         d="m 371.9459,32.785 -0.435,-0.02 -0.084,0.764 c -0.017,0.152 -0.037,0.368 -0.04,0.46 -0.025,-0.094 -0.104,-0.314 -0.158,-0.468 l -0.271,-0.78 -0.407,-0.017 -0.295,1.942 0.485,0.021 0.073,-0.719 c 0.014,-0.147 0.031,-0.352 0.036,-0.445 0.028,0.098 0.09,0.298 0.147,0.453 l 0.272,0.733 0.404,0.019 0.094,-0.718 c 0.022,-0.152 0.036,-0.349 0.038,-0.445 0.024,0.093 0.094,0.302 0.143,0.453 l 0.253,0.733 0.49,0.02 -0.745,-1.986 z" /><path
         inkscape:connector-curvature="0"
         id="path314"
         style="fill:#005782;fill-opacity:1;fill-rule:nonzero;stroke:none"
         d="m 373.7764,32.8229 c -0.18,-0.008 -0.34,0.146 -0.349,0.337 -0.007,0.188 0.138,0.354 0.318,0.362 0.183,0.008 0.342,-0.146 0.348,-0.334 0.009,-0.191 -0.135,-0.356 -0.317,-0.365" /><path
         inkscape:connector-curvature="0"
         id="path316"
         style="fill:#005782;fill-opacity:1;fill-rule:nonzero;stroke:none"
         d="m 376.1225,32.967 -0.502,-0.022 -0.416,1.935 0.524,0.024 0.156,-0.897 c 0.025,-0.147 0.053,-0.333 0.063,-0.425 0.032,0.099 0.107,0.28 0.17,0.436 l 0.379,0.92 0.53,0.023 -0.904,-1.994 z" /><path
         inkscape:connector-curvature="0"
         id="path318"
         style="fill:#005782;fill-opacity:1;fill-rule:nonzero;stroke:none"
         d="m 378.6279,35.1918 c -0.154,-0.008 -0.287,0.12 -0.292,0.283 -0.006,0.158 0.115,0.298 0.266,0.304 0.152,0.008 0.285,-0.121 0.293,-0.281 0.005,-0.162 -0.115,-0.3 -0.267,-0.306 m -0.061,-2.118 -0.489,-0.022 0.242,1.966 0.488,0.02 -0.241,-1.964 z" /><path
         inkscape:connector-curvature="0"
         id="path320"
         style="fill:#005782;fill-opacity:1;fill-rule:nonzero;stroke:none"
         d="m 380.5222,33.158 -0.489,-0.022 0.303,2.471 0.52,0.281 -0.334,-2.73 z" /><path
         inkscape:connector-curvature="0"
         id="path322"
         style="fill:#005782;fill-opacity:1;fill-rule:nonzero;stroke:none"
         d="m 382.4755,33.243 -0.489,-0.02 0.304,2.471 0.519,0.279 -0.334,-2.73 z" /><path
         inkscape:connector-curvature="0"
         id="path324"
         style="fill:#005782;fill-opacity:1;fill-rule:nonzero;stroke:none"
         d="m 384.7928,34.893 c -0.177,-0.008 -0.28,-0.161 -0.328,-0.362 l 0.629,0.027 c 0.01,0.186 -0.082,0.346 -0.301,0.335 m 0.722,-0.705 -1.096,-0.048 c -0.017,-0.267 0.192,-0.357 0.36,-0.351 0.126,0.006 0.248,0.051 0.368,0.144 l 0.253,-0.345 c -0.214,-0.191 -0.424,-0.278 -0.651,-0.285 -0.478,-0.022 -0.796,0.285 -0.82,0.814 -0.029,0.669 0.378,1.203 0.915,1.228 0.468,0.02 0.693,-0.329 0.71,-0.764 0.006,-0.124 -0.009,-0.256 -0.039,-0.393" /><path
         inkscape:connector-curvature="0"
         id="path326"
         style="fill:#005782;fill-opacity:1;fill-rule:nonzero;stroke:none"
         d="m 387.8943,34.5746 -1.014,-0.044 0.063,0.519 1.015,0.042 -0.064,-0.517 z" /><path
         inkscape:connector-curvature="0"
         id="path328"
         style="fill:#005782;fill-opacity:1;fill-rule:nonzero;stroke:none"
         d="m 390.571,34.9537 c -0.151,0.095 -0.384,0.183 -0.593,0.174 -0.138,-0.006 -0.193,-0.061 -0.188,-0.131 10e-4,-0.063 0.032,-0.102 0.354,-0.226 0.315,-0.123 0.526,-0.263 0.54,-0.561 0.021,-0.453 -0.301,-0.661 -0.714,-0.68 -0.371,-0.016 -0.694,0.119 -0.865,0.259 l 0.213,0.379 c 0.178,-0.113 0.402,-0.209 0.686,-0.197 0.127,0.006 0.194,0.07 0.191,0.161 -0.003,0.077 -0.054,0.122 -0.241,0.188 -0.43,0.156 -0.642,0.285 -0.653,0.586 -0.019,0.404 0.234,0.644 0.694,0.663 0.337,0.014 0.601,-0.092 0.781,-0.199 l -0.205,-0.416 z" /><path
         inkscape:connector-curvature="0"
         id="path330"
         style="fill:#005782;fill-opacity:1;fill-rule:nonzero;stroke:none"
         d="m 392.8307,35.2449 c -0.177,-0.008 -0.281,-0.165 -0.329,-0.365 l 0.632,0.028 c 0.009,0.186 -0.081,0.346 -0.303,0.337 m 0.724,-0.707 -1.098,-0.046 c -0.017,-0.269 0.192,-0.36 0.362,-0.351 0.124,0.004 0.245,0.05 0.368,0.143 l 0.253,-0.345 c -0.218,-0.191 -0.426,-0.277 -0.652,-0.286 -0.479,-0.022 -0.799,0.287 -0.822,0.814 -0.028,0.669 0.379,1.205 0.916,1.228 0.468,0.022 0.693,-0.327 0.712,-0.764 0.006,-0.122 -0.011,-0.254 -0.039,-0.393" /><path
         inkscape:connector-curvature="0"
         id="path332"
         style="fill:#005782;fill-opacity:1;fill-rule:nonzero;stroke:none"
         d="m 395.7305,33.8239 -0.499,-0.023 -0.417,1.936 0.523,0.024 0.157,-0.897 c 0.023,-0.149 0.054,-0.333 0.061,-0.427 0.032,0.101 0.105,0.282 0.17,0.437 l 0.379,0.922 0.533,0.02 -0.907,-1.992 z" /><path
         inkscape:connector-curvature="0"
         id="path334"
         style="fill:#005782;fill-opacity:1;fill-rule:nonzero;stroke:none"
         d="m 398.9078,35.3102 c -0.056,0.056 -0.169,0.126 -0.292,0.121 -0.165,-0.008 -0.286,-0.073 -0.335,-0.483 l -0.123,-1.02 -0.492,-0.02 0.245,1.964 0.489,0.022 -0.015,-0.129 c 0.079,0.101 0.197,0.179 0.348,0.185 0.166,0.008 0.299,-0.062 0.369,-0.148 l -0.194,-0.492 z" /><path
         inkscape:connector-curvature="0"
         id="path336"
         style="fill:#005782;fill-opacity:1;fill-rule:nonzero;stroke:none"
         d="m 400.7686,34.9445 c -0.196,-0.009 -0.287,-0.135 -0.28,-0.29 0.007,-0.151 0.105,-0.224 0.28,-0.216 0.152,0.007 0.269,0.107 0.321,0.191 l 0.032,0.248 c -0.08,0.039 -0.195,0.075 -0.353,0.067 m 0.891,0.388 -0.152,-1.258 -0.489,-0.021 0.02,0.133 c -0.093,-0.101 -0.22,-0.182 -0.393,-0.191 -0.329,-0.014 -0.633,0.155 -0.653,0.579 -0.019,0.44 0.268,0.749 0.736,0.771 0.17,0.007 0.374,-0.025 0.444,-0.059 l 0.006,0.079 c 0.003,0.02 0.003,0.043 0,0.064 -0.006,0.135 -0.098,0.198 -0.331,0.191 -0.157,-0.008 -0.309,-0.061 -0.418,-0.123 l -0.142,0.362 c 0.127,0.085 0.372,0.175 0.605,0.186 0.437,0.019 0.756,-0.14 0.775,-0.548 0.003,-0.053 0.002,-0.104 -0.008,-0.165" /><path
         inkscape:connector-curvature="0"
         id="path338"
         style="fill:#005782;fill-opacity:1;fill-rule:nonzero;stroke:none"
         d="m 404.651,35.3146 -0.135,-1.109 -0.489,-0.022 0.132,1.066 c 0.007,0.067 0.007,0.121 0.006,0.171 -0.008,0.189 -0.098,0.279 -0.27,0.271 -0.196,-0.009 -0.319,-0.133 -0.357,-0.458 l -0.131,-1.076 -0.486,-0.022 0.236,1.966 0.491,0.022 -0.016,-0.13 c 0.092,0.096 0.221,0.181 0.413,0.189 0.401,0.017 0.603,-0.191 0.622,-0.581 0.003,-0.08 -0.005,-0.191 -0.016,-0.287" /><path
         inkscape:connector-curvature="0"
         id="path340"
         style="fill:#005782;fill-opacity:1;fill-rule:nonzero;stroke:none"
         d="m 406.2237,34.2393 c -0.18,-0.008 -0.34,0.146 -0.349,0.337 -0.008,0.188 0.138,0.354 0.318,0.362 0.183,0.008 0.34,-0.146 0.348,-0.334 0.009,-0.191 -0.135,-0.357 -0.317,-0.365" /><path
         inkscape:connector-curvature="0"
         id="path342"
         style="fill:#005782;fill-opacity:1;fill-rule:nonzero;stroke:none"
         d="m 408.9946,36.6251 c -0.036,0.022 -0.12,0.047 -0.196,0.043 -0.107,-0.004 -0.138,-0.051 -0.155,-0.163 l -0.019,-0.164 0.3,0.012 -0.06,-0.486 -0.3,-0.014 -0.18,-1.477 -0.488,-0.021 0.179,1.476 -0.222,-0.009 0.06,0.488 0.222,0.011 0.03,0.236 c 0.046,0.377 0.197,0.521 0.537,0.535 0.126,0.007 0.275,-0.024 0.346,-0.066 l -0.054,-0.401 z" /><path
         inkscape:connector-curvature="0"
         id="path344"
         style="fill:#005782;fill-opacity:1;fill-rule:nonzero;stroke:none"
         d="m 411.2634,35.8486 c -0.056,0.057 -0.169,0.126 -0.292,0.121 -0.165,-0.008 -0.286,-0.071 -0.335,-0.481 l -0.125,-1.021 -0.489,-0.02 0.244,1.965 0.488,0.021 -0.014,-0.13 c 0.08,0.102 0.197,0.18 0.349,0.186 0.166,0.008 0.297,-0.062 0.368,-0.147 l -0.194,-0.494 z" /></g></g></svg>