<?xml version="1.0" standalone="no"?>
<!DOCTYPE svg PUBLIC "-//W3C//DTD SVG 20010904//EN"
 "http://www.w3.org/TR/2001/REC-SVG-20010904/DTD/svg10.dtd">
<svg version="1.0" xmlns="http://www.w3.org/2000/svg"
 width="170.000000pt" height="78.000000pt" viewBox="0 0 170.000000 78.000000"
 preserveAspectRatio="xMidYMid meet">

<g transform="translate(0.000000,78.000000) scale(0.100000,-0.100000)"
fill="#000000" stroke="none">
<path d="M1625 215 c-5 -2 -224 -25 -485 -51 -261 -26 -481 -51 -487 -57 -18
-14 -16 -73 3 -92 12 -12 27 -14 58 -10 45 6 530 55 796 81 103 10 170 21 179
29 19 18 6 82 -19 95 -19 10 -28 11 -45 5z m15 -45 c0 -5 -4 -10 -9 -10 -5 0
-11 -10 -14 -22 -3 -20 -4 -21 -11 -5 -5 9 -6 24 -2 32 6 17 36 21 36 5z
m-122 -41 l-5 -24 -11 25 c-10 24 -11 24 -11 3 -1 -31 -21 -29 -21 1 0 15 7
26 18 29 24 5 34 -7 30 -34z m52 15 c0 -14 -4 -23 -10 -19 -5 3 -10 15 -10 26
0 10 5 19 10 19 6 0 10 -12 10 -26z m-373 -6 c-3 -8 -6 -5 -6 6 -1 11 2 17 5
13 3 -3 4 -12 1 -19z m238 -8 c0 -16 -6 -26 -18 -28 -19 -4 -32 20 -23 44 9
25 41 13 41 -16z m-275 -20 c0 -16 -7 -30 -16 -34 -35 -13 -47 25 -16 54 22
22 32 16 32 -20z m186 31 c11 9 14 7 14 -13 0 -14 -3 -28 -7 -31 -11 -11 -33
14 -32 37 0 11 3 15 6 8 4 -10 8 -10 19 -1z m-58 -28 c3 -19 -1 -23 -22 -23
-21 0 -26 5 -26 26 0 21 4 25 23 22 14 -2 23 -11 25 -25z m-339 -35 c1 -10 -3
-18 -9 -18 -5 0 -10 17 -9 38 0 30 2 33 9 17 5 -11 9 -28 9 -37z m77 4 c-4
-23 -40 -22 -44 2 -5 22 18 39 34 25 7 -5 11 -18 10 -27z m-196 -23 c0 -11 -4
-19 -10 -19 -5 0 -10 9 -10 20 0 11 -5 20 -11 20 -6 0 -8 -9 -4 -20 4 -11 2
-20 -4 -20 -15 0 -14 47 2 53 17 6 37 -12 37 -34z m41 29 c0 -10 2 -10 6 0 8
21 25 13 21 -10 -2 -13 -9 -23 -17 -23 -7 0 -17 10 -22 23 -5 13 -5 22 1 22 6
0 10 -6 11 -12z m-134 -10 c14 -20 10 -42 -10 -46 -19 -4 -32 20 -23 43 7 18
20 19 33 3z"/>
</g>
</svg>
