<?xml version="1.0" standalone="no"?>
<!DOCTYPE svg PUBLIC "-//W3C//DTD SVG 20010904//EN"
 "http://www.w3.org/TR/2001/REC-SVG-20010904/DTD/svg10.dtd">
<svg version="1.0" xmlns="http://www.w3.org/2000/svg"
 width="225.000000pt" height="225.000000pt" viewBox="0 0 225.000000 225.000000"
 preserveAspectRatio="xMidYMid meet">

<g transform="translate(0.000000,225.000000) scale(0.100000,-0.100000)"
fill="#000000" stroke="none">
<path d="M988 2181 c-26 -4 -49 -9 -52 -12 -3 -3 -1 -23 5 -45 7 -22 9 -75 6
-121 l-5 -82 44 -65 c53 -78 55 -100 13 -121 -28 -15 -30 -19 -24 -55 4 -23 2
-41 -4 -45 -6 -3 -11 -20 -11 -36 0 -17 -6 -32 -15 -35 -10 -4 -15 -20 -15
-44 0 -73 -57 -84 -240 -46 -201 41 -337 57 -450 54 l-104 -3 -23 -74 c-98
-311 -53 -639 123 -909 65 -100 191 -229 282 -291 96 -64 236 -128 347 -157
88 -24 119 -27 260 -27 141 0 172 3 260 27 188 49 355 144 491 280 164 165
261 356 299 590 26 160 13 324 -38 487 l-23 74 -134 0 c-74 0 -166 -3 -205 -7
-49 -5 -60 -4 -35 2 19 5 94 14 165 20 72 6 145 14 163 16 l33 5 -32 57 c-134
238 -327 412 -551 496 l-66 25 -7 -47 c-3 -26 -1 -69 4 -97 9 -48 8 -51 -35
-118 -42 -65 -44 -70 -30 -92 9 -13 24 -26 35 -30 17 -5 19 -10 11 -31 -7 -17
-6 -32 2 -47 7 -12 11 -29 10 -38 -2 -9 4 -22 13 -29 8 -7 15 -28 15 -47 0
-49 46 -67 155 -60 l80 5 -120 -28 c-154 -37 -217 -39 -249 -7 -16 17 -22 32
-19 49 3 15 -2 29 -11 37 -9 8 -16 26 -16 42 0 15 -5 31 -11 34 -6 4 -8 22 -4
45 6 36 4 40 -24 55 -42 21 -40 44 11 118 l42 62 -2 95 c-2 52 1 109 7 127 7
26 6 33 -7 38 -26 10 -261 15 -314 6z m-616 -1533 l15 -33 17 33 c11 21 23 32
34 30 14 -3 17 -16 17 -78 0 -63 -3 -75 -17 -78 -15 -3 -18 4 -19 40 0 38 -2
41 -11 21 -6 -13 -15 -23 -19 -23 -4 0 -11 10 -16 23 -6 19 -8 17 -13 -18 -3
-27 -10 -41 -22 -43 -16 -3 -18 5 -18 71 0 40 3 77 7 80 14 15 30 6 45 -25z
m143 -48 c0 -63 -3 -75 -17 -78 -16 -3 -18 6 -18 78 0 72 2 81 18 78 14 -3 17
-15 17 -78z m104 71 c8 -5 11 -16 8 -25 -5 -13 -11 -15 -26 -6 -36 19 -32 -7
4 -29 38 -22 44 -45 18 -73 -18 -20 -45 -23 -74 -7 -16 8 -18 13 -9 24 9 11
17 12 30 5 24 -13 30 -13 30 3 0 6 -14 20 -30 29 -21 12 -30 25 -30 42 0 37
45 58 79 37z m112 -2 c26 -13 13 -32 -16 -25 -38 10 -38 -10 1 -33 29 -17 35
-26 32 -48 -4 -35 -41 -50 -82 -34 -23 9 -26 14 -16 26 9 11 17 12 32 4 13 -7
24 -7 30 -1 6 6 -4 17 -26 30 -39 23 -46 50 -20 76 18 19 38 20 65 5z m69 -69
c0 -64 -3 -80 -15 -80 -12 0 -15 16 -15 80 0 64 3 80 15 80 12 0 15 -16 15
-80z m137 58 c30 -28 31 -83 1 -115 -45 -48 -113 -15 -113 57 0 71 63 104 112
58z m100 -20 l28 -42 3 42 c2 29 8 42 18 42 11 0 14 -17 14 -80 0 -95 -12
-103 -56 -37 l-29 42 -3 -42 c-2 -29 -8 -43 -18 -43 -11 0 -14 17 -14 80 0 95
14 104 57 38z m163 -18 l0 -60 30 0 c23 0 30 -4 30 -20 0 -17 -7 -20 -45 -20
l-45 0 0 80 c0 64 3 80 15 80 12 0 15 -13 15 -60z m180 40 c45 -45 14 -140
-45 -140 -38 0 -65 33 -65 80 0 47 27 80 65 80 14 0 34 -9 45 -20z m139 11 c8
-5 11 -16 8 -25 -5 -13 -11 -15 -26 -6 -15 7 -23 6 -35 -6 -33 -32 -4 -95 34
-74 13 7 21 6 30 -5 9 -11 7 -16 -9 -24 -52 -29 -101 4 -101 68 0 58 57 99 99
72z m131 -58 c13 -38 25 -74 28 -80 7 -21 -26 -15 -38 7 -6 11 -19 20 -30 20
-11 0 -24 -9 -30 -20 -9 -17 -40 -29 -40 -16 0 6 51 139 56 148 14 22 33 1 54
-59z m78 4 c3 -52 5 -56 30 -59 16 -2 28 -10 30 -20 3 -15 -4 -18 -47 -18
l-51 0 0 73 c0 41 3 77 7 81 17 16 28 -5 31 -57z m172 43 c0 -16 -7 -20 -30
-20 -16 0 -30 -4 -30 -10 0 -5 11 -10 25 -10 18 0 25 -5 25 -20 0 -15 -7 -20
-25 -20 -14 0 -25 -6 -25 -13 0 -9 10 -12 30 -9 25 4 30 1 30 -17 0 -19 -6
-21 -50 -21 l-50 0 0 73 c0 41 3 77 7 80 3 4 26 7 50 7 36 0 43 -3 43 -20z
m-1268 -220 c42 -52 10 -118 -60 -127 l-42 -6 0 83 0 83 42 -6 c27 -4 49 -14
60 -27z m133 10 c0 -10 -12 -16 -32 -18 -42 -4 -43 -22 -2 -22 24 0 30 -4 27
-17 -2 -12 -13 -18 -31 -18 -38 1 -34 -23 6 -27 20 -2 32 -8 32 -18 0 -11 -13
-16 -47 -18 l-48 -3 0 81 0 81 48 -3 c34 -2 47 -7 47 -18z m103 -43 c3 -52 5
-57 25 -57 13 0 28 -5 33 -10 7 -7 18 13 33 60 29 92 48 93 78 8 12 -35 25
-71 28 -80 10 -26 -21 -23 -35 2 -14 26 -56 27 -63 1 -4 -15 -15 -19 -71 -20
l-66 -1 0 81 c0 71 2 80 18 77 13 -2 18 -15 20 -61z m357 38 c51 -50 22 -122
-53 -132 l-42 -6 0 82 0 81 35 0 c25 0 44 -8 60 -25z m75 -5 c0 -25 4 -30 25
-30 21 0 25 5 25 30 0 20 5 30 15 30 12 0 15 -16 15 -80 0 -64 -3 -80 -15 -80
-10 0 -15 10 -15 30 0 25 -4 30 -25 30 -21 0 -25 -5 -25 -30 0 -20 -5 -30 -15
-30 -12 0 -15 16 -15 80 0 64 3 80 15 80 10 0 15 -10 15 -30z m140 -29 c0 -41
4 -60 14 -64 23 -9 36 15 36 70 0 40 4 53 15 53 12 0 15 -14 15 -65 0 -58 -3
-66 -25 -81 -54 -35 -95 3 -95 90 0 45 5 56 27 56 9 0 13 -16 13 -59z m141 27
l15 -31 13 31 c8 20 21 32 32 32 24 0 24 -7 -6 -55 -14 -22 -25 -55 -25 -72 0
-23 -5 -33 -15 -33 -10 0 -15 10 -15 33 0 17 -11 52 -25 76 -30 52 -30 51 -7
51 11 0 25 -13 33 -32z m168 23 c21 -13 3 -32 -25 -25 -34 9 -31 -12 5 -30 34
-18 45 -41 31 -66 -13 -25 -42 -33 -74 -20 -37 14 -28 36 12 32 40 -4 41 8 2
30 -39 22 -47 44 -25 68 19 21 51 26 74 11z"/>
<path d="M877 638 c-21 -11 -23 -61 -3 -77 29 -24 61 14 49 58 -6 24 -24 32
-46 19z"/>
<path d="M1315 634 c-8 -9 -15 -24 -15 -34 0 -45 52 -60 65 -19 14 44 -21 81
-50 53z"/>
<path d="M1600 600 c0 -5 5 -10 10 -10 6 0 10 5 10 10 0 6 -4 10 -10 10 -5 0
-10 -4 -10 -10z"/>
<path d="M560 394 c0 -41 2 -45 23 -42 18 2 22 9 22 37 0 26 -5 36 -22 42 -22
8 -23 6 -23 -37z"/>
<path d="M990 396 c0 -9 5 -16 10 -16 6 0 10 4 10 9 0 6 -4 13 -10 16 -5 3
-10 -1 -10 -9z"/>
<path d="M1160 390 c0 -37 2 -41 23 -38 18 2 22 9 22 38 0 29 -4 36 -22 38
-21 3 -23 -1 -23 -38z"/>
<path d="M723 2111 c-220 -86 -414 -261 -537 -483 l-37 -67 33 -5 c18 -3 92
-10 164 -16 72 -6 145 -15 163 -20 50 -14 166 -23 205 -16 46 9 66 30 66 71 0
21 6 35 16 39 8 3 14 14 13 23 -2 10 2 28 9 41 10 16 10 27 2 43 -9 17 -8 23
7 35 10 7 21 14 25 14 4 0 12 8 17 19 8 15 2 32 -33 87 -43 68 -44 70 -35 124
5 31 5 75 1 97 l-7 42 -72 -28z"/>
</g>
</svg>
