<?xml version="1.0" standalone="no"?>
<!DOCTYPE svg PUBLIC "-//W3C//DTD SVG 20010904//EN"
 "http://www.w3.org/TR/2001/REC-SVG-20010904/DTD/svg10.dtd">
<svg version="1.0" xmlns="http://www.w3.org/2000/svg"
 width="225.000000pt" height="225.000000pt" viewBox="0 0 225.000000 225.000000"
 preserveAspectRatio="xMidYMid meet">

<g transform="translate(0.000000,225.000000) scale(0.100000,-0.100000)"
fill="#000000" stroke="none">
<path d="M1571 1514 c-36 -8 -66 -16 -68 -18 -2 -2 34 -1 80 1 198 13 377 -59
441 -176 15 -28 30 -51 33 -51 9 0 -9 84 -24 115 -50 99 -151 146 -313 144
-47 -1 -114 -7 -149 -15z"/>
<path d="M975 1359 c-12 -19 5 -23 22 -6 16 16 16 17 1 17 -9 0 -20 -5 -23
-11z"/>
<path d="M295 1335 c-26 -26 -33 -72 -15 -105 14 -27 71 -43 104 -30 35 13 26
28 -14 22 -65 -9 -96 66 -44 107 18 14 34 19 50 15 15 -4 24 -2 24 5 0 6 -18
11 -40 11 -30 0 -47 -7 -65 -25z"/>
<path d="M1070 1330 c0 -12 -7 -20 -17 -20 -17 -1 -17 -1 0 -11 12 -7 17 -23
17 -53 0 -49 15 -62 52 -46 l23 9 -22 7 c-19 5 -23 14 -23 44 0 28 5 40 18 43
16 4 16 5 0 6 -11 1 -18 9 -18 21 0 11 -7 20 -15 20 -8 0 -15 -9 -15 -20z"/>
<path d="M453 1310 c-44 -18 -44 -87 0 -108 42 -20 81 2 85 50 2 28 -2 40 -20
52 -25 18 -33 19 -65 6z m45 -22 c30 -30 -1 -94 -33 -68 -25 20 -13 80 15 80
3 0 11 -5 18 -12z"/>
<path d="M620 1310 c-8 -5 -23 -7 -32 -4 -16 5 -18 -2 -18 -50 0 -38 4 -56 13
-56 8 0 12 15 12 42 0 39 2 43 25 43 22 0 25 -5 28 -42 2 -29 8 -43 18 -43 10
0 14 12 14 45 0 41 2 45 25 45 23 0 25 -4 25 -45 0 -33 4 -45 15 -45 11 0 15
12 15 44 0 50 -22 82 -49 70 -20 -9 -41 -9 -61 -1 -8 4 -22 2 -30 -3z"/>
<path d="M803 1314 c-16 -7 -18 -184 -3 -184 6 0 10 14 10 30 0 20 5 30 15 30
9 0 29 7 45 15 24 13 30 22 30 49 0 18 -6 39 -13 45 -17 13 -67 22 -84 15z
m48 -24 c38 -21 12 -87 -28 -73 -20 7 -16 83 4 83 3 0 13 -5 24 -10z"/>
<path d="M940 1300 c-47 -47 2 -128 64 -104 26 10 18 23 -16 26 -49 5 -48 28
1 28 34 0 41 3 41 19 0 20 -35 51 -57 51 -7 0 -22 -9 -33 -20z m58 -23 c3 -12
-3 -17 -22 -17 -25 0 -35 18 -19 34 12 12 38 2 41 -17z"/>
<path d="M1172 1304 c-53 -37 -11 -124 52 -108 36 9 33 22 -6 26 -49 5 -48 28
1 28 47 0 54 17 21 50 -24 24 -38 25 -68 4z m48 -8 c0 -2 3 -11 6 -20 5 -12 0
-16 -20 -16 -24 0 -35 18 -19 33 7 8 33 10 33 3z"/>
<path d="M1340 1310 c-8 -5 -25 -7 -37 -3 -22 5 -23 2 -23 -51 0 -42 4 -56 14
-56 10 0 16 14 18 43 3 37 6 42 28 42 22 0 25 -5 28 -42 5 -62 22 -53 22 11 0
40 -4 55 -16 60 -19 7 -16 8 -34 -4z"/>
<path d="M1455 1308 c-27 -15 -35 -28 -35 -60 0 -35 37 -62 74 -52 36 9 33 22
-6 26 -26 2 -34 8 -36 26 -4 30 16 55 40 48 12 -3 18 0 15 7 -5 17 -28 19 -52
5z"/>
<path d="M1562 1303 c-54 -46 -14 -124 54 -107 36 9 29 22 -13 26 -52 4 -56
28 -4 28 34 0 41 3 41 19 0 18 -34 51 -51 51 -4 0 -16 -8 -27 -17z m46 -26 c3
-12 -4 -17 -22 -17 -27 0 -37 24 -13 33 19 8 32 2 35 -16z"/>
<path d="M1688 1309 c-29 -16 -22 -49 12 -60 17 -6 30 -15 30 -19 0 -11 -28
-20 -44 -14 -8 3 -17 1 -20 -4 -11 -18 45 -24 70 -7 20 13 22 19 14 35 -5 10
-19 22 -30 25 -31 10 -26 39 5 31 27 -7 35 8 9 18 -21 8 -26 7 -46 -5z"/>
<path d="M957 1123 c-12 -11 -8 -40 7 -52 26 -22 63 10 50 44 -6 15 -45 21
-57 8z"/>
<path d="M710 1021 c0 -82 2 -90 21 -96 27 -9 48 10 31 27 -7 7 -12 42 -12 85
0 66 -2 73 -20 73 -19 0 -20 -7 -20 -89z"/>
<path d="M200 1015 l0 -85 56 0 c40 0 54 3 51 13 -2 6 -17 12 -33 12 -22 1
-30 6 -32 23 -3 19 1 22 27 22 21 0 31 5 31 15 0 10 -10 15 -30 15 -23 0 -30
4 -30 20 0 16 7 20 30 20 20 0 30 5 30 15 0 11 -12 15 -50 15 l-50 0 0 -85z"/>
<path d="M1076 1044 c-24 -23 -20 -33 19 -50 35 -14 49 -48 23 -57 -8 -2 -7
-3 2 -3 8 1 16 13 18 28 2 20 -2 28 -20 33 -38 12 -50 26 -37 41 16 19 46 17
58 -3 6 -10 11 -13 11 -7 1 32 -48 44 -74 18z"/>
<path d="M1186 1010 c-4 -28 -9 -57 -12 -65 -5 -12 3 -15 42 -13 44 1 45 2 12
5 -33 4 -38 8 -38 29 0 21 5 24 38 26 l37 1 -33 4 c-27 4 -33 8 -30 26 2 18
10 22 41 22 20 0 37 3 37 8 0 4 -20 7 -44 7 l-43 0 -7 -50z"/>
<path d="M1305 1020 c9 -68 15 -90 23 -90 10 0 75 120 68 127 -3 3 -17 -20
-33 -51 -15 -31 -31 -56 -35 -56 -4 0 -8 19 -8 43 0 23 -5 49 -10 57 -7 11 -9
2 -5 -30z"/>
<path d="M1420 1003 c-7 -32 -14 -61 -17 -65 -2 -5 0 -8 5 -8 5 0 13 21 17 46
3 26 9 53 12 60 7 19 48 18 64 -2 11 -14 11 -18 -3 -28 -13 -10 -14 -19 -7
-46 l8 -35 -3 33 c-1 18 3 37 11 43 30 26 1 59 -51 59 -22 0 -26 -6 -36 -57z"/>
<path d="M1594 1043 c-39 -65 -65 -113 -60 -113 3 0 20 26 38 57 l33 58 11
-53 c7 -30 15 -57 20 -60 4 -4 4 4 1 18 -3 14 -9 44 -13 68 -7 46 -14 51 -30
25z"/>
<path d="M1690 1053 c-1 -5 -7 -34 -14 -65 -8 -32 -11 -58 -6 -58 4 0 11 20
14 45 4 24 11 47 16 50 4 3 16 -18 26 -45 10 -28 23 -50 30 -50 6 0 14 19 18
43 3 23 8 53 12 67 4 18 3 21 -4 10 -5 -8 -12 -32 -16 -52 -4 -21 -10 -38 -14
-38 -4 0 -16 23 -27 50 -17 44 -34 65 -35 43z"/>
<path d="M330 988 c0 -51 2 -58 20 -58 17 0 20 7 20 45 0 38 3 45 20 45 17 0
20 -7 20 -44 0 -35 4 -45 20 -49 18 -5 20 0 20 44 0 42 3 49 20 49 22 0 36
-37 27 -70 -4 -15 0 -20 14 -20 16 0 19 7 19 49 0 27 -6 53 -12 58 -7 6 -52
10 -100 10 l-88 0 0 -59z"/>
<path d="M567 1043 c-4 -3 -7 -46 -7 -95 0 -81 2 -88 20 -88 15 0 20 7 20 29
0 25 5 31 30 36 35 8 50 31 50 74 0 20 -7 34 -19 41 -22 11 -84 14 -94 3z m68
-58 c0 -20 -6 -31 -17 -33 -15 -3 -18 4 -18 33 0 29 3 36 18 33 11 -2 17 -13
17 -33z"/>
<path d="M806 1034 c-27 -26 -24 -71 6 -96 26 -23 50 -23 78 0 28 23 30 80 4
99 -24 18 -69 16 -88 -3z m69 -35 c5 -14 1 -27 -9 -37 -15 -15 -17 -15 -32 0
-20 20 -10 58 16 58 10 0 22 -10 25 -21z"/>
<path d="M970 970 c0 -128 69 -207 215 -246 107 -29 259 -9 412 52 77 31 223
116 223 129 0 3 -11 -1 -23 -10 -39 -25 -187 -75 -282 -96 -257 -54 -446 6
-521 166 l-24 50 0 -45z"/>
<path d="M1050 950 c0 -6 7 -13 15 -17 24 -9 27 1 5 15 -13 8 -20 8 -20 2z"/>
</g>
</svg>
