<?xml version="1.0" standalone="no"?>
<!DOCTYPE svg PUBLIC "-//W3C//DTD SVG 20010904//EN"
 "http://www.w3.org/TR/2001/REC-SVG-20010904/DTD/svg10.dtd">
<svg version="1.0" xmlns="http://www.w3.org/2000/svg"
 width="1200.000000pt" height="901.000000pt" viewBox="0 0 1200.000000 901.000000"
 preserveAspectRatio="xMidYMid meet">

<g transform="translate(0.000000,901.000000) scale(0.100000,-0.100000)"
fill="#000000" stroke="none">
<path d="M4200 7175 l0 -535 -665 0 c-366 0 -665 3 -665 6 0 12 -70 569 -75
602 l-6 32 -214 0 -214 0 4 -27 c7 -35 75 -587 75 -602 0 -8 -43 -11 -140 -11
-89 0 -140 4 -140 10 0 6 23 193 50 416 27 223 50 410 50 415 0 5 -89 9 -213
9 l-213 0 -103 -822 c-56 -453 -104 -835 -107 -850 l-6 -28 215 0 215 0 6 28
c3 15 15 109 27 210 l22 182 197 0 196 0 40 -312 39 -313 213 -3 c197 -2 212
-1 212 15 0 10 -16 142 -35 293 -19 151 -35 285 -35 298 l0 22 210 0 210 0 0
-635 0 -635 215 0 215 0 0 635 0 635 210 0 210 0 0 -315 0 -315 425 0 425 0 0
-850 0 -850 428 2 427 3 3 213 2 212 -215 0 -215 0 0 850 0 850 -425 0 -425 0
0 100 0 100 193 2 192 3 3 213 2 212 -195 0 -195 0 0 320 0 320 210 0 210 0 0
215 0 215 -425 0 -425 0 0 -535z"/>
<path d="M8340 6705 l0 -215 166 0 166 0 28 -28 c37 -38 50 -88 50 -198 0
-111 -19 -180 -60 -219 l-31 -30 -385 -3 -384 -3 0 -334 0 -335 215 0 215 0 0
120 0 120 114 0 114 0 6 -37 c3 -21 29 -220 56 -443 27 -223 53 -422 56 -442
l6 -38 214 0 214 0 -5 38 c-4 20 -35 264 -69 542 l-64 505 44 45 c133 139 198
369 173 615 -24 234 -130 410 -301 496 -94 47 -163 59 -360 59 l-178 0 0 -215z"/>
<path d="M9890 6825 c-248 -53 -423 -220 -487 -465 -22 -87 -22 -263 0 -350
62 -238 226 -379 541 -465 169 -46 222 -76 259 -145 52 -100 32 -228 -46 -297
-117 -103 -296 -46 -376 120 -13 26 -25 47 -27 47 -4 0 -354 -198 -362 -205
-1 -1 7 -29 19 -61 78 -209 252 -341 495 -375 199 -27 402 36 545 169 133 124
197 270 206 468 12 254 -73 445 -251 559 -75 48 -175 87 -331 129 -148 40
-198 69 -232 136 -86 169 14 331 197 318 80 -6 109 -28 165 -123 9 -15 29 -6
175 80 91 53 169 101 175 106 16 15 -52 133 -116 203 -31 33 -81 76 -111 93
-109 66 -288 89 -438 58z"/>
<path d="M6256 6635 c-60 -21 -116 -83 -132 -145 -52 -202 187 -354 343 -217
176 155 10 441 -211 362z"/>
<path d="M6807 6433 c-4 -3 -7 -483 -7 -1065 l0 -1058 430 0 430 0 0 215 0
215 -215 0 -215 0 0 195 0 195 195 0 195 0 -2 213 -3 212 -192 3 -193 2 0 225
0 225 210 0 210 0 0 215 0 215 -418 0 c-230 0 -422 -3 -425 -7z"/>
<path d="M6110 5160 l0 -850 215 0 215 0 0 850 0 850 -215 0 -215 0 0 -850z"/>
<path d="M4280 4549 c-206 -26 -381 -48 -387 -49 -10 0 -13 -47 -13 -201 l0
-201 28 5 c15 2 204 27 420 53 l392 49 0 197 0 198 -32 -1 c-18 -1 -202 -23
-408 -50z"/>
<path d="M6610 4121 c-50 -16 -90 -42 -113 -73 -71 -95 -60 -220 26 -295 102
-89 261 -61 327 57 30 54 34 147 8 195 -20 39 -64 83 -101 101 -34 18 -113 26
-147 15z"/>
<path d="M8598 4116 c-56 -20 -85 -42 -115 -87 -55 -83 -39 -204 36 -272 97
-88 245 -71 318 36 63 93 51 200 -32 275 -63 59 -132 75 -207 48z"/>
<path d="M3880 3015 l0 -875 420 0 420 0 0 200 0 200 -220 0 -220 0 0 135 0
135 160 0 160 0 0 205 0 205 -160 0 -160 0 0 135 0 135 220 0 220 0 0 200 0
200 -420 0 -420 0 0 -875z"/>
<path d="M1526 3628 c-3 -7 -43 -328 -91 -713 -47 -385 -89 -717 -92 -737 l-6
-38 215 0 215 0 10 78 c6 42 37 290 69 550 32 259 61 472 64 472 3 0 26 -162
50 -360 l44 -360 213 0 c164 0 213 -3 213 -12 0 -7 -9 -83 -20 -168 -11 -85
-20 -165 -20 -178 l0 -22 212 2 213 3 52 415 c29 228 52 430 53 448 l0 32
-212 -2 -213 -3 -31 -250 c-18 -137 -32 -243 -33 -235 -1 8 -32 256 -69 550
l-68 535 -382 3 c-301 2 -383 0 -386 -10z"/>
<path d="M2916 3632 c-4 -6 168 -1417 179 -1469 5 -23 6 -23 214 -23 114 0
210 2 212 5 3 2 -36 337 -87 742 -51 406 -93 741 -94 746 0 9 -417 9 -424 -1z"/>
<path d="M9708 3510 c-340 -57 -560 -341 -535 -690 12 -165 57 -276 150 -377
97 -103 209 -164 408 -218 52 -15 112 -33 135 -41 62 -22 119 -76 138 -131 60
-176 -51 -337 -220 -320 -96 10 -163 63 -216 171 -12 25 -26 45 -30 44 -4 -2
-86 -48 -183 -103 -201 -115 -190 -97 -129 -224 68 -139 211 -253 374 -297 89
-24 272 -25 360 -1 121 32 207 82 295 171 137 138 189 273 189 491 0 145 -15
218 -65 318 -80 158 -218 247 -510 328 -63 17 -130 40 -151 50 -99 50 -146
191 -99 294 64 142 281 156 351 23 14 -27 28 -48 32 -48 8 0 329 188 342 200
15 15 -67 153 -129 216 -121 123 -311 177 -507 144z"/>
<path d="M6450 2615 l0 -875 215 0 215 0 0 875 0 875 -215 0 -215 0 0 -875z"/>
<path d="M5050 2761 l0 -301 215 0 215 0 0 100 0 100 30 0 c74 0 188 -91 209
-167 7 -22 11 -145 11 -298 0 -231 -2 -264 -19 -300 -33 -71 -97 -123 -178
-144 l-43 -12 0 -195 0 -195 53 7 c294 34 502 205 589 484 22 72 23 88 23 370
0 291 -1 296 -26 372 -62 182 -178 321 -330 396 -133 65 -178 73 -481 79
l-268 6 0 -302z"/>
<path d="M7770 3048 c-250 -36 -441 -191 -534 -432 l-31 -81 -3 -302 c-4 -335
0 -366 61 -497 54 -119 151 -227 262 -292 104 -61 287 -99 445 -92 l75 3 3
191 2 191 -112 5 c-123 5 -175 21 -236 73 -70 59 -72 71 -72 390 0 315 2 326
67 386 60 56 109 72 236 77 l117 4 -2 192 -3 191 -105 1 c-58 1 -134 -2 -170
-8z"/>
<path d="M8450 2535 l0 -525 215 0 215 0 -2 523 -3 522 -212 3 -213 2 0 -525z"/>
</g>
</svg>
