<?xml version="1.0" standalone="no"?>
<!DOCTYPE svg PUBLIC "-//W3C//DTD SVG 20010904//EN"
 "http://www.w3.org/TR/2001/REC-SVG-20010904/DTD/svg10.dtd">
<svg version="1.0" xmlns="http://www.w3.org/2000/svg"
 width="300.000000pt" height="277.000000pt" viewBox="0 0 300.000000 277.000000"
 preserveAspectRatio="xMidYMid meet">

<g transform="translate(0.000000,277.000000) scale(0.100000,-0.100000)"
fill="#000000" stroke="none">
<path d="M2640 2420 l0 -90 -45 0 -45 0 0 -90 0 -90 44 0 44 0 4 -177 c4 -155
8 -186 27 -237 44 -111 126 -168 254 -174 l77 -4 0 90 0 89 -41 7 c-98 16
-114 50 -114 251 l0 150 73 3 72 3 0 89 0 89 -72 3 -73 3 -3 88 -3 87 -99 0
-100 0 0 -90z"/>
<path d="M273 2351 c-142 -52 -238 -173 -265 -337 -29 -173 66 -356 227 -435
129 -63 314 -48 427 35 52 39 102 106 123 166 l14 40 -109 0 c-103 0 -110 -1
-125 -23 -25 -39 -94 -71 -150 -71 -187 0 -276 257 -138 399 82 85 189 86 271
5 l40 -40 105 0 106 0 -15 43 c-33 97 -134 191 -237 222 -71 21 -209 19 -274
-4z"/>
<path d="M1103 2351 c-122 -42 -211 -145 -248 -288 -51 -196 44 -409 218 -489
53 -25 75 -29 147 -29 78 0 92 3 155 35 39 19 74 37 79 39 13 5 -1 -104 -20
-147 -28 -68 -65 -97 -141 -112 -69 -13 -135 4 -180 46 l-36 34 -109 0 c-125
0 -122 4 -70 -93 33 -62 79 -102 162 -141 62 -30 71 -31 190 -31 114 0 130 2
182 27 113 53 194 160 218 287 6 30 10 233 10 467 l0 414 -95 0 -95 0 0 -45
c0 -25 -2 -45 -5 -45 -3 0 -24 14 -47 30 -82 59 -213 77 -315 41z m240 -193
c20 -10 50 -37 67 -59 113 -157 6 -382 -175 -367 -71 6 -122 40 -159 107 -72
134 -2 310 136 341 42 9 83 2 131 -22z"/>
<path d="M1992 2350 c-169 -61 -282 -236 -269 -419 9 -138 71 -249 181 -322
83 -55 150 -73 257 -67 145 9 251 72 319 191 16 29 30 58 30 65 0 9 -28 12
-106 12 -102 0 -107 -1 -126 -25 -88 -113 -309 -69 -343 68 l-7 27 302 0 303
0 -5 93 c-4 59 -13 112 -27 147 -42 111 -138 204 -244 235 -71 21 -199 19
-265 -5z m244 -185 c43 -25 84 -78 84 -109 0 -14 -21 -16 -195 -16 -107 0
-195 2 -195 5 0 3 9 23 20 45 52 102 182 136 286 75z"/>
<path d="M1440 1007 c-14 -7 -31 -25 -38 -40 -39 -81 62 -166 126 -106 29 26
18 45 -14 25 -33 -23 -61 -20 -79 8 -20 30 -11 72 18 88 16 8 28 7 54 -7 43
-24 56 -10 20 21 -32 27 -51 29 -87 11z"/>
<path d="M2172 998 c6 -18 28 -21 28 -4 0 9 -7 16 -16 16 -9 0 -14 -5 -12 -12z"/>
<path d="M2733 998 c2 -7 10 -13 17 -13 7 0 15 6 18 13 2 7 -5 12 -18 12 -13
0 -20 -5 -17 -12z"/>
<path d="M2937 978 c-7 -30 7 -103 23 -123 14 -17 40 -20 40 -4 0 6 -7 17 -15
25 -8 9 -15 26 -15 40 0 15 6 24 15 24 8 0 15 7 15 15 0 8 -7 15 -15 15 -8 0
-15 7 -15 15 0 24 -27 17 -33 -7z"/>
<path d="M1590 950 c-39 -39 -11 -110 44 -110 25 0 66 41 66 65 0 7 -9 24 -21
39 -25 31 -61 34 -89 6z m69 -27 c12 -23 -4 -53 -28 -53 -22 0 -34 25 -26 51
8 24 41 25 54 2z"/>
<path d="M1720 904 c0 -49 3 -64 14 -64 11 0 16 14 18 48 3 40 6 47 26 50 20
3 22 0 22 -47 0 -39 4 -51 15 -51 10 0 15 10 15 34 0 47 9 66 31 66 14 0 19
-9 21 -47 4 -69 28 -69 28 0 0 32 -5 59 -12 64 -7 6 -50 10 -95 10 l-83 1 0
-64z"/>
<path d="M1950 904 c0 -49 3 -64 14 -64 11 0 16 14 18 48 3 39 6 47 23 47 17
0 20 -8 23 -47 2 -33 8 -48 17 -48 9 0 15 15 17 48 3 39 6 47 23 47 17 0 20
-8 23 -47 2 -34 7 -48 18 -48 10 0 14 13 14 48 0 72 -7 77 -105 78 l-85 2 0
-64z"/>
<path d="M2170 905 c0 -51 3 -65 15 -65 12 0 15 14 15 65 0 51 -3 65 -15 65
-12 0 -15 -14 -15 -65z"/>
<path d="M2242 958 c-24 -24 -13 -47 28 -59 22 -7 40 -17 40 -22 0 -6 -16 -7
-40 -3 -43 7 -54 -6 -21 -24 28 -14 67 -12 81 5 19 23 7 49 -27 60 -47 16 -54
29 -10 22 27 -4 37 -2 37 8 0 25 -66 35 -88 13z"/>
<path d="M2369 954 c-18 -21 -1 -46 40 -58 45 -13 39 -30 -9 -22 -43 7 -54 -6
-21 -24 28 -14 67 -12 81 5 19 23 7 49 -27 60 -47 16 -54 29 -10 22 27 -4 37
-2 37 8 0 27 -70 35 -91 9z"/>
<path d="M2510 955 c-18 -22 -4 -31 25 -15 19 10 28 11 37 2 12 -12 8 -15 -45
-26 -32 -7 -45 -31 -30 -55 7 -11 26 -16 62 -17 l51 -1 0 52 c0 28 -5 56 -12
63 -17 17 -73 15 -88 -3z m68 -67 c-5 -15 -58 -24 -58 -9 0 11 17 19 43 20 11
1 17 -4 15 -11z"/>
<path d="M2642 907 c3 -71 28 -95 28 -28 0 30 5 44 20 53 31 20 24 36 -15 36
l-36 0 3 -61z"/>
<path d="M2734 957 c-3 -8 -4 -36 -2 -63 2 -36 7 -49 18 -49 20 0 22 116 3
122 -7 3 -16 -2 -19 -10z"/>
<path d="M2810 955 c-18 -22 -4 -31 25 -15 19 10 28 11 37 2 9 -9 8 -12 -3
-15 -59 -17 -74 -25 -77 -40 -6 -32 17 -47 69 -45 l49 1 0 51 c0 29 -5 57 -12
64 -17 17 -73 15 -88 -3z m68 -67 c-5 -15 -58 -24 -58 -9 0 11 17 19 43 20 11
1 17 -4 15 -11z"/>
<path d="M2360 725 c-10 -12 -10 -15 3 -15 8 0 20 7 27 15 10 12 10 15 -3 15
-8 0 -20 -7 -27 -15z"/>
<path d="M2646 724 c-4 -11 -1 -14 11 -12 9 2 18 9 21 16 6 18 -25 15 -32 -4z"/>
<path d="M2970 650 c0 -73 3 -90 15 -90 12 0 15 17 15 90 0 73 -3 90 -15 90
-12 0 -15 -17 -15 -90z"/>
<path d="M2160 670 c-45 -45 -10 -119 50 -107 31 7 36 2 21 -22 -6 -10 -20
-11 -52 -6 l-44 7 19 -21 c22 -24 63 -27 92 -7 16 12 19 27 19 92 l0 78 -43 3
c-32 2 -47 -2 -62 -17z m70 -31 c14 -24 -2 -49 -31 -49 -24 0 -32 16 -25 46 8
30 41 32 56 3z"/>
<path d="M2310 670 c-41 -41 -10 -110 49 -110 28 0 60 24 47 37 -3 3 -17 1
-30 -5 -18 -8 -28 -7 -43 3 -16 13 -13 14 35 15 45 0 52 3 52 20 0 28 -35 60
-65 60 -14 0 -34 -9 -45 -20z m70 -20 c0 -5 -11 -10 -25 -10 -14 0 -25 5 -25
10 0 6 11 10 25 10 14 0 25 -4 25 -10z"/>
<path d="M2445 682 c-3 -3 -5 -32 -5 -64 0 -45 3 -58 15 -58 10 0 15 10 15 34
0 47 9 66 30 66 19 0 30 -26 30 -72 0 -18 5 -28 15 -28 19 0 20 64 2 100 -10
20 -20 25 -55 26 -23 0 -44 -1 -47 -4z"/>
<path d="M2600 670 c-41 -41 -13 -110 44 -110 19 0 39 7 46 15 18 21 5 30 -24
17 -18 -8 -28 -7 -43 3 -16 13 -13 14 35 15 54 0 60 6 41 43 -23 43 -66 50
-99 17z m70 -20 c0 -5 -14 -10 -31 -10 -17 0 -28 4 -24 10 3 6 17 10 31 10 13
0 24 -4 24 -10z"/>
<path d="M2730 624 c0 -50 3 -64 15 -64 11 0 15 11 15 40 0 29 5 43 20 52 30
19 24 34 -15 35 l-35 1 0 -64z"/>
<path d="M2834 668 c-19 -21 -19 -21 6 -14 41 12 53 12 57 -1 3 -8 -4 -13 -17
-13 -35 0 -60 -19 -60 -45 0 -27 17 -35 75 -33 l40 0 -4 52 c-1 28 -8 57 -13
64 -16 19 -63 14 -84 -10z m66 -63 c0 -9 -9 -15 -25 -15 -29 0 -34 16 -7 23
30 8 32 7 32 -8z"/>
<path d="M1930 451 c0 -13 29 -35 37 -28 7 8 -15 37 -28 37 -5 0 -9 -4 -9 -9z"/>
<path d="M2120 370 c0 -73 3 -90 15 -90 12 0 15 17 15 90 0 73 -3 90 -15 90
-12 0 -15 -17 -15 -90z"/>
<path d="M2286 444 c-9 -24 -8 -26 14 -14 11 6 20 15 20 20 0 16 -27 11 -34
-6z"/>
<path d="M2670 370 c0 -73 3 -90 15 -90 12 0 15 17 15 90 0 73 -3 90 -15 90
-12 0 -15 -17 -15 -90z"/>
<path d="M2940 445 c-21 -25 -1 -31 23 -7 17 18 18 22 5 22 -8 0 -21 -7 -28
-15z"/>
<path d="M2180 435 c0 -8 5 -15 11 -15 8 0 7 -6 -2 -17 -12 -14 -12 -16 1 -11
21 7 26 58 6 58 -9 0 -16 -7 -16 -15z"/>
<path d="M2730 435 c0 -8 7 -15 15 -15 8 0 15 7 15 15 0 8 -7 15 -15 15 -8 0
-15 -7 -15 -15z"/>
<path d="M2792 412 c-8 -17 -9 -28 -2 -30 5 -2 10 -20 10 -41 0 -38 14 -61 37
-61 7 0 13 7 13 15 0 8 -4 15 -10 15 -5 0 -10 16 -10 35 0 19 5 35 10 35 6 0
10 7 10 15 0 8 -4 15 -10 15 -5 0 -10 7 -10 15 0 25 -24 17 -38 -13z"/>
<path d="M1916 394 c-23 -23 -20 -25 24 -18 50 8 55 -12 5 -22 -45 -8 -60 -26
-45 -53 9 -17 20 -21 60 -21 l50 0 0 55 c0 43 -4 56 -19 65 -28 14 -57 12 -75
-6z m64 -68 c0 -16 -27 -29 -41 -20 -15 9 -10 22 9 27 29 8 32 7 32 -7z"/>
<path d="M2240 390 c-25 -25 -26 -72 -2 -93 23 -21 75 -22 92 -2 18 22 5 30
-26 16 -21 -9 -30 -9 -42 1 -13 11 -8 14 34 18 42 4 49 8 46 25 -4 25 -38 55
-63 55 -10 0 -28 -9 -39 -20z m68 -27 c2 -8 -6 -13 -22 -13 -26 0 -40 12 -29
24 11 11 46 2 51 -11z"/>
<path d="M2382 383 c-18 -19 -22 -30 -17 -51 10 -42 25 -54 62 -50 26 3 33 1
30 -11 -2 -12 -14 -16 -45 -14 -23 1 -42 -2 -42 -6 0 -16 26 -31 56 -31 52 0
64 20 64 108 l0 77 -42 1 c-31 1 -47 -4 -66 -23z m71 -24 c14 -22 2 -49 -22
-49 -26 0 -42 29 -29 53 11 21 36 19 51 -4z"/>
<path d="M2539 390 l-24 -21 43 6 c53 8 57 -10 5 -22 -33 -8 -38 -12 -38 -38
0 -29 1 -30 55 -32 l55 -1 -3 51 c-5 75 -44 99 -93 57z m55 -77 c-20 -15 -36
-13 -41 4 -2 6 6 13 19 15 33 6 44 -3 22 -19z"/>
<path d="M2737 403 c-4 -3 -7 -33 -7 -65 0 -45 3 -58 15 -58 12 0 15 14 15 65
0 60 -6 75 -23 58z"/>
<path d="M2892 387 c-26 -27 -28 -54 -6 -85 18 -26 75 -30 94 -7 18 22 4 31
-24 16 -24 -13 -46 -8 -46 10 0 5 20 9 45 9 37 0 45 3 45 18 0 24 -41 62 -66
62 -11 0 -30 -10 -42 -23z m68 -22 c0 -9 -9 -15 -25 -15 -24 0 -32 10 -18 23
12 13 43 7 43 -8z"/>
<path d="M1480 149 c0 -27 -3 -31 -22 -26 -22 6 -57 -8 -70 -27 -14 -20 -8
-63 10 -79 12 -11 36 -17 65 -17 l47 0 0 90 c0 73 -3 90 -15 90 -10 0 -15 -10
-15 -31z m-12 -61 c16 -16 15 -33 -4 -52 -19 -20 -54 -5 -54 22 0 20 18 42 35
42 6 0 16 -5 23 -12z"/>
<path d="M2307 164 c-8 -8 1 -24 14 -24 5 0 9 7 9 15 0 15 -12 20 -23 9z"/>
<path d="M2597 164 c-8 -8 1 -24 14 -24 5 0 9 7 9 15 0 15 -12 20 -23 9z"/>
<path d="M1892 133 c-8 -18 -9 -30 -2 -37 5 -5 10 -24 10 -41 0 -33 15 -55 37
-55 7 0 13 7 13 15 0 8 -4 15 -10 15 -15 0 -12 67 3 73 8 4 9 8 1 14 -6 4 -13
16 -17 26 -9 24 -20 21 -35 -10z"/>
<path d="M2370 141 c0 -11 -6 -22 -12 -25 -10 -5 -10 -7 0 -12 6 -3 12 -22 12
-43 0 -40 14 -61 42 -61 22 0 23 13 3 30 -18 15 -20 66 -2 74 10 5 10 7 0 12
-7 3 -13 14 -13 25 0 10 -7 19 -15 19 -8 0 -15 -9 -15 -19z"/>
<path d="M1559 112 c-25 -21 -30 -71 -9 -97 19 -23 94 -17 98 9 3 15 0 17 -14
11 -30 -12 -57 -11 -61 3 -3 8 9 12 41 12 39 0 46 3 46 20 0 25 -34 60 -59 60
-10 0 -29 -8 -42 -18z m69 -29 c2 -9 -7 -13 -27 -13 -30 0 -39 9 -24 24 11 10
46 3 51 -11z"/>
<path d="M1702 114 c-40 -27 -28 -46 42 -69 13 -4 16 -9 9 -16 -7 -7 -19 -6
-37 2 -31 14 -44 6 -26 -16 9 -11 26 -15 54 -13 38 3 41 5 41 33 0 24 -5 31
-32 39 -45 12 -42 28 5 21 l37 -6 -24 20 c-28 25 -39 26 -69 5z"/>
<path d="M1996 109 c-31 -24 -35 -68 -8 -92 23 -21 75 -22 92 -2 19 22 4 31
-25 15 -22 -12 -28 -12 -42 3 -16 16 -14 17 35 17 60 0 68 15 27 55 -29 30
-45 31 -79 4z m62 -26 c2 -8 -6 -13 -22 -13 -25 0 -33 10 -19 24 10 10 36 3
41 -11z"/>
<path d="M2148 123 c-27 -4 -28 -7 -28 -64 0 -46 3 -59 15 -59 11 0 15 11 15
40 0 29 5 43 20 52 19 12 28 40 13 37 -5 -1 -20 -4 -35 -6z"/>
<path d="M2238 123 c-27 -4 -28 -7 -28 -64 0 -46 3 -59 15 -59 10 0 15 11 15
35 0 22 8 43 20 55 20 20 27 41 13 39 -5 -1 -20 -4 -35 -6z"/>
<path d="M2465 105 c-45 -44 -21 -105 40 -105 62 0 87 71 39 109 -34 27 -50
26 -79 -4z m63 -17 c26 -26 2 -75 -31 -62 -22 8 -29 32 -17 55 12 22 30 25 48
7z"/>
<path d="M2688 123 c-27 -4 -28 -7 -28 -64 0 -46 3 -59 15 -59 11 0 15 11 15
40 0 29 5 43 20 52 19 12 28 40 13 37 -5 -1 -20 -4 -35 -6z"/>
<path d="M2766 109 c-29 -23 -33 -54 -10 -87 18 -26 75 -30 94 -7 18 22 4 31
-24 16 -24 -13 -46 -8 -46 10 0 5 20 9 45 9 53 0 59 17 20 55 -29 30 -45 31
-79 4z m62 -26 c2 -8 -6 -13 -22 -13 -25 0 -33 10 -19 24 10 10 36 3 41 -11z"/>
<path d="M2908 119 c-10 -5 -18 -19 -18 -30 0 -18 14 -27 64 -44 15 -4 17 -8
8 -17 -9 -9 -18 -8 -37 2 -28 15 -41 9 -32 -15 8 -18 77 -21 95 -3 24 24 13
47 -28 59 -50 15 -53 34 -5 25 38 -8 48 7 16 24 -24 12 -41 12 -63 -1z"/>
<path d="M2300 60 c0 -47 3 -60 15 -60 12 0 15 13 15 60 0 47 -3 60 -15 60
-12 0 -15 -13 -15 -60z"/>
<path d="M2590 60 c0 -47 3 -60 15 -60 12 0 15 13 15 60 0 47 -3 60 -15 60
-12 0 -15 -13 -15 -60z"/>
</g>
</svg>
