<?xml version="1.0" standalone="no"?>
<!DOCTYPE svg PUBLIC "-//W3C//DTD SVG 20010904//EN"
 "http://www.w3.org/TR/2001/REC-SVG-20010904/DTD/svg10.dtd">
<svg version="1.0" xmlns="http://www.w3.org/2000/svg"
 width="600.000000pt" height="500.000000pt" viewBox="0 0 600.000000 500.000000"
 preserveAspectRatio="xMidYMid meet">

<g transform="translate(0.000000,500.000000) scale(0.100000,-0.100000)"
fill="#000000" stroke="none">
<path d="M2075 2725 c-17 -8 -23 -14 -14 -14 26 -1 29 -22 29 -176 0 -140 0
-143 23 -149 39 -10 71 -6 104 14 38 23 55 51 56 96 2 76 -52 117 -118 90 -21
-9 -39 -16 -41 -16 -2 0 -5 38 -6 84 l-3 84 -30 -13z m127 -156 c27 -15 49
-71 42 -109 -7 -31 -45 -70 -71 -70 -8 0 -25 11 -38 25 -21 20 -25 34 -25 79
0 45 4 58 22 70 26 19 42 20 70 5z"/>
<path d="M2325 2726 c-29 -12 -29 -13 -7 -18 22 -6 23 -8 20 -149 -3 -142 -3
-144 -28 -156 -23 -12 -20 -13 35 -13 46 1 56 3 43 11 -16 9 -18 28 -18 174 0
91 -3 165 -7 165 -5 -1 -21 -7 -38 -14z"/>
<path d="M1001 2680 c0 -31 1 -32 9 -12 8 19 17 22 65 22 l56 0 -3 -142 -3
-143 -30 -6 c-17 -4 6 -7 55 -7 49 0 72 3 55 7 l-30 6 -3 143 -3 143 58 -3
c51 -3 58 -6 65 -28 6 -21 7 -19 5 10 l-2 35 -148 5 -147 5 1 -35z"/>
<path d="M3748 2700 c21 -9 22 -14 22 -149 0 -123 -2 -141 -17 -150 -14 -8 -2
-10 47 -10 55 1 61 2 38 11 -27 9 -28 12 -28 79 l0 69 58 0 c32 0 63 -5 70
-12 9 -9 12 -4 11 23 0 18 -3 28 -6 22 -3 -9 -27 -13 -69 -13 l-64 0 0 60 0
60 63 0 c36 0 68 -5 75 -12 9 -9 12 -7 12 10 0 21 -3 22 -117 21 -81 0 -111
-3 -95 -9z"/>
<path d="M1310 2585 c-22 -12 -23 -14 -7 -20 14 -6 17 -20 17 -81 0 -59 -3
-75 -17 -83 -14 -8 -3 -10 42 -10 41 1 52 3 35 8 -26 7 -26 6 -29 169 -1 36
-5 37 -41 17z"/>
<path d="M1501 2584 c-71 -50 -56 -180 23 -200 23 -5 79 16 91 35 3 5 -8 3
-24 -5 -51 -26 -111 17 -111 78 l0 28 75 0 c47 0 75 4 75 11 0 20 -58 69 -82
69 -13 0 -34 -7 -47 -16z m73 -16 c24 -34 20 -38 -34 -38 -54 0 -65 14 -34 44
22 22 50 20 68 -6z"/>
<path d="M1685 2586 c-24 -10 -26 -13 -12 -19 25 -10 25 -151 0 -166 -14 -8
-5 -10 37 -10 43 0 50 2 32 9 -21 9 -22 15 -21 100 1 50 0 93 -2 95 -2 2 -17
-2 -34 -9z"/>
<path d="M1773 2585 c-18 -8 -33 -17 -33 -20 0 -3 9 -1 21 5 11 7 32 9 45 6
23 -6 24 -10 24 -87 0 -73 -2 -80 -22 -89 -18 -7 -11 -9 32 -9 43 0 51 2 37
10 -15 9 -18 23 -16 91 2 69 -1 83 -16 95 -23 16 -31 16 -72 -2z"/>
<path d="M1920 2590 c-12 -8 -11 -10 8 -10 27 0 42 -33 42 -93 0 -58 -9 -85
-29 -90 -9 -3 11 -5 44 -4 33 0 50 2 38 4 -13 2 -23 7 -24 11 0 4 -1 41 -2 83
-3 97 -28 130 -77 99z"/>
<path d="M2453 2574 c-14 -14 -22 -28 -19 -32 4 -3 17 7 30 22 19 25 25 27 44
17 17 -9 22 -21 22 -50 0 -37 -2 -39 -51 -59 -45 -19 -50 -24 -47 -48 5 -40
32 -53 67 -33 25 14 29 15 37 1 9 -13 13 -13 39 2 22 12 24 16 10 14 -18 -3
-20 4 -23 77 -2 67 -6 83 -23 98 -29 24 -56 21 -86 -9z m77 -123 c0 -33 -21
-54 -47 -49 -30 6 -28 45 4 62 39 21 43 20 43 -13z"/>
<path d="M3138 2593 c22 -4 60 -49 49 -59 -2 -3 -28 -4 -56 -2 l-51 3 16 30
15 30 -26 -26 c-33 -32 -42 -84 -21 -132 25 -61 83 -73 137 -27 l24 20 -30
-15 c-42 -21 -52 -19 -86 14 -19 20 -29 40 -29 60 l0 31 75 0 76 0 -16 30
c-18 34 -44 51 -77 49 l-23 -2 23 -4z"/>
<path d="M3295 2586 c-24 -10 -26 -13 -12 -19 25 -10 25 -151 0 -166 -14 -8
-7 -10 32 -10 39 0 46 2 33 10 -15 8 -18 24 -18 80 l0 69 36 17 c54 26 68 11
72 -73 3 -61 0 -71 -19 -86 -21 -18 -20 -18 32 -17 30 1 46 3 37 6 -15 4 -18
17 -18 82 0 79 -16 121 -46 121 -8 0 -32 -9 -54 -20 -38 -19 -39 -19 -42 -1
-3 17 -6 18 -33 7z"/>
<path d="M4011 2586 c-19 -11 -21 -14 -7 -19 24 -10 23 -152 -1 -166 -14 -8
-2 -10 47 -10 46 1 56 3 35 8 -30 6 -30 7 -32 76 -3 143 0 135 -42 111z"/>
<path d="M4193 2576 c-15 -13 -24 -28 -20 -32 4 -5 18 5 31 21 24 30 24 30 45
11 13 -12 21 -31 21 -51 0 -29 -5 -34 -50 -53 -44 -19 -50 -24 -50 -51 0 -25
5 -32 26 -37 14 -4 30 -2 37 5 8 8 6 11 -10 11 -17 0 -33 17 -33 36 0 6 63 44
73 44 12 0 8 -55 -5 -69 -8 -9 -8 -11 -2 -8 7 4 14 0 18 -8 7 -19 17 -19 42 0
13 11 14 14 4 13 -12 -2 -16 14 -20 80 -4 68 -9 86 -24 98 -28 20 -51 17 -83
-10z"/>
<path d="M4385 2586 c-28 -12 -29 -13 -7 -18 20 -6 22 -12 22 -76 0 -62 -3
-73 -22 -86 -21 -15 -20 -16 32 -15 30 1 47 3 38 6 -15 4 -18 16 -18 78 0 65
3 76 22 89 31 22 65 20 78 -3 5 -11 10 -45 10 -75 0 -43 -5 -61 -20 -76 l-20
-20 53 1 c43 0 48 2 28 10 -21 8 -23 13 -16 55 17 115 -19 164 -94 127 -40
-20 -41 -20 -41 -2 0 22 -5 23 -45 5z"/>
<path d="M4743 2580 c27 -21 57 -27 57 -10 0 13 -34 30 -61 30 -21 0 -21 0 4
-20z"/>
<path d="M4930 2591 c14 -4 30 -18 37 -31 12 -25 12 -25 -38 -28 -28 -2 -54
-1 -56 2 -3 3 2 17 11 30 13 20 13 24 2 20 -20 -8 -46 -66 -46 -101 0 -39 34
-91 65 -99 28 -7 78 10 97 34 11 13 8 12 -20 -2 -18 -9 -42 -14 -52 -11 -29 9
-60 54 -60 86 l0 29 75 0 76 0 -16 30 c-17 34 -44 50 -77 49 -23 -1 -23 -1 2
-8z"/>
<path d="M1381 2576 c-9 -11 -6 -15 16 -19 25 -5 54 6 42 17 -15 13 -48 15
-58 2z"/>
<path d="M2612 2579 c10 -5 36 -49 58 -97 48 -103 48 -143 -1 -170 -31 -18
-35 -27 -17 -38 19 -12 43 28 93 157 26 67 56 130 66 140 19 19 18 19 -23 19
-35 -1 -40 -2 -25 -11 21 -12 19 -30 -14 -106 l-21 -48 -29 64 c-32 71 -35 87
-16 94 6 3 -10 6 -38 6 -38 0 -46 -2 -33 -10z"/>
<path d="M4082 2578 c-19 -19 -15 -23 23 -25 37 -2 50 19 19 31 -22 8 -28 8
-42 -6z"/>
<path d="M4673 2575 c-28 -20 -47 -78 -39 -120 7 -37 47 -75 78 -75 24 0 82
29 74 38 -4 3 -12 0 -18 -6 -7 -7 -21 -12 -33 -12 -71 0 -101 114 -45 170 24
24 13 26 -17 5z"/>
<path d="M2850 2490 c0 -6 33 -10 80 -10 47 0 80 4 80 10 0 6 -33 10 -80 10
-47 0 -80 -4 -80 -10z"/>
<path d="M3530 2490 c0 -6 33 -10 80 -10 47 0 80 4 80 10 0 6 -33 10 -80 10
-47 0 -80 -4 -80 -10z"/>
</g>
</svg>
