<?xml version="1.0" standalone="no"?>
<!DOCTYPE svg PUBLIC "-//W3C//DTD SVG 20010904//EN"
 "http://www.w3.org/TR/2001/REC-SVG-20010904/DTD/svg10.dtd">
<svg version="1.0" xmlns="http://www.w3.org/2000/svg"
 width="352.000000pt" height="138.000000pt" viewBox="0 0 352.000000 138.000000"
 preserveAspectRatio="xMidYMid meet">

<g transform="translate(0.000000,138.000000) scale(0.100000,-0.100000)"
fill="#000000" stroke="none">
<path d="M1780 1371 c0 -5 12 -34 26 -66 l26 -57 -60 -141 c-34 -78 -106 -245
-162 -371 -55 -126 -100 -230 -100 -233 0 -2 39 -2 87 -1 l86 3 74 180 c92
225 103 249 109 242 4 -3 28 -59 54 -124 26 -65 66 -158 87 -208 l39 -90 92
-3 c51 -1 92 1 92 6 0 4 -72 165 -160 358 -89 192 -163 358 -166 370 -3 11 6
46 19 76 14 31 23 59 19 62 -16 16 -43 3 -60 -30 l-19 -36 -21 36 c-13 23 -29
36 -42 36 -11 0 -20 -4 -20 -9z"/>
<path d="M314 1270 c-153 -31 -278 -163 -305 -326 -10 -59 -10 -80 5 -145 28
-125 98 -214 216 -272 61 -30 71 -32 175 -32 101 0 115 2 169 29 58 28 124 85
145 124 10 18 3 26 -55 67 l-65 47 -38 -41 c-45 -49 -94 -71 -158 -71 -91 1
-180 65 -202 147 -25 88 -4 200 47 256 33 37 94 60 157 60 68 1 94 -10 147
-61 l37 -35 66 48 c72 51 71 46 16 109 -77 85 -218 123 -357 96z"/>
<path d="M795 1267 c-3 -6 -4 -183 -3 -392 l3 -380 83 -3 82 -3 0 216 0 216
230 -216 c127 -119 236 -215 243 -212 9 3 12 96 12 393 l0 389 -82 3 -83 3 0
-211 0 -210 -227 210 c-126 115 -234 210 -241 210 -7 0 -15 -6 -17 -13z"/>
<path d="M2302 889 l3 -394 85 0 85 0 3 88 3 87 48 0 c184 0 312 91 340 242
21 113 -12 214 -94 286 -72 63 -115 74 -308 80 l-167 4 2 -393z m326 207 c46
-24 65 -67 60 -137 -6 -89 -55 -129 -158 -129 l-50 0 0 146 0 147 58 -6 c32
-2 73 -12 90 -21z"/>
<path d="M2962 888 l3 -393 270 0 270 0 0 80 0 80 -182 3 -183 2 0 55 0 54
143 3 142 3 0 70 0 70 -142 3 -143 3 0 99 0 100 165 0 165 0 0 80 0 80 -255 0
-255 0 2 -392z"/>
<path d="M7 253 c-4 -3 -7 -37 -7 -75 l0 -68 45 0 c25 0 45 5 45 10 0 6 -13
10 -30 10 l-30 0 0 65 c0 60 -6 75 -23 58z"/>
<path d="M171 242 c-9 -16 -51 -124 -51 -129 0 -2 6 -3 14 -3 8 0 18 9 21 20
9 27 55 27 62 0 3 -11 12 -20 20 -20 8 0 13 4 11 8 -1 4 -14 38 -27 75 -26 70
-34 79 -50 49z m29 -59 c0 -7 -7 -13 -15 -13 -16 0 -19 9 -9 35 5 13 8 14 15
3 5 -7 9 -19 9 -25z"/>
<path d="M370 185 c0 -43 4 -75 10 -75 6 0 10 11 10 25 0 20 5 25 24 25 29 0
56 24 56 50 0 29 -28 50 -66 50 l-34 0 0 -75z m68 21 c-2 -13 -12 -22 -25 -24
-18 -3 -23 1 -23 21 0 30 6 36 31 30 14 -4 19 -13 17 -27z"/>
<path d="M520 185 c0 -43 4 -75 10 -75 6 0 10 14 10 30 0 17 4 30 10 30 5 0
16 -13 25 -30 9 -16 22 -30 30 -30 12 0 11 5 -2 29 -16 27 -16 30 0 45 9 10
17 23 17 30 0 22 -35 46 -68 46 l-32 0 0 -75z m68 26 c-5 -24 -48 -27 -48 -3
0 25 7 31 31 25 12 -3 19 -12 17 -22z"/>
<path d="M686 239 c-20 -16 -26 -29 -26 -59 0 -30 6 -43 26 -59 54 -42 124
-10 124 57 0 43 -7 55 -37 71 -32 16 -57 14 -87 -10z m84 -19 c32 -32 21 -78
-23 -94 -21 -7 -67 33 -67 59 0 19 35 55 55 55 8 0 24 -9 35 -20z"/>
<path d="M845 251 c-3 -5 5 -11 17 -13 21 -3 23 -9 26 -65 2 -35 7 -63 12 -63
5 0 10 28 12 63 3 56 5 62 26 65 12 2 22 8 22 13 0 12 -107 12 -115 0z"/>
<path d="M1010 185 l0 -75 45 0 c25 0 45 5 45 10 0 6 -16 10 -35 10 -28 0 -35
4 -35 20 0 15 7 20 25 20 31 0 33 17 3 22 -15 2 -23 10 -23 23 0 15 8 21 33
23 45 4 30 22 -19 22 l-39 0 0 -75z"/>
<path d="M1155 236 c-58 -58 -2 -155 76 -131 28 9 23 25 -7 25 -41 0 -64 18
-64 50 0 36 33 62 68 53 18 -4 23 -2 20 8 -8 26 -65 23 -93 -5z"/>
<path d="M1285 251 c-3 -5 5 -11 17 -13 21 -3 23 -9 26 -65 2 -47 7 -63 17
-63 12 0 15 14 15 61 0 52 3 62 20 66 11 3 20 9 20 14 0 12 -107 12 -115 0z"/>
<path d="M1450 185 c0 -43 4 -75 10 -75 6 0 10 32 10 75 0 43 -4 75 -10 75 -6
0 -10 -32 -10 -75z"/>
<path d="M1553 245 c-46 -32 -36 -113 16 -135 57 -23 111 14 111 76 0 59 -76
95 -127 59z m73 -13 c6 -4 16 -17 23 -30 28 -53 -50 -102 -86 -54 -35 44 18
114 63 84z"/>
<path d="M1730 185 c0 -85 17 -103 22 -22 l3 52 39 -58 c54 -80 66 -76 66 24
0 60 -3 80 -12 77 -7 -3 -15 -27 -18 -54 l-5 -49 -34 53 c-47 74 -61 69 -61
-23z"/>
<path d="M2000 185 l0 -75 48 0 c58 0 85 23 85 72 0 43 -41 78 -94 78 l-39 0
0 -75z m100 26 c22 -41 -1 -81 -46 -81 -22 0 -24 4 -24 50 0 49 1 50 30 50 19
0 33 -7 40 -19z"/>
<path d="M2180 185 l0 -75 45 0 c25 0 45 5 45 10 0 6 -13 10 -30 10 -23 0 -30
4 -30 20 0 15 7 20 25 20 14 0 25 5 25 10 0 6 -11 10 -25 10 -20 0 -25 5 -25
25 0 21 5 25 30 25 17 0 30 5 30 10 0 6 -20 10 -45 10 l-45 0 0 -75z"/>
</g>
</svg>
