<?xml version="1.0" encoding="utf-8"?>
<!-- Generator: Adobe Illustrator 15.0.0, SVG Export Plug-In . SVG Version: 6.00 Build 0)  -->
<!DOCTYPE svg PUBLIC "-//W3C//DTD SVG 1.1//EN" "http://www.w3.org/Graphics/SVG/1.1/DTD/svg11.dtd">
<svg version="1.1" id="Calque_1" xmlns="http://www.w3.org/2000/svg" xmlns:xlink="http://www.w3.org/1999/xlink" x="0px" y="0px"
	 width="878.006px" height="247.378px" viewBox="0 0 878.006 247.378" enable-background="new 0 0 878.006 247.378"
	 xml:space="preserve">
<path fill="#EF7C00" d="M147.719,214.838c-23.44,4.269,80.249-14.285,118.482-109.536
	C266.452,129.516,269.734,194.567,147.719,214.838"/>
<path fill="#CD252E" d="M225.319,87.915c0-5.686-0.941-10.946-2.626-15.683c-3.615-10.125-18.689-14.571-30.556-16.302
	c2.221,9.274,3.471,19.131,3.431,29.362c0.176,1.833,0.288,3.725,0.288,5.749c0,68.68-72.596,131.776-125.658,132.55
	c-21.695,0.324-41.905-6.923-41.905-39.598c0-8.252,0.993-16.386,2.799-24.233c-0.113-0.084-0.198-0.137-0.198-0.137h0.227
	c9.709-41.978,42.756-75.792,72.727-75.792c12.68,0,21.164,8.283,19.906,19.933c-3.935,36.521-52.06,56.756-92.633,55.858
	c-0.011,0.044-0.021,0.087-0.029,0.137c0.623,0.468,2.933,2.201,6.636,5.093c4.377,3.411,8.891,3.302,10.991,3.44
	c23.104,1.482,66.918-10.27,86.075-36.464c29.496-40.364-1.206-59.548-28.275-59.015c-53.659,1.072-105.707,57-106.514,114.265
	c-0.432,30.769,24.085,51.955,59.108,51.955C130.42,239.034,225.319,156.93,225.319,87.915z"/>
<path fill="#EF7C00" d="M146.303,178.117c12.411-23.145,34.563-108.08-20.781-178.105C158.99-1.144,230.697,79.66,146.303,178.117"
	/>
<polygon fill="#CD252E" points="314.713,76.618 386.182,76.618 384.015,94.16 335.421,94.16 331.408,127.045 376.498,127.045 
	374.327,144.082 329.249,144.082 324.902,179.493 374.836,179.493 372.656,197.02 300.022,197.02 "/>
<path fill="#CD252E" d="M399.541,108.02h21.535l-1.496,12.026c10.523-9.858,18.373-13.542,28.563-13.542
	c16.695,0,27.54,10.201,27.54,25.715c0,1.849-0.159,3.69-0.326,5.19l-7.349,59.618h-21.711l6.848-54.436
	c0.335-2.021,0.167-3.674,0.167-5.182c0-8.017-5.169-13.534-13.023-13.534c-7.35,0-14.866,4.172-22.708,12.695l-7.517,60.457
	h-21.543L399.541,108.02z"/>
<path fill="#CD252E" d="M588.009,108.02h21.38l-2.346,18.536l1.011-1.01c12.36-15.187,18.527-19.53,27.384-19.53
	c6.682,0,11.685,2.175,17.379,7.684l-10.697,21.2c-4.686-4.668-9.027-6.852-14.031-6.852c-6.02,0-13.696,5.353-18.193,13.028
	c-3.178,5.353-6.185,12.693-6.689,16.866l-4.669,39.085h-21.534L588.009,108.02z"/>
<path fill="#CD252E" d="M650.3,220.868c2.826,1.67,5.012,2.493,6.666,3.333c5.849,2.672,13.704,4.343,20.042,4.343
	c8.026,0,15.872-2.502,22.22-7.016c4.505-3.17,6.837-6.519,9.679-13.696c1.174-2.665,1.852-11.146,1.852-12.313l0.667-5.337
	c-2.519,1.817-4.359,2.845-5.516,3.667c-5.681,3.17-12.695,4.84-19.548,4.84c-20.035,0-35.224-16.361-35.224-37.74
	c0-31.721,22.529-55.096,53.427-55.096c6.356,0,13.2,0.659,20.379,1.67c6.509,0.994,9.85,1.653,18.038,3.495l-8.515,70.806
	c-2.346,18.869-5.353,34.024-11.855,43.208c-9.694,13.533-26.064,20.875-47.095,20.875c-4.847,0-9.532-0.343-13.524-1.337
	c-4.686-1.002-7.521-2.167-13.859-5.679L650.3,220.868z M719.436,125.383c-5.518-2.672-8.851-3.512-14.7-3.512
	c-9.353,0-16.034,2.681-21.542,9.027c-6.348,7.007-9.852,16.198-9.852,25.209c0,15.53,9.02,26.22,22.041,26.22
	c6.517,0,11.349-1.678,17.867-6.176L719.436,125.383z"/>
<path fill="#CD252E" d="M764.516,108.012h21.39l-10.87,89.008h-21.543L764.516,108.012z M779.037,74.793
	c6.354,0,11.194,5.508,11.194,12.189c0,6.836-5.687,12.515-13.192,12.515c-6.346,0-11.528-5.5-11.528-12.36
	C765.511,80.301,771.686,74.793,779.037,74.793"/>
<path fill="#CD252E" d="M562.457,174.335c-8.689,5.239-18.234,8.466-27.445,9.525c-10.572,1.198-28.091-0.921-28.941-21.942
	c-1.186-29.308,20.19-45.986,32.371-45.171c6.033,0.415,8.702,2.737,8.727,9.288c0.049,13.477-16.736,24.884-33.74,19.898
	c-0.176-0.042-1.309,8.612-1.309,8.612c0.351,0.521,1.744,2.411,9.277,3.585c12.063,1.865,36.368-5.386,45.103-20.19
	c12.873-21.78-7.406-32.967-22.852-32.633c-32.855,0.694-61.382,25.854-60.489,59.309c0.476,18.374,15.252,33.349,39.599,33.969
	c12.63,0.317,26.049-3.691,38.552-10.519L562.457,174.335z"/>
<path fill="#CD252E" d="M869.869,174.335c-8.677,5.239-18.228,8.466-27.434,9.525c-10.577,1.198-28.079-0.921-28.941-21.942
	c-1.198-29.308,20.182-45.986,32.354-45.171c6.038,0.415,8.718,2.737,8.734,9.288c0.066,13.477-16.736,24.884-33.748,19.898
	c-0.163-0.042-1.288,8.612-1.288,8.612c0.327,0.521,1.736,2.411,9.272,3.585c12.059,1.865,36.364-5.386,45.099-20.19
	c12.875-21.78-7.405-32.967-22.854-32.633c-32.852,0.694-61.369,25.846-60.49,59.309c0.48,18.374,15.244,33.349,39.591,33.969
	c12.646,0.317,26.057-3.691,38.556-10.519L869.869,174.335z"/>
<g>
	<path fill="#F39100" d="M303.319,232.325l-3.133,6.539h-4.223l11.511-22.955h4.973l2.895,22.955h-4.155l-0.647-6.539H303.319z
		 M310.301,229.26l-0.647-5.722c-0.102-1.226-0.238-2.997-0.34-4.359h-0.068c-0.613,1.396-1.227,2.997-1.874,4.359l-2.792,5.722
		H310.301z"/>
	<path fill="#F39100" d="M320.345,235.187c0.852,0.477,2.486,1.09,3.985,1.09c1.601,0,2.554-0.92,2.554-2.044
		c0-1.021-0.545-1.703-2.18-2.555c-1.907-1.021-3.27-2.418-3.27-4.325c0-3.201,2.793-5.449,6.709-5.449
		c1.737,0,3.167,0.409,3.882,0.852l-0.987,2.861c-0.647-0.341-1.737-0.75-3.1-0.75c-1.499,0-2.52,0.783-2.52,1.907
		c0,0.954,0.715,1.601,2.146,2.316c1.839,0.987,3.44,2.35,3.44,4.462c0,3.678-3.065,5.721-7.05,5.688
		c-1.941-0.034-3.747-0.579-4.632-1.227L320.345,235.187z"/>
	<path fill="#F39100" d="M335.941,235.187c0.852,0.477,2.486,1.09,3.985,1.09c1.601,0,2.554-0.92,2.554-2.044
		c0-1.021-0.545-1.703-2.18-2.555c-1.907-1.021-3.27-2.418-3.27-4.325c0-3.201,2.792-5.449,6.709-5.449
		c1.737,0,3.167,0.409,3.882,0.852l-0.988,2.861c-0.647-0.341-1.737-0.75-3.099-0.75c-1.499,0-2.52,0.783-2.52,1.907
		c0,0.954,0.715,1.601,2.146,2.316c1.839,0.987,3.44,2.35,3.44,4.462c0,3.678-3.065,5.721-7.05,5.688
		c-1.941-0.034-3.746-0.579-4.632-1.227L335.941,235.187z"/>
	<path fill="#F39100" d="M367.885,228.749c0,5.653-3.917,10.49-9.57,10.49c-4.189,0-6.777-2.896-6.777-6.846
		c0-5.62,3.917-10.49,9.57-10.49C365.569,221.903,367.885,225.104,367.885,228.749z M355.624,232.291
		c0,2.282,1.192,3.883,3.235,3.883c2.963,0,4.938-4.087,4.938-7.391c0-1.703-0.783-3.814-3.167-3.814
		C357.463,224.969,355.624,229.192,355.624,232.291z"/>
	<path fill="#F39100" d="M383.651,238.251c-0.988,0.477-2.656,0.954-4.768,0.954c-4.155,0-6.709-2.657-6.709-6.607
		c0-5.79,4.394-10.66,10.524-10.66c1.464,0,2.759,0.341,3.406,0.613l-1.021,3.099c-0.613-0.271-1.396-0.511-2.521-0.511
		c-3.814,0-6.232,3.509-6.232,6.982c0,2.486,1.43,3.882,3.644,3.882c1.533,0,2.69-0.408,3.508-0.783L383.651,238.251z"/>
	<path fill="#F39100" d="M388.485,238.864l3.167-16.586h3.951l-3.167,16.586H388.485z M392.266,217.782
		c0-1.396,1.09-2.384,2.384-2.384c1.26,0,2.111,0.852,2.111,2.111c-0.034,1.465-1.124,2.385-2.486,2.385
		C393.083,219.895,392.266,219.043,392.266,217.782z"/>
	<path fill="#F39100" d="M409.974,238.864c0-0.987,0.137-2.316,0.272-3.712h-0.067c-1.635,3.03-3.849,4.087-5.96,4.087
		c-2.964,0-4.904-2.316-4.904-5.654c0-5.653,3.95-11.682,11.682-11.682c1.805,0,3.746,0.341,5.04,0.75l-1.737,8.65
		c-0.477,2.452-0.749,5.585-0.681,7.561H409.974z M411.574,225.139c-0.408-0.102-0.919-0.17-1.635-0.17
		c-3.644,0-6.505,4.121-6.505,7.901c0,1.737,0.647,3.167,2.385,3.167c1.873,0,4.12-2.315,4.904-6.539L411.574,225.139z"/>
	<path fill="#F39100" d="M427.886,218.021l-0.784,4.258h3.713l-0.613,3.065h-3.712l-1.294,6.675
		c-0.171,0.783-0.307,1.635-0.307,2.35c0,0.92,0.408,1.499,1.464,1.499c0.478,0,0.954-0.034,1.362-0.103l-0.374,3.1
		c-0.579,0.238-1.635,0.341-2.589,0.341c-2.725,0-3.916-1.499-3.916-3.406c0-0.919,0.102-1.839,0.34-3.065l1.431-7.39h-2.214
		l0.579-3.065h2.214l0.613-3.1L427.886,218.021z"/>
	<path fill="#F39100" d="M432.855,238.864l3.168-16.586h3.95l-3.167,16.586H432.855z M436.637,217.782
		c0-1.396,1.09-2.384,2.384-2.384c1.26,0,2.111,0.852,2.111,2.111c-0.034,1.465-1.124,2.385-2.486,2.385
		C437.454,219.895,436.637,219.043,436.637,217.782z"/>
	<path fill="#F39100" d="M460.169,228.749c0,5.653-3.917,10.49-9.57,10.49c-4.188,0-6.777-2.896-6.777-6.846
		c0-5.62,3.917-10.49,9.57-10.49C457.854,221.903,460.169,225.104,460.169,228.749z M447.908,232.291
		c0,2.282,1.192,3.883,3.235,3.883c2.963,0,4.938-4.087,4.938-7.391c0-1.703-0.783-3.814-3.167-3.814
		C449.747,224.969,447.908,229.192,447.908,232.291z"/>
	<path fill="#F39100" d="M463.947,238.864l2.146-11.443c0.408-1.976,0.646-3.712,0.851-5.143h3.543l-0.375,2.963h0.068
		c1.532-2.214,3.644-3.338,5.96-3.338c2.384,0,4.223,1.431,4.223,4.564c0,0.749-0.136,1.906-0.307,2.725l-1.805,9.672h-3.984
		l1.771-9.366c0.103-0.612,0.204-1.328,0.204-1.975c0-1.396-0.511-2.385-2.077-2.385c-1.805,0-4.121,2.18-4.836,6.063l-1.431,7.663
		H463.947z"/>
	<path fill="#F39100" d="M497.593,215.909h3.95l-3.678,19.481h8.991l-0.647,3.474h-12.976L497.593,215.909z"/>
	<path fill="#F39100" d="M527.118,228.749c0,5.653-3.917,10.49-9.57,10.49c-4.188,0-6.777-2.896-6.777-6.846
		c0-5.62,3.917-10.49,9.57-10.49C524.803,221.903,527.118,225.104,527.118,228.749z M514.857,232.291
		c0,2.282,1.192,3.883,3.235,3.883c2.963,0,4.938-4.087,4.938-7.391c0-1.703-0.783-3.814-3.167-3.814
		C516.696,224.969,514.857,229.192,514.857,232.291z"/>
	<path fill="#F39100" d="M530.93,238.864l3.168-16.586h3.95l-3.167,16.586H530.93z M534.711,217.782c0-1.396,1.09-2.384,2.384-2.384
		c1.26,0,2.111,0.852,2.111,2.111c-0.034,1.465-1.124,2.385-2.486,2.385C535.528,219.895,534.711,219.043,534.711,217.782z"/>
	<path fill="#F39100" d="M558.752,220.541h-0.067l-4.087,1.907l-0.238-3.099l5.653-2.623h3.27l-4.189,22.138h-3.814L558.752,220.541
		z"/>
	<path fill="#F39100" d="M571.045,235.867c0.579,0.034,1.191,0,2.077-0.068c1.532-0.17,3.134-0.749,4.53-1.736
		c1.601-1.158,2.963-2.793,3.78-4.904h-0.068c-1.192,1.294-2.997,1.94-4.598,1.94c-3.542,0-5.653-2.588-5.653-5.857
		c0-4.666,3.814-8.889,8.65-8.889c4.563,0,6.607,3.27,6.607,7.391c0,5.347-2.861,10.08-5.654,12.396
		c-2.146,1.703-4.973,2.725-7.629,2.963c-1.158,0.103-1.873,0.103-2.52,0.068L571.045,235.867z M575.166,224.765
		c0,1.975,1.09,3.338,2.929,3.338c1.532,0,2.86-0.852,3.61-1.941c0.204-0.272,0.374-0.579,0.477-1.022
		c0.136-0.511,0.204-1.294,0.204-2.009c0-2.078-0.886-3.679-3.031-3.679C577.039,219.451,575.166,222.074,575.166,224.765z"/>
	<path fill="#F39100" d="M605.986,223.641c0,7.084-3.406,15.599-10.013,15.599c-4.359,0-6.028-3.44-6.028-7.8
		c0-7.151,3.678-15.087,10.047-15.087C604.521,216.353,605.986,219.929,605.986,223.641z M593.861,231.61
		c0,1.941,0.341,4.461,2.589,4.461c3.746,0,5.585-8.719,5.585-12.328c0-1.602-0.238-4.224-2.485-4.224
		C596.008,219.52,593.861,227.387,593.861,231.61z"/>
	<path fill="#F39100" d="M617.938,220.541h-0.067l-4.087,1.907l-0.238-3.099l5.653-2.623h3.27l-4.189,22.138h-3.814L617.938,220.541
		z"/>
</g>
</svg>
