<?xml version="1.0" standalone="no"?>
<!DOCTYPE svg PUBLIC "-//W3C//DTD SVG 20010904//EN"
 "http://www.w3.org/TR/2001/REC-SVG-20010904/DTD/svg10.dtd">
<svg version="1.0" xmlns="http://www.w3.org/2000/svg"
 width="380.000000pt" height="133.000000pt" viewBox="0 0 380.000000 133.000000"
 preserveAspectRatio="xMidYMid meet">

<g transform="translate(0.000000,133.000000) scale(0.100000,-0.100000)"
fill="#000000" stroke="none">
<path d="M906 1147 c-155 -158 -253 -477 -291 -947 l-6 -75 36 84 c78 189 197
346 294 389 l42 19 -38 7 c-96 15 -136 73 -135 196 0 123 60 270 145 358 17
17 27 32 23 32 -5 0 -36 -28 -70 -63z"/>
<path d="M395 1095 c5 -11 23 -59 41 -106 84 -217 61 -343 -66 -364 l-41 -7
40 -30 c75 -55 156 -201 203 -366 l18 -67 -4 180 c-8 318 -71 582 -177 748
-12 17 -18 23 -14 12z"/>
<path d="M697 955 c-24 -50 -20 -58 4 -12 11 22 19 41 17 43 -3 2 -12 -12 -21
-31z"/>
<path d="M918 881 c-70 -62 -24 -171 73 -171 103 0 139 138 49 185 -45 23 -85
19 -122 -14z"/>
<path d="M661 863 c-6 -21 -13 -56 -16 -78 -3 -22 3 -6 14 35 20 77 21 113 2
43z"/>
<path d="M269 851 c-35 -35 -38 -77 -9 -114 40 -51 126 -43 156 15 47 92 -73
172 -147 99z"/>
<path d="M3102 813 c-7 -3 -19 -18 -28 -35 -31 -60 12 -125 76 -116 16 3 30 3
30 1 0 -1 -13 -25 -30 -51 -32 -52 -35 -62 -21 -62 5 0 30 35 55 78 55 95 60
139 20 171 -25 20 -72 26 -102 14z m73 -15 c45 -21 47 -78 3 -111 -23 -17 -31
-19 -53 -9 -66 30 -53 108 22 131 1 1 14 -4 28 -11z"/>
<path d="M3294 806 c-28 -21 -10 -31 20 -11 31 21 64 12 77 -22 12 -31 -3 -61
-36 -69 -34 -8 -31 -20 5 -28 40 -7 57 -48 36 -82 -23 -35 -53 -40 -88 -14
-35 25 -49 19 -23 -10 25 -28 95 -28 120 0 26 28 24 79 -4 101 l-22 18 21 29
c23 32 21 59 -6 87 -19 19 -74 19 -100 1z"/>
<path d="M1543 779 c-82 -40 -124 -114 -125 -214 0 -78 25 -138 79 -187 78
-70 215 -74 294 -9 29 25 32 30 20 45 -13 15 -16 15 -35 -2 -72 -66 -188 -68
-260 -4 -50 45 -73 173 -42 245 43 104 196 148 277 80 24 -21 32 -23 44 -13
14 11 13 15 -2 33 -45 51 -174 64 -250 26z"/>
<path d="M1963 786 c-34 -15 -73 -68 -73 -98 0 -14 8 -18 38 -18 32 0 41 5 50
25 12 27 49 41 82 30 28 -9 53 -49 46 -73 -4 -10 -56 -68 -116 -128 -106 -104
-110 -110 -110 -151 l0 -43 155 0 155 0 0 35 0 35 -107 0 -108 0 97 95 c75 73
100 105 108 135 15 56 -2 113 -42 141 -40 29 -128 36 -175 15z"/>
<path d="M2290 560 l0 -230 80 0 c104 0 170 15 218 50 101 73 113 249 24 344
-48 51 -95 66 -214 66 l-108 0 0 -230z m247 169 c29 -14 51 -35 69 -65 23 -39
26 -53 22 -113 -7 -123 -70 -175 -218 -176 l-85 0 -3 180 c-1 98 0 186 3 194
8 21 155 8 212 -20z"/>
<path d="M2772 563 c3 -208 5 -228 21 -231 16 -3 17 13 17 227 0 225 -1 231
-20 231 -20 0 -20 -5 -18 -227z"/>
<path d="M293 551 c52 -62 28 -129 -61 -176 l-47 -24 83 -1 c106 0 138 -14
224 -101 71 -72 73 -68 17 43 -62 123 -159 246 -220 278 -22 12 -22 12 4 -19z"/>
<path d="M160 510 c-11 -11 -20 -27 -20 -35 0 -21 36 -55 58 -55 24 0 52 31
52 58 0 21 -34 52 -57 52 -7 0 -22 -9 -33 -20z"/>
<path d="M158 343 c7 -3 16 -2 19 1 4 3 -2 6 -13 5 -11 0 -14 -3 -6 -6z"/>
</g>
</svg>
