<?xml version="1.0" encoding="UTF-8" standalone="no"?>
<svg
   xmlns:dc="http://purl.org/dc/elements/1.1/"
   xmlns:cc="http://creativecommons.org/ns#"
   xmlns:rdf="http://www.w3.org/1999/02/22-rdf-syntax-ns#"
   xmlns:svg="http://www.w3.org/2000/svg"
   xmlns="http://www.w3.org/2000/svg"
   viewBox="0 0 700 644.99997"
   height="645"
   width="700"
   xml:space="preserve"
   version="1.1"
   id="svg2"><metadata
     id="metadata8"><rdf:RDF><cc:Work
         rdf:about=""><dc:format>image/svg+xml</dc:format><dc:type
           rdf:resource="http://purl.org/dc/dcmitype/StillImage" /><dc:title></dc:title></cc:Work></rdf:RDF></metadata><defs
     id="defs6" /><g
     transform="matrix(1.25,0,0,-1.25,0,644.99995)"
     id="g10"><g
       transform="matrix(3.6523581,0,0,3.6572824,-804.59038,-142.43477)"
       id="g4457"><path
         style="fill:#bdbcbc;fill-opacity:1;fill-rule:nonzero;stroke:none"
         d="m 404.04492,923.71875 0,9.11133 1.88867,0 c 0.925,0 1.63883,-0.0852 2.14258,-0.25391 0.5375,-0.17 1.05367,-0.46984 1.54492,-0.90234 0.98,-0.86625 1.46875,-1.99844 1.46875,-3.39844 0,-1.39625 -0.47015,-2.52531 -1.41015,-3.38281 -0.46375,-0.425 -0.98274,-0.7261 -1.55274,-0.90235 -0.53125,-0.18125 -1.25367,-0.27148 -2.16992,-0.27148 l -1.91211,0 z m 1.375,1.29297 0.61914,0 c 1.17125,0 2.05961,0.27703 2.66211,0.83203 0.66875,0.62125 1.00195,1.43164 1.00195,2.43164 0,0.99125 -0.33937,1.79461 -1.01562,2.41211 -0.33,0.3 -0.70062,0.5168 -1.10938,0.6543 -0.40874,0.13 -0.92156,0.19531 -1.53906,0.19531 l -0.61914,0 0,-6.52539 z"
         transform="matrix(0.8,0,0,-0.8,0,841.89)"
         id="path4448" /><path
         style="fill:#bdbcbc;fill-opacity:1;fill-rule:nonzero;stroke:none"
         d="m 329.9292,100.4594 0.717,-0.297 1.345,2.7 -0.944,0.368 -1.118,-2.771 z"
         id="path4444" /><path
         style="fill:#bdbcbc;fill-opacity:1;fill-rule:nonzero;stroke:none"
         d="m 419.34375,923.14648 -4.50781,9.6836 1.48242,0 1.01367,-2.21289 3.90039,0 0.95508,2.21289 1.50586,0 -4.34961,-9.6836 z m -0.0234,3.08008 1.35157,3.09766 -2.76758,0 1.41601,-3.09766 z"
         transform="matrix(0.8,0,0,-0.8,0,841.89)"
         id="path4442" /><path
         style="fill:#bdbcbc;fill-opacity:1;fill-rule:nonzero;stroke:none"
         d="m 338.4582,102.9144 3.196,-7.835 3.271,7.835 -1.204,0 -2.044,-5.05 -2.015,5.05 -1.204,0 z"
         id="path4438" /><path
         style="fill:#bdbcbc;fill-opacity:1;fill-rule:nonzero;stroke:none"
         d="m 349.8532,102.9144 -4.022,0 0,-7.288 4.022,0 0,1.034 -2.922,0 0,2.436 2.837,0 0,1.033 -2.837,0 0,1.751 2.922,0 0,1.034 z"
         id="path4436" /><path
         style="fill:#bdbcbc;fill-opacity:1;fill-rule:nonzero;stroke:none"
         d="m 352.3972,95.6264 0,5.103 5.315,-5.546 0,7.731 -1.1,0 0,-5.065 -5.315,5.561 0,-7.784 1.1,0 z"
         id="path4434" /><path
         style="fill:#bdbcbc;fill-opacity:1;fill-rule:nonzero;stroke:none"
         d="m 359.4582,95.6264 1.1,0 0,7.288 -1.1,0 0,-7.288 z"
         id="path4432" /><path
         style="fill:#bdbcbc;fill-opacity:1;fill-rule:nonzero;stroke:none"
         d="m 452.88672,923.71875 0,9.11133 1.375,0 0,-3.72852 0.24805,0 2.60156,3.72852 1.68164,0 -2.82031,-3.88281 c 0.60625,-0.13 1.09289,-0.42563 1.46289,-0.89063 0.37,-0.46375 0.55468,-1.01906 0.55468,-1.66406 0,-0.82625 -0.29476,-1.49039 -0.88476,-1.99414 -0.535,-0.4525 -1.40367,-0.67969 -2.60742,-0.67969 l -1.61133,0 z m 1.375,1.29297 0.49023,0 c 1.26625,0 1.90039,0.46594 1.90039,1.39844 0,0.995 -0.65257,1.49218 -1.95507,1.49218 l -0.43555,0 0,-2.89062 z"
         transform="matrix(0.8,0,0,-0.8,0,841.89)"
         id="path4430" /><path
         style="fill:#bdbcbc;fill-opacity:1;fill-rule:nonzero;stroke:none"
         d="m 360.926,106.417 1.1,0 0,7.288 -1.1,0 0,-7.288 z"
         id="path4426" /><path
         style="fill:#bdbcbc;fill-opacity:1;fill-rule:nonzero;stroke:none"
         d="m 454.7207,910.23047 0,9.11133 1.375,0 0,-3.73047 0.24805,0 2.60156,3.73047 1.68164,0 -2.82031,-3.88282 c 0.605,-0.13 1.09484,-0.42687 1.46484,-0.89062 0.36875,-0.46375 0.55274,-1.01906 0.55274,-1.66406 0,-0.82625 -0.29477,-1.49235 -0.88477,-1.9961 -0.53375,-0.4525 -1.40367,-0.67773 -2.60742,-0.67773 l -1.61133,0 z m 1.375,1.29297 0.49024,0 c 1.26625,0 1.90039,0.46593 1.90039,1.39844 0,0.995 -0.65063,1.49218 -1.95313,1.49218 l -0.4375,0 0,-2.89062 z"
         transform="matrix(0.8,0,0,-0.8,0,841.89)"
         id="path4424" /><path
         style="fill:#bdbcbc;fill-opacity:1;fill-rule:nonzero;stroke:none"
         d="m 373.619,113.705 -4.022,0 0,-7.288 4.022,0 0,1.035 -2.922,0 0,2.435 2.837,0 0,1.034 -2.837,0 0,1.751 2.922,0 0,1.033 z"
         id="path192" /><path
         style="fill:#bdbcbc;fill-opacity:1;fill-rule:nonzero;stroke:none"
         d="m 416.70703,910.23047 0,9.11133 1.375,0 0,-3.73047 0.24805,0 2.60156,3.73047 1.68164,0 -2.82031,-3.88282 c 0.605,-0.13 1.09289,-0.42882 1.46289,-0.89257 0.37,-0.46375 0.55469,-1.01711 0.55469,-1.66211 0,-0.82625 -0.29477,-1.49235 -0.88477,-1.9961 -0.535,-0.4525 -1.40562,-0.67773 -2.60937,-0.67773 l -1.60938,0 z m 1.375,1.29101 0.49024,0 c 1.26625,0 1.89843,0.4679 1.89843,1.4004 0,0.995 -0.65062,1.49218 -1.95312,1.49218 l -0.43555,0 0,-2.89258 z"
         transform="matrix(0.8,0,0,-0.8,0,841.89)"
         id="path4418" /><path
         style="fill:#bdbcbc;fill-opacity:1;fill-rule:nonzero;stroke:none"
         d="m 423.98242,910.23047 0,9.11133 1.375,0 0,-3.73047 0.2461,0 2.60351,3.73047 1.68164,0 -2.82031,-3.88282 c 0.605,-0.13 1.09414,-0.42882 1.46289,-0.89257 0.37,-0.46375 0.55469,-1.01711 0.55469,-1.66211 0,-0.82625 -0.29477,-1.49235 -0.88477,-1.9961 -0.535,-0.4525 -1.40562,-0.67773 -2.60937,-0.67773 l -1.60938,0 z m 1.375,1.29101 0.48828,0 c 1.26625,0 1.90039,0.4679 1.90039,1.4004 0,0.995 -0.65062,1.49218 -1.95312,1.49218 l -0.43555,0 0,-2.89258 z"
         transform="matrix(0.8,0,0,-0.8,0,841.89)"
         id="path4414" /><path
         style="fill:#bdbcbc;fill-opacity:1;fill-rule:nonzero;stroke:none"
         d="m 345.0053,106.4171 1.1,0 0,7.288 -1.1,0 0,-7.288 z"
         id="path4410" /><path
         style="fill:#bdbcbc;fill-opacity:1;fill-rule:nonzero;stroke:none"
         d="m 351.5383,112.6721 0,1.033 -4.447,0 0,-1.033 1.676,0 0,-6.255 1.1,0 0,6.255 1.671,0 z"
         id="path4408" /><path
         style="fill:#bdbcbc;fill-opacity:1;fill-rule:nonzero;stroke:none"
         d="m 444.69141,910.06055 c -1.31375,0 -2.43875,0.4589 -3.375,1.3789 -0.94,0.92 -1.41016,2.02219 -1.41016,3.30469 0,1.45875 0.51492,2.63906 1.54492,3.53906 0.93625,0.815 1.99367,1.22071 3.16992,1.22071 1.33,0 2.46305,-0.4568 3.4043,-1.37305 0.93625,-0.9125 1.4043,-2.02399 1.4043,-3.33398 0,-1.30126 -0.46719,-2.41626 -1.39844,-3.34376 -0.92875,-0.92875 -2.04234,-1.39257 -3.33984,-1.39257 z m -0.0176,1.29101 c 0.95125,0 1.74953,0.33149 2.39453,0.99024 0.64875,0.6575 0.97461,1.4714 0.97461,2.4414 0,0.95875 -0.32883,1.77196 -0.98633,2.43946 -0.65625,0.66125 -1.46172,0.99023 -2.41797,0.99023 -0.88125,0 -1.65758,-0.32391 -2.33008,-0.97266 -0.67625,-0.64875 -1.01562,-1.47617 -1.01562,-2.48242 0,-0.95875 0.32601,-1.76226 0.97851,-2.41601 0.65375,-0.65875 1.4536,-0.99024 2.40235,-0.99024 z"
         transform="matrix(0.8,0,0,-0.8,0,841.89)"
         id="path4406" /><path
         style="fill:#bdbcbc;fill-opacity:1;fill-rule:nonzero;stroke:none"
         d="m 326.9174,112.6717 0,1.034 -4.446,0 0,-1.034 1.675,0 0,-6.254 1.1,0 0,6.254 1.671,0 z"
         id="path4402" /><path
         style="fill:#bdbcbc;fill-opacity:1;fill-rule:nonzero;stroke:none"
         d="m 331.9204,113.7057 -4.021,0 0,-7.288 4.021,0 0,1.034 -2.921,0 0,2.435 2.836,0 0,1.034 -2.836,0 0,1.751 2.921,0 0,1.034 z"
         id="path196" /></g><g
       style="stroke-width:0.65666717;stroke-miterlimit:10;stroke-dasharray:none"
       transform="matrix(3.6523581,0,0,3.6572824,-804.59038,-142.43477)"
       id="g4396"><path
         d="m 305.1691,141.4585 0,18.241 5.779,1.597 1.083,9.064 -17.867,-1.313 -4.599,6.438 -8.374,-8.934 -31.826,-15.765 -10.773,-2.628 0,-10.116 5.387,-11.167 -8.428,-8.723 -5.63,2.154 -8.277,-11.429 11.299,-17.211 8.539,-0.526 12.875,-8.801 49.923,-42.434 2.759,1.182 -14.876,43.618 5.679,1.706 4.074,5.387 0,4.992 -8.935,4.073 -7.225,-3.547 5.467,-10.01 -5.467,10.01 6.043,12.875 -8.934,6.831 18.131,8.408 4.173,16.028 z"
         style="fill:#deddde;fill-opacity:1;fill-rule:nonzero;stroke:none;stroke-width:0.65666717;stroke-miterlimit:10;stroke-dasharray:none"
         id="path198" /><path
         id="path202"
         style="fill:none;stroke:#ffffff;stroke-width:0.65666717;stroke-linecap:butt;stroke-linejoin:miter;stroke-miterlimit:10;stroke-dasharray:none;stroke-opacity:1"
         d="m 254.1686,82.1237 50.72,-42.797 2.803,1.192 -16.417,48.76 -37.106,-7.155 z m -13.08,8.877 9.743,17.888 9.877,-3.975 -6.54,-22.79 -13.08,8.877 z m -11.746,29.415 -8.409,-11.527 11.479,-17.358 8.676,-0.53 9.743,17.888 -6.94,0 -3.738,7.42 -10.811,4.107 z m 24.826,-38.292 6.54,22.79 6.808,1.722 18.552,-9.407 5.206,-7.95 -37.106,-7.155 z m -16.017,66.382 10.945,2.65 8.009,-8.48 -8.009,-13.383 -5.472,-2.252 -5.473,11.262 0,10.203 z m -3.09,-30.263 8.563,8.798 5.472,2.252 18.42,-22.657 -6.808,-1.722 -9.877,3.975 -6.94,0 -3.738,7.42 -5.092,1.934 z m 14.035,32.913 32.334,15.9 5.172,-7.95 -9.209,-11.793 -4.005,1.912 -14.815,-13.837 -7.285,-2.431 5.817,9.719 -8.009,8.48 z m 40.843,24.909 -8.509,-9.009 5.172,-7.95 5.74,-2.65 19.32,5.3 1.101,9.142 -18.153,-1.325 -4.671,6.492 z m -24.693,-49.024 21.356,12.852 0,7.553 -3.471,7.215 -5.738,-7.348 -4.005,1.912 -14.815,-13.837 6.807,-1.59 -0.134,-6.757 z m 40.545,33.104 0,-18.397 -10.78,-3.18 -8.409,1.325 0,7.553 -3.471,7.215 3.471,4.445 5.74,-2.65 13.449,3.689 z m -22.66,-43.042 -7.207,0 -0.848,15.854 11.526,6.936 8.409,-1.325 10.78,3.18 -4.24,-16.165 -18.42,-8.48 z m 2.937,-19.874 6.14,12.984 -9.077,6.89 -7.207,0 -0.848,15.854 -9.83,-5.916 -3.896,-12.821 6.166,-7.584 18.552,-9.407 z m -27.495,38.159 -7.285,-2.431 -2.192,-3.664 12.254,-15.073 3.896,12.821 0.134,6.757 -6.807,1.59 z m 27.495,-38.159 7.341,3.577 9.077,-4.107 0,-5.035 -4.138,-5.433 -5.469,-1.721 -1.605,4.769 -5.206,7.95 z" /></g><path
       id="path204"
       style="fill:#2c3696;fill-opacity:1;fill-rule:nonzero;stroke:none"
       d="m 3.5406061,179.91188 c 21.8593599,-8.96765 45.2088799,-14.48283 68.3940499,-17.75244 57.853364,-8.15209 113.935324,2.65153 162.734474,36.69351 25.42041,17.73416 49.62459,38.2698 80.2204,45.09063 5.09138,1.13742 10.25947,2.00419 15.48234,2.65885 12.18792,1.52143 24.66438,1.88716 37.15909,1.81767 l 0,25.34862 c -11.89207,-0.21212 -23.72937,-0.86677 -35.38769,-2.31872 -24.77395,-3.0904 -48.74072,-9.79785 -70.73888,-23.62238 -25.58842,-16.07742 -48.37913,-36.9861 -76.27219,-48.86129 -28.13412,-11.98126 -58.79201,-15.76655 -88.989714,-14.0842 -20.2231,1.1301 -41.27895,4.42531 -61.36327,10.33182 -3.98107,1.17033 -7.92196,2.44307 -11.81172,3.82552 -2.20603,0.779 -4.39379,1.59823 -6.56329,2.44672" /><path
       id="path206"
       style="fill:#37ab9c;fill-opacity:1;fill-rule:nonzero;stroke:none"
       d="m 11.076876,364.01948 c 12.83804,2.0371 25.5519,5.04339 38.17445,9.02983 13.79496,4.35948 27.65565,9.35167 39.8801,17.06122 11.125084,7.01101 18.185094,16.02621 26.183754,25.99962 9.79197,12.20801 26.76448,20.16626 40.62518,27.51374 12.21349,6.47704 23.88277,13.8867 35.26352,21.65111 20.90975,14.27437 41.31913,29.6825 59.86215,46.79127 2.22063,2.05173 -1.14319,5.31037 -3.36382,3.26229 -18.76582,-17.30991 -39.40895,-32.88628 -60.6255,-47.24477 -21.48317,-14.54135 -45.96492,-24.90975 -66.65188,-40.47514 -9.85771,-7.42063 -14.98928,-18.68506 -24.335664,-26.68354 -12.3888,-10.59514 -28.03915,-16.81618 -43.47402,-21.92906 -13.04987,-4.32291 -26.20567,-7.63275 -39.50756,-9.89661" /><g
       transform="matrix(3.6523581,0,0,3.6572824,-804.59038,-142.43477)"
       id="g4606"><path
         style="fill:#37ab9c;fill-opacity:1;fill-rule:nonzero;stroke:none"
         d="m 268.0251,138.423 -4.092,0 0,-11.533 4.092,0 0,4.654 c 0,1.978 0.562,3.484 2.833,3.484 0.629,0 1.169,-0.067 1.731,-0.382 l 0,3.934 -0.787,0 c -1.596,0 -2.945,-0.629 -3.732,-2.045 l -0.045,0 0,1.888 z"
         id="path4541" /><path
         style="fill:#37ab9c;fill-opacity:1;fill-rule:nonzero;stroke:none"
         d="m 277.71406,138.80562 c -3.417,0 -5.77656,-2.83249 -5.77656,-6.13749 0,-3.305 2.40488,-6.15938 5.82188,-6.15938 1.349,0 2.76537,0.5155 3.48437,1.6625 l 0.0453,0 0,-1.28125 4.09219,0 0,11.53282 -4.09219,0 0,-1.12344 c -0.854,1.012 -2.248,1.50624 -3.575,1.50624 z m 1.07969,-3.55312 c 1.663,0 2.62969,-1.19081 2.62969,-2.60781 0,-1.461 -0.96669,-2.58438 -2.62969,-2.58438 -1.664,0 -2.63125,1.12338 -2.63125,2.58438 0,1.417 0.96725,2.60781 2.63125,2.60781 z"
         id="path4537" /><path
         style="fill:#37ab9c;fill-opacity:1;fill-rule:nonzero;stroke:none"
         d="m 290.8431,138.423 -4.092,0 0,-11.533 4.092,0 0,5.98 c 0,1.439 0.472,2.675 2.136,2.675 2.023,0 1.843,-1.933 1.843,-3.035 l 0,-5.62 4.092,0 0,7.127 c 0,2.832 -1.237,4.788 -4.339,4.788 -1.596,0 -2.743,-0.472 -3.687,-1.866 l -0.045,0 0,1.484 z"
         id="path4535" /><path
         style="fill:#37ab9c;fill-opacity:1;fill-rule:nonzero;stroke:none"
         d="m 308.94062,145.54938 0,-8.25 c -0.854,1.012 -2.249,1.50624 -3.575,1.50624 -3.417,0 -5.77812,-2.83249 -5.77812,-6.13749 0,-3.305 2.40644,-6.15938 5.82344,-6.15938 1.349,0 2.76537,0.5155 3.48437,1.6625 l 0.0453,0 0,-1.28125 4.09219,0 0,18.65938 -4.09219,0 z m -2.49531,-10.29688 c 1.664,0 2.62969,-1.19081 2.62969,-2.60781 0,-1.461 -0.96569,-2.58438 -2.62969,-2.58438 -1.664,0 -2.62969,1.12338 -2.62969,2.58438 0,1.417 0.96569,2.60781 2.62969,2.60781 z"
         id="path4533" /><path
         style="fill:#37ab9c;fill-opacity:1;fill-rule:nonzero;stroke:none"
         d="m 330.3421,140.109 0,3.732 -9.644,0 0,-16.951 9.644,0 0,3.732 -5.238,0 0,2.923 4.968,0 0,3.731 -4.968,0 0,2.833 5.238,0 z"
         id="path4529" /><path
         style="fill:#37ab9c;fill-opacity:1;fill-rule:nonzero;stroke:none"
         d="m 340.6161,138.063 c -1.192,0.54 -2.496,0.742 -3.8,0.742 -2.518,0 -5.08,-1.259 -5.08,-4.091 0,-2.069 1.281,-2.698 2.562,-3.035 1.282,-0.338 2.563,-0.383 2.563,-1.282 0,-0.629 -0.764,-0.877 -1.281,-0.877 -1.012,0 -2.406,0.585 -3.237,1.169 l -1.484,-2.855 c 1.394,-0.854 3.012,-1.326 4.653,-1.326 2.676,0 5.441,1.259 5.441,4.294 0,2.136 -1.439,3.035 -3.35,3.417 -0.562,0.112 -1.843,0.225 -1.843,1.012 0,0.584 0.809,0.786 1.281,0.786 0.697,0 1.574,-0.224 2.203,-0.562 l 1.372,2.608 z"
         id="path4527" /><path
         style="fill:#37ab9c;fill-opacity:1;fill-rule:nonzero;stroke:none"
         d="m 346.2811,135.051 2.315,0 0,3.372 -2.315,0 0,3.462 -4.092,0 0,-3.462 -1.326,0 0,-3.372 1.326,0 0,-8.161 4.092,0 0,8.161 z"
         id="path208" /><path
         d="m 239.9464,148.6732 0,-7.547 7.841,0 c -0.392,-4.264 -3.577,-6.421 -7.743,-6.421 -6.322,0 -9.753,5.832 -9.753,11.567 0,5.636 3.284,11.664 9.606,11.664 3.872,0 6.665,-2.353 7.988,-5.881 l 9.116,3.822 c -3.185,6.911 -9.067,10.341 -16.663,10.341 -11.909,0 -20.045,-7.89 -20.045,-19.898 0,-11.615 8.087,-19.505 19.702,-19.505 6.175,0 11.615,2.205 15.242,7.253 3.283,4.607 3.676,9.214 3.774,14.605 l -19.065,0 z"
         style="fill:#37ab9c;fill-opacity:1;fill-rule:nonzero;stroke:none"
         id="path212" /></g><g
       transform="matrix(3.6523581,0,0,3.6572824,-804.59038,-142.43477)"
       id="g4587"><path
         style="fill:#2a3e92;fill-opacity:1;fill-rule:nonzero;stroke:none"
         d="m 339.06562,158.58844 c -3.417,0 -5.77812,-2.8325 -5.77812,-6.1375 0,-3.305 2.40488,-6.15938 5.82188,-6.15938 1.349,0 2.76537,0.51706 3.48437,1.66406 l 0.0453,0 0,-1.2828 4.09219,0 0,11.5328 -4.09219,0 0,-1.12344 c -0.854,1.012 -2.24744,1.50626 -3.57344,1.50626 z m 1.07813,-3.55157 c 1.664,0 2.62969,-1.19081 2.62969,-2.60781 0,-1.461 -0.96569,-2.58593 -2.62969,-2.58593 -1.664,0 -2.62969,1.12493 -2.62969,2.58593 0,1.417 0.96569,2.60781 2.62969,2.60781 z"
         id="path4489" /><path
         style="fill:#2a3e92;fill-opacity:1;fill-rule:nonzero;stroke:none"
         d="m 277.71406,158.58844 c -3.417,0 -5.77656,-2.8325 -5.77656,-6.1375 0,-3.305 2.40488,-6.15938 5.82188,-6.15938 1.349,0 2.76537,0.51706 3.48437,1.66406 l 0.0453,0 0,-1.2828 4.09219,0 0,11.5328 -4.09219,0 0,-1.12344 c -0.854,1.012 -2.248,1.50626 -3.575,1.50626 z m 1.07969,-3.55157 c 1.663,0 2.62969,-1.19081 2.62969,-2.60781 0,-1.461 -0.96669,-2.58593 -2.62969,-2.58593 -1.664,0 -2.63125,1.12493 -2.63125,2.58593 0,1.417 0.96725,2.60781 2.63125,2.60781 z"
         id="path4503" /><path
         style="fill:#2a3e92;fill-opacity:1;fill-rule:nonzero;stroke:none"
         d="m 268.0251,158.2064 -4.092,0 0,-11.533 4.092,0 0,4.654 c 0,1.978 0.562,3.484 2.833,3.484 0.629,0 1.169,-0.067 1.731,-0.382 l 0,3.934 -0.787,0 c -1.596,0 -2.945,-0.629 -3.732,-2.045 l -0.045,0 0,1.888 z"
         id="path4507" /><path
         style="fill:#2a3e92;fill-opacity:1;fill-rule:nonzero;stroke:none"
         d="m 290.8431,158.2064 -4.092,0 0,-11.533 4.092,0 0,5.98 c 0,1.439 0.472,2.675 2.136,2.675 2.023,0 1.843,-1.933 1.843,-3.035 l 0,-5.62 4.092,0 0,7.127 c 0,2.832 -1.237,4.788 -4.339,4.788 -1.596,0 -2.743,-0.472 -3.687,-1.866 l -0.045,0 0,1.484 z"
         id="path4501" /><path
         style="fill:#2a3e92;fill-opacity:1;fill-rule:nonzero;stroke:none"
         d="m 308.94062,165.33375 0,-8.25157 c -0.854,1.012 -2.249,1.50626 -3.575,1.50626 -3.417,0 -5.77812,-2.8325 -5.77812,-6.1375 0,-3.305 2.40644,-6.15938 5.82344,-6.15938 1.349,0 2.76537,0.51706 3.48437,1.66406 l 0.0453,0 0,-1.2828 4.09219,0 0,18.66093 -4.09219,0 z m -2.49531,-10.29688 c 1.664,0 2.62969,-1.19081 2.62969,-2.60781 0,-1.461 -0.96569,-2.58593 -2.62969,-2.58593 -1.664,0 -2.62969,1.12493 -2.62969,2.58593 0,1.417 0.96569,2.60781 2.62969,2.60781 z"
         id="path4499" /><path
         style="fill:#2a3e92;fill-opacity:1;fill-rule:nonzero;stroke:none"
         d="m 320.69844,163.62438 0,-16.95156 4.40625,0 0,5.62031 2.49375,0 c 3.845,0 6.00312,1.75425 6.00312,5.75625 0,3.889 -2.51738,5.575 -6.15938,5.575 l -6.74374,0 z m 4.40625,-3.55156 0.74218,0 c 1.708,0 3.16875,-0.0228 3.16875,-2.15782 0,-2.069 -1.57275,-2.07031 -3.16875,-2.07031 l -0.74218,0 0,4.22813 z"
         id="path4495" /><path
         style="fill:#2a3e92;fill-opacity:1;fill-rule:nonzero;stroke:none"
         d="m 352.1931,158.2064 -4.091,0 0,-11.533 4.091,0 0,4.654 c 0,1.978 0.562,3.484 2.833,3.484 0.63,0 1.169,-0.067 1.731,-0.382 l 0,3.934 -0.787,0 c -1.596,0 -2.945,-0.629 -3.732,-2.045 l -0.045,0 0,1.888 z"
         id="path4487" /><path
         style="fill:#2a3e92;fill-opacity:1;fill-rule:nonzero;stroke:none"
         d="m 358.98282,164.92906 c -1.259,0 -2.2922,-1.03475 -2.2922,-2.29375 0,-1.259 1.0332,-2.29218 2.2922,-2.29218 1.259,0 2.29374,1.03318 2.29374,2.29218 0,1.259 -1.03474,2.29375 -2.29374,2.29375 z m -2.04532,-6.72344 0,-11.5328 4.09219,0 0,11.5328 -4.09219,0 z"
         id="path4485" /><path
         style="fill:#2a3e92;fill-opacity:1;fill-rule:nonzero;stroke:none"
         d="m 371.3701,157.8464 c -1.192,0.54 -2.496,0.742 -3.8,0.742 -2.518,0 -5.081,-1.259 -5.081,-4.091 0,-2.069 1.282,-2.698 2.563,-3.035 1.282,-0.338 2.563,-0.383 2.563,-1.282 0,-0.629 -0.764,-0.877 -1.281,-0.877 -1.012,0 -2.406,0.585 -3.238,1.169 l -1.483,-2.855 c 1.393,-0.854 3.012,-1.326 4.653,-1.326 2.676,0 5.441,1.259 5.441,4.294 0,2.136 -1.439,3.035 -3.35,3.417 -0.562,0.112 -1.843,0.225 -1.843,1.012 0,0.584 0.809,0.786 1.281,0.786 0.697,0 1.574,-0.224 2.203,-0.562 l 1.372,2.608 z"
         id="path210" /><path
         d="m 241.2351,148.6732 0,-7.547 7.842,0 c -0.393,-4.264 -3.578,-6.421 -7.744,-6.421 -6.322,0 -9.753,5.832 -9.753,11.567 0,5.636 3.284,11.664 9.606,11.664 3.872,0 6.665,-2.353 7.988,-5.881 l 9.116,3.822 c -3.185,6.911 -9.067,10.341 -16.663,10.341 -11.909,0 -20.045,-7.89 -20.045,-19.898 0,-11.615 8.087,-19.505 19.702,-19.505 6.175,0 11.615,2.205 15.242,7.253 3.283,4.607 3.676,9.214 3.774,14.605 l -19.065,0 z"
         style="fill:#2a3e92;fill-opacity:1;fill-rule:nonzero;stroke:none"
         id="path214" /></g></g></svg>