<?xml version="1.0" standalone="no"?>
<!DOCTYPE svg PUBLIC "-//W3C//DTD SVG 20010904//EN"
 "http://www.w3.org/TR/2001/REC-SVG-20010904/DTD/svg10.dtd">
<svg version="1.0" xmlns="http://www.w3.org/2000/svg"
 width="200.000000pt" height="119.000000pt" viewBox="0 0 200.000000 119.000000"
 preserveAspectRatio="xMidYMid meet">

<g transform="translate(0.000000,119.000000) scale(0.100000,-0.100000)"
fill="#000000" stroke="none">
<path d="M720 755 l0 -295 55 0 55 0 0 210 c0 116 2 210 4 210 2 0 42 -18 89
-40 l86 -39 85 39 c47 22 88 40 91 40 3 0 5 -94 5 -210 l0 -210 53 0 52 0 0
295 c0 162 -4 295 -8 295 -5 0 -69 -29 -143 -65 l-134 -64 -136 64 c-75 36
-140 65 -145 65 -5 0 -9 -133 -9 -295z"/>
<path d="M860 645 l0 -185 75 0 75 0 0 30 c0 23 -4 30 -20 30 -19 0 -20 7 -20
130 l0 130 -50 25 c-27 14 -52 25 -55 25 -3 0 -5 -83 -5 -185z"/>
<path d="M1093 802 c-46 -22 -53 -30 -53 -55 0 -19 4 -27 13 -24 88 34 97 41
97 74 0 18 -1 33 -2 32 -2 0 -27 -12 -55 -27z"/>
<path d="M1093 702 l-53 -26 0 -107 0 -107 51 -4 c30 -2 53 1 56 8 2 5 2 67 1
136 l-3 125 -52 -25z"/>
<path d="M131 328 c1 -40 2 -41 9 -13 l7 30 8 -28 c5 -21 10 -26 19 -17 8 8 8
13 0 18 -6 4 -14 17 -18 30 -12 37 -26 25 -25 -20z"/>
<path d="M187 356 c-9 -24 -9 -28 3 -21 6 4 11 -6 11 -22 1 -20 3 -22 6 -8 2
12 0 32 -5 45 -7 20 -10 21 -15 6z"/>
<path d="M220 329 c0 -23 4 -38 10 -34 11 7 10 75 -2 75 -4 0 -8 -18 -8 -41z"/>
<path d="M253 354 c-4 -10 0 -20 10 -26 22 -12 22 -25 0 -31 -14 -4 -12 -5 5
-6 16 -1 22 5 22 19 0 11 -7 23 -15 26 -20 8 -19 21 3 27 16 4 16 5 -1 6 -10
0 -20 -6 -24 -15z"/>
<path d="M304 358 c-4 -6 2 -19 14 -29 27 -21 27 -26 5 -32 -16 -4 -16 -5 -1
-6 26 -2 32 18 12 40 -16 17 -16 22 -4 29 13 8 12 10 -2 10 -9 0 -20 -5 -24
-12z"/>
<path d="M363 330 c0 -25 2 -35 4 -22 2 12 2 32 0 45 -2 12 -4 2 -4 -23z"/>
<path d="M389 346 c-15 -31 3 -59 35 -54 17 2 21 10 21 38 0 29 -4 36 -22 38
-16 2 -26 -4 -34 -22z m51 -11 c0 -28 -27 -45 -40 -25 -12 20 1 50 21 50 14 0
19 -7 19 -25z"/>
<path d="M472 330 c0 -38 1 -40 7 -16 l6 29 14 -26 c21 -39 31 -33 30 16 -2
32 -3 35 -6 13 l-5 -29 -23 29 -24 29 1 -45z"/>
<path d="M572 333 c-2 -39 0 -43 21 -42 16 1 17 3 5 6 -11 3 -18 17 -21 41
l-4 37 -1 -42z"/>
<path d="M620 350 c-8 -14 -8 -26 0 -40 14 -27 46 -25 61 2 l12 22 8 -22 c5
-14 16 -22 31 -21 l23 0 -22 9 c-14 6 -23 18 -23 30 0 12 9 24 23 30 l22 9
-22 0 c-12 1 -27 -7 -33 -16 -10 -17 -10 -17 -20 0 -15 23 -47 22 -60 -3z m54
-5 c8 -21 -3 -45 -20 -45 -18 0 -28 24 -20 45 3 8 12 15 20 15 7 0 16 -7 20
-15z"/>
<path d="M776 336 c-20 -47 -20 -52 -1 -36 8 7 15 22 16 34 1 14 4 10 12 -14
7 -23 12 -29 14 -18 2 9 -2 29 -10 45 l-15 27 -16 -38z"/>
<path d="M842 333 c-2 -35 1 -43 16 -43 11 0 13 3 5 8 -6 4 -13 23 -16 42 -4
33 -4 33 -5 -7z"/>
<path d="M890 330 c0 -35 3 -40 23 -39 16 1 18 2 5 6 -21 5 -24 29 -5 36 10 4
10 6 0 6 -19 1 -16 19 5 24 13 4 11 5 -5 6 -20 1 -23 -4 -23 -39z"/>
<path d="M973 330 c0 -25 2 -35 4 -22 2 12 2 32 0 45 -2 12 -4 2 -4 -23z"/>
<path d="M1002 330 c0 -40 1 -42 7 -15 l8 30 13 -27 c19 -40 30 -34 29 15 -2
32 -3 35 -6 13 l-5 -29 -23 29 -24 29 1 -45z"/>
<path d="M1077 362 c6 -4 13 -23 16 -42 l4 -35 1 37 c1 20 8 39 15 41 6 3 -1
6 -18 6 -17 0 -25 -3 -18 -7z"/>
<path d="M1130 330 c0 -35 3 -40 23 -39 16 1 18 2 5 6 -10 2 -18 8 -18 13 0 5
8 14 18 19 16 10 15 10 -3 11 -20 1 -20 1 -1 15 19 15 19 15 -2 15 -19 0 -22
-6 -22 -40z"/>
<path d="M1191 328 c1 -24 3 -35 6 -25 6 21 12 22 28 1 10 -14 12 -11 11 22
-2 32 -6 40 -24 42 -20 3 -22 -1 -21 -40z m29 23 c0 -6 -4 -13 -10 -16 -5 -3
-10 1 -10 9 0 9 5 16 10 16 6 0 10 -4 10 -9z"/>
<path d="M1254 356 c-12 -31 0 -61 26 -63 25 -3 25 -3 3 7 -13 5 -23 18 -23
30 0 12 9 24 23 30 l22 9 -23 0 c-12 1 -25 -5 -28 -13z"/>
<path d="M1317 364 c-14 -14 -7 -65 9 -71 26 -10 49 11 49 43 0 24 -5 30 -25
32 -14 2 -29 0 -33 -4z m48 -34 c0 -16 -6 -26 -18 -28 -19 -4 -32 20 -23 44 9
25 41 13 41 -16z"/>
<path d="M1395 337 c-4 -21 -5 -41 -1 -44 3 -4 6 7 7 23 l1 29 11 -27 c12 -30
27 -37 27 -13 0 8 -4 15 -8 15 -5 0 -13 12 -19 28 l-10 27 -8 -38z"/>
<path d="M1446 354 c-8 -22 -8 -26 3 -19 5 3 12 -7 14 -22 3 -23 4 -22 6 9 1
39 -13 59 -23 32z"/>
<path d="M1490 362 c0 -5 8 -24 17 -43 l17 -34 12 30 12 30 5 -30 c3 -24 4
-22 6 13 1 48 -13 56 -27 15 l-10 -28 -11 28 c-10 26 -21 36 -21 19z"/>
<path d="M1584 330 c1 -26 6 -36 20 -38 10 -2 22 2 27 10 12 18 11 68 -1 68
-5 0 -10 -16 -10 -35 0 -46 -27 -48 -33 -2 l-4 32 1 -35z"/>
<path d="M1651 328 c2 -33 3 -36 6 -14 l5 29 23 -29 24 -29 -1 45 c0 38 -1 40
-7 16 l-6 -29 -14 26 c-21 39 -31 33 -30 -15z"/>
<path d="M1736 346 c-3 -13 -9 -32 -13 -43 -6 -16 -5 -16 10 -4 9 7 17 23 18
35 1 14 4 10 10 -13 6 -18 13 -31 16 -28 7 8 -17 77 -27 77 -4 0 -11 -11 -14
-24z"/>
<path d="M1792 330 c2 -33 5 -40 22 -39 12 0 15 3 9 6 -7 2 -13 20 -13 39 0
19 -5 34 -10 34 -6 0 -10 -17 -8 -40z"/>
<path d="M1850 330 c0 -35 3 -40 23 -39 16 1 18 2 5 6 -21 5 -24 29 -5 36 10
4 10 6 0 6 -19 1 -16 19 5 24 13 4 11 5 -5 6 -20 1 -23 -4 -23 -39z"/>
<path d="M1482 310 c0 -14 2 -19 5 -12 2 6 2 18 0 25 -3 6 -5 1 -5 -13z"/>
<path d="M171 227 c-8 -11 -6 -18 10 -33 19 -17 19 -19 3 -31 -10 -7 -13 -13
-7 -13 6 0 17 7 24 16 11 14 11 18 -4 29 -20 14 -22 31 -4 38 7 4 8 6 1 6 -6
1 -17 -5 -23 -12z"/>
<path d="M227 233 c-4 -3 -7 -24 -7 -45 0 -33 3 -38 23 -38 20 1 20 2 5 11
-23 13 -23 26 0 32 16 4 16 5 0 6 -10 0 -18 7 -18 15 0 8 8 17 18 19 14 4 14
5 1 6 -9 0 -19 -2 -22 -6z"/>
<path d="M347 234 c-4 -4 -6 -23 -6 -43 1 -20 3 -28 6 -18 6 21 19 22 31 1 7
-12 9 -6 8 22 -1 37 -21 56 -39 38z m33 -25 c0 -5 -7 -9 -15 -9 -15 0 -20 12
-9 23 8 8 24 -1 24 -14z"/>
<path d="M421 215 c-20 -52 -21 -55 -11 -55 5 0 13 12 16 26 l7 27 13 -29 c7
-16 13 -22 13 -14 0 8 -6 29 -13 45 l-14 30 -11 -30z"/>
<path d="M483 199 c0 -33 1 -38 6 -19 l7 25 12 -22 c18 -32 27 -28 30 13 1 20
-2 33 -8 29 -5 -3 -7 -12 -3 -20 3 -8 0 -15 -6 -15 -6 0 -11 4 -11 8 0 5 -6
17 -14 27 -12 17 -14 15 -13 -26z"/>
<path d="M577 233 c-2 -5 -3 -23 -3 -42 1 -32 3 -34 39 -35 l37 -1 0 43 c0 41
-1 42 -34 42 -19 0 -37 -3 -39 -7z"/>
<path d="M698 223 c5 -10 8 -28 6 -40 -2 -13 0 -23 5 -23 5 0 11 18 13 40 3
33 1 40 -15 40 -14 0 -16 -4 -9 -17z"/>
<path d="M757 233 c-4 -3 -6 -22 -6 -42 1 -20 3 -28 6 -18 5 21 23 23 23 2 0
-8 3 -15 8 -15 4 0 7 12 7 28 0 41 -20 64 -38 45z m23 -18 c0 -8 -4 -15 -10
-15 -5 0 -10 7 -10 15 0 8 5 15 10 15 6 0 10 -7 10 -15z"/>
<path d="M814 226 c-11 -29 1 -71 21 -74 18 -2 18 -2 3 8 -10 6 -18 15 -18 20
0 5 8 11 18 13 16 4 16 5 0 6 -10 0 -18 7 -18 15 0 8 8 17 18 19 16 4 16 5 -1
6 -10 0 -20 -5 -23 -13z"/>
<path d="M870 216 c0 -13 -3 -31 -6 -40 -3 -9 -1 -16 5 -16 6 0 11 10 12 23 0
21 1 21 10 -3 l10 -25 14 25 13 24 5 -24 c3 -16 5 -10 6 18 1 50 -4 53 -22 10
l-13 -33 -12 33 c-13 38 -22 41 -22 8z"/>
<path d="M967 233 c-13 -12 -8 -83 6 -83 23 0 36 16 33 41 -4 41 -22 60 -39
42z m23 -18 c0 -8 -4 -15 -10 -15 -5 0 -10 7 -10 15 0 8 5 15 10 15 6 0 10 -7
10 -15z m8 -37 c-6 -18 -28 -21 -28 -4 0 9 7 16 16 16 9 0 14 -5 12 -12z"/>
<path d="M1091 215 c-20 -52 -21 -55 -11 -55 5 0 13 12 16 26 l7 27 13 -29 c7
-16 13 -22 13 -14 0 8 -6 29 -13 45 l-14 30 -11 -30z"/>
<path d="M1224 226 c-3 -8 -4 -27 -2 -42 3 -24 7 -27 41 -28 l37 -1 0 43 c0
41 0 42 -35 42 -22 0 -38 -6 -41 -14z"/>
<path d="M1541 193 c1 -27 4 -39 6 -28 3 11 10 23 17 27 8 6 7 8 -1 8 -7 0
-13 6 -13 14 0 8 6 17 13 19 7 3 5 6 -5 6 -15 1 -18 -7 -17 -46z"/>
<path d="M1597 233 c-4 -3 -7 -22 -7 -41 0 -39 14 -36 15 3 0 14 5 24 10 23 6
-2 9 -9 8 -17 -1 -9 2 -10 9 -3 6 6 8 18 5 26 -7 16 -28 21 -40 9z"/>
<path d="M1681 200 l1 -45 8 35 c5 20 5 39 -1 45 -5 5 -9 -8 -8 -35z"/>
<path d="M1758 233 c6 -2 13 -23 14 -46 1 -41 1 -41 5 -7 3 19 9 41 15 47 8
10 4 13 -18 12 -16 0 -23 -3 -16 -6z"/>
<path d="M1814 226 c-11 -29 1 -71 20 -74 19 -4 19 -3 2 14 -18 17 -18 18 0
25 11 4 13 8 7 8 -7 1 -13 7 -13 15 0 8 6 17 13 19 7 3 5 6 -6 6 -10 1 -20 -5
-23 -13z"/>
<path d="M281 203 c5 -16 12 -35 15 -43 4 -10 10 -4 20 19 8 19 13 39 10 45
-2 6 -7 -1 -11 -16 -8 -30 -25 -28 -25 3 0 10 -4 19 -10 19 -6 0 -6 -10 1 -27z"/>
<path d="M1024 195 c1 -31 5 -41 21 -43 18 -4 19 -3 3 10 -9 7 -19 27 -21 43
-3 21 -4 18 -3 -10z"/>
<path d="M1141 229 c-1 -4 5 -20 12 -37 l13 -31 11 37 c9 30 9 34 -1 20 -11
-15 -13 -15 -23 0 -7 9 -12 14 -12 11z"/>
<path d="M1341 203 c21 -60 21 -59 35 -28 7 17 13 37 13 45 0 8 -7 2 -14 -15
l-13 -30 -7 28 c-4 15 -11 27 -16 27 -5 0 -4 -12 2 -27z"/>
<path d="M1400 195 c0 -19 4 -35 8 -35 5 0 9 16 10 35 1 19 -3 35 -8 35 -6 0
-10 -16 -10 -35z"/>
<path d="M1431 193 c-1 -38 2 -43 21 -43 19 0 20 1 6 13 -9 6 -19 26 -21 42
-3 24 -4 21 -6 -12z"/>
<path d="M1482 193 c2 -29 8 -38 23 -40 11 -2 14 0 8 3 -7 3 -13 21 -13 40 0
19 -5 34 -11 34 -6 0 -9 -16 -7 -37z"/>
<path d="M1653 195 c0 -22 2 -30 4 -17 2 12 2 30 0 40 -3 9 -5 -1 -4 -23z"/>
<path d="M1729 200 c-7 -35 -4 -48 7 -38 3 4 4 21 2 40 l-3 33 -6 -35z"/>
<path d="M1700 201 c0 -5 5 -13 10 -16 6 -3 10 -2 10 4 0 5 -4 13 -10 16 -5 3
-10 2 -10 -4z"/>
</g>
</svg>
