<?xml version="1.0" standalone="no"?>
<!DOCTYPE svg PUBLIC "-//W3C//DTD SVG 20010904//EN"
 "http://www.w3.org/TR/2001/REC-SVG-20010904/DTD/svg10.dtd">
<svg version="1.0" xmlns="http://www.w3.org/2000/svg"
 width="270.000000pt" height="187.000000pt" viewBox="0 0 270.000000 187.000000"
 preserveAspectRatio="xMidYMid meet">

<g transform="translate(0.000000,187.000000) scale(0.100000,-0.100000)"
fill="#000000" stroke="none">
<path d="M538 1580 c-85 -15 -164 -58 -223 -122 -30 -33 -55 -63 -55 -68 0
-10 92 -60 107 -60 4 1 20 18 35 40 15 21 48 51 75 67 44 26 57 28 145 28 82
0 101 -3 125 -21 51 -38 73 -81 73 -145 l0 -58 -57 -11 c-280 -55 -453 -139
-501 -242 -42 -89 -43 -88 36 -88 69 0 70 1 90 34 39 66 132 115 307 162 135
36 125 43 125 -86 l0 -110 68 0 67 0 -5 247 c-5 232 -6 251 -27 290 -58 108
-227 172 -385 143z"/>
<path d="M1427 1566 c-64 -23 -114 -63 -159 -127 l-43 -61 -3 96 -3 96 -64 0
-65 0 0 -335 0 -335 65 0 65 0 0 119 c0 107 3 126 28 188 58 141 129 213 233
235 l59 12 0 63 0 63 -37 0 c-21 -1 -55 -7 -76 -14z"/>
<path d="M245 800 c-24 -27 -22 -70 5 -92 28 -23 52 -23 80 0 44 36 17 112
-40 112 -15 0 -35 -9 -45 -20z"/>
<path d="M400 815 c0 -3 7 -17 16 -30 14 -22 14 -27 0 -56 -19 -38 -16 -44 18
-35 52 13 68 73 30 111 -14 14 -64 22 -64 10z"/>
<path d="M541 770 c-14 -63 -14 -80 -1 -80 6 0 10 7 10 15 0 8 7 15 15 15 8 0
15 -7 15 -15 0 -8 5 -15 11 -15 6 0 8 8 5 18 -3 9 -8 38 -12 65 -8 63 -29 61
-43 -3z m25 -27 c-11 -11 -17 4 -9 23 7 18 8 18 11 1 2 -10 1 -21 -2 -24z"/>
<path d="M980 756 c0 -37 4 -66 10 -66 6 0 10 11 10 25 0 14 4 25 9 25 5 0 12
-11 15 -25 4 -14 11 -25 17 -25 6 0 8 9 4 23 -9 29 -9 29 0 51 11 26 -6 50
-39 54 -26 3 -26 3 -26 -62z m45 24 c0 -7 -6 -15 -12 -17 -8 -3 -13 4 -13 17
0 13 5 20 13 18 6 -3 12 -11 12 -18z"/>
<path d="M1453 755 c0 -38 2 -53 4 -32 2 20 2 52 0 70 -2 17 -4 1 -4 -38z"/>
<path d="M1619 798 c-1 -13 0 -40 1 -60 1 -30 -2 -38 -15 -38 -14 0 -16 8 -13
40 4 43 -6 54 -16 17 -9 -38 4 -67 30 -67 23 0 24 3 24 65 0 36 -2 65 -5 65
-3 0 -5 -10 -6 -22z"/>
<path d="M1751 806 c-14 -16 -4 -43 23 -66 24 -19 19 -33 -9 -26 -19 5 -23 3
-18 -9 3 -10 15 -15 32 -13 36 4 39 37 6 68 -32 30 -32 44 0 36 19 -5 23 -3
19 9 -8 19 -38 19 -53 1z"/>
<path d="M1969 796 c-2 -11 -2 -39 0 -63 2 -32 7 -43 20 -42 10 0 11 2 4 6 -7
2 -13 20 -13 39 0 20 5 34 13 34 8 0 9 3 1 8 -6 4 -13 14 -16 22 -4 12 -6 11
-9 -4z"/>
<path d="M617 773 c-3 -5 -5 -32 -6 -61 -1 -52 0 -53 26 -50 37 4 40 26 6 39
-27 11 -27 11 -7 19 23 9 39 60 19 60 -8 0 -10 -9 -7 -25 3 -19 0 -25 -13 -25
-13 0 -16 6 -13 25 5 25 3 32 -5 18z m43 -93 c0 -5 -9 -10 -20 -10 -11 0 -20
5 -20 10 0 6 9 10 20 10 11 0 20 -4 20 -10z"/>
<path d="M684 766 c-3 -8 -4 -27 -2 -43 2 -20 9 -29 26 -31 12 -2 22 1 22 6 0
6 -10 8 -21 5 -20 -6 -21 -3 -17 36 4 43 1 51 -8 27z"/>
<path d="M717 765 c3 -10 0 -21 -8 -26 -11 -7 -11 -9 4 -9 18 0 24 34 7 45 -6
4 -7 -1 -3 -10z"/>
<path d="M752 733 l1 -48 4 43 c3 27 9 42 18 42 9 0 15 -15 18 -42 l4 -43 1
48 c2 44 0 47 -23 47 -23 0 -25 -3 -23 -47z"/>
<path d="M820 734 c0 -41 2 -45 22 -42 12 2 23 9 24 16 1 7 0 8 -3 2 -2 -5
-12 -10 -20 -10 -12 0 -14 9 -11 40 2 22 0 40 -4 40 -5 0 -8 -21 -8 -46z"/>
<path d="M884 766 c-3 -8 -4 -27 -2 -43 2 -20 9 -29 26 -31 12 -2 22 1 22 6 0
6 -9 8 -20 5 -14 -4 -20 0 -20 11 0 9 8 16 20 16 15 0 20 7 20 25 0 14 -4 25
-9 25 -5 0 -7 -9 -4 -20 4 -14 0 -20 -12 -20 -12 0 -16 6 -12 20 6 23 -1 27
-9 6z"/>
<path d="M1064 766 c-3 -8 -4 -27 -2 -43 2 -20 9 -29 26 -31 12 -2 22 1 22 6
0 6 -9 8 -20 5 -14 -4 -20 0 -20 11 0 9 8 16 18 16 25 0 31 7 25 31 -6 22 -41
26 -49 5z m36 -11 c0 -8 -7 -15 -15 -15 -8 0 -15 7 -15 15 0 8 7 15 15 15 8 0
15 -7 15 -15z"/>
<path d="M1137 773 c-3 -5 -5 -32 -6 -61 -1 -52 0 -53 26 -50 37 4 40 26 6 39
-27 11 -27 11 -7 19 23 9 39 60 19 60 -8 0 -10 -9 -7 -25 3 -19 0 -25 -13 -25
-13 0 -16 6 -13 25 5 25 3 32 -5 18z m43 -93 c0 -5 -9 -10 -20 -10 -11 0 -20
5 -20 10 0 6 9 10 20 10 11 0 20 -4 20 -10z"/>
<path d="M1200 735 c0 -25 5 -45 10 -45 6 0 10 20 10 45 0 25 -4 45 -10 45 -5
0 -10 -20 -10 -45z"/>
<path d="M1234 766 c-12 -30 1 -71 22 -74 24 -3 37 27 28 65 -7 26 -41 32 -50
9z m38 -8 c7 -21 -4 -59 -16 -55 -18 6 -20 67 -2 67 8 0 16 -5 18 -12z"/>
<path d="M1302 733 l1 -48 4 43 c3 27 9 42 18 42 9 0 15 -15 18 -42 l4 -43 1
48 c2 44 0 47 -23 47 -23 0 -25 -3 -23 -47z"/>
<path d="M1375 770 c-5 -9 -1 -10 14 -5 27 8 27 -9 -1 -27 -28 -19 -18 -48 17
-48 25 0 26 3 23 43 -2 34 -7 43 -25 45 -11 2 -24 -2 -28 -8z m41 -59 c-8 -13
-36 -15 -36 -3 0 4 5 13 12 20 14 14 34 0 24 -17z"/>
<path d="M1480 735 c0 -38 3 -45 19 -45 11 0 22 4 25 9 4 5 -3 7 -14 4 -14 -4
-20 0 -20 11 0 9 8 16 20 16 21 0 29 33 11 44 -5 4 -7 -3 -4 -14 4 -14 0 -20
-12 -20 -12 0 -16 6 -12 20 3 11 1 20 -4 20 -5 0 -9 -20 -9 -45z"/>
<path d="M1650 735 c0 -38 3 -45 19 -45 11 0 22 4 25 9 4 5 -3 7 -14 4 -14 -4
-20 0 -20 11 0 9 8 16 20 16 21 0 29 33 11 44 -5 4 -7 -3 -4 -14 4 -14 0 -20
-12 -20 -12 0 -16 6 -12 20 3 11 1 20 -4 20 -5 0 -9 -20 -9 -45z"/>
<path d="M1826 771 c-4 -5 3 -7 14 -4 26 7 26 -13 0 -27 -11 -6 -20 -20 -20
-30 0 -15 7 -20 28 -20 26 0 27 2 24 45 -3 36 -8 45 -22 45 -11 0 -21 -4 -24
-9z m34 -51 c0 -11 -7 -20 -15 -20 -18 0 -19 12 -3 28 16 16 18 15 18 -8z"/>
<path d="M1901 733 c1 -53 6 -49 11 10 2 20 0 37 -4 37 -4 0 -8 -21 -7 -47z"/>
<path d="M1938 743 c5 -59 10 -63 11 -10 1 26 -3 47 -7 47 -4 0 -6 -17 -4 -37z"/>
<path d="M2014 766 c-3 -8 -4 -27 -2 -43 2 -20 9 -29 26 -31 12 -2 22 1 22 6
0 6 -9 8 -20 5 -14 -4 -20 0 -20 11 0 9 8 16 20 16 21 0 29 33 11 44 -5 4 -7
-3 -4 -14 4 -14 0 -20 -12 -20 -12 0 -16 6 -12 20 6 23 -1 27 -9 6z"/>
<path d="M220 632 c0 -5 7 -9 15 -9 8 0 12 4 9 9 -3 4 -9 8 -15 8 -5 0 -9 -4
-9 -8z"/>
<path d="M233 545 c0 -38 2 -53 4 -32 2 20 2 52 0 70 -2 17 -4 1 -4 -38z"/>
<path d="M273 545 c0 -38 2 -53 4 -32 2 20 2 52 0 70 -2 17 -4 1 -4 -38z"/>
<path d="M472 594 c-1 -12 -11 -24 -22 -27 -15 -4 -20 -14 -20 -41 0 -36 14
-51 42 -44 10 2 12 19 7 68 -3 36 -6 55 -7 44z m-2 -69 c0 -24 -5 -35 -15 -35
-15 0 -22 50 -8 63 15 15 23 5 23 -28z"/>
<path d="M642 543 c0 -38 3 -54 5 -36 3 19 11 34 21 36 15 4 15 5 0 6 -28 2
-24 49 5 54 19 4 18 4 -5 6 l-28 1 2 -67z"/>
<path d="M307 564 c-10 -11 -9 -72 2 -78 5 -4 7 3 4 14 -4 15 0 20 17 20 16 0
21 5 18 22 -3 23 -27 35 -41 22z m33 -19 c0 -8 -7 -15 -15 -15 -8 0 -15 7 -15
15 0 8 7 15 15 15 8 0 15 -7 15 -15z"/>
<path d="M517 564 c-10 -11 -9 -84 2 -84 5 0 7 9 4 20 -4 15 0 20 17 20 16 0
21 5 18 22 -3 23 -27 35 -41 22z m33 -19 c0 -8 -7 -15 -15 -15 -8 0 -15 7 -15
15 0 8 7 15 15 15 8 0 15 -7 15 -15z"/>
<path d="M712 521 c1 -41 2 -42 5 -11 3 19 9 40 14 46 5 7 3 11 -6 11 -11 0
-15 -12 -13 -46z"/>
<path d="M765 560 c-4 -6 -4 -14 -1 -17 3 -4 6 -1 6 5 0 7 7 12 15 12 21 0 19
-17 -5 -30 -30 -16 -26 -50 6 -50 23 0 25 3 22 42 -3 43 -27 64 -43 38z m35
-50 c0 -11 -7 -20 -15 -20 -27 0 -18 30 13 39 1 1 2 -8 2 -19z"/>
<path d="M843 525 c0 -27 2 -38 4 -22 2 15 2 37 0 50 -2 12 -4 0 -4 -28z"/>
<path d="M867 562 c6 -4 13 -25 16 -47 4 -40 4 -40 5 8 2 39 -1 47 -15 47 -12
0 -14 -3 -6 -8z"/>
<path d="M914 556 c-3 -8 -4 -27 -2 -43 2 -20 9 -29 26 -31 12 -2 22 1 22 6 0
5 -8 9 -17 8 -14 -1 -18 7 -18 29 0 22 4 30 18 29 9 -1 17 2 17 7 0 15 -40 10
-46 -5z"/>
<path d="M987 563 c-10 -10 -8 -71 2 -77 5 -4 7 3 4 14 -4 15 0 20 14 20 26 0
32 7 26 31 -5 18 -33 26 -46 12z m33 -18 c0 -8 -7 -15 -15 -15 -16 0 -20 12
-8 23 11 12 23 8 23 -8z"/>
<path d="M378 523 c6 -2 18 -2 25 0 6 3 1 5 -13 5 -14 0 -19 -2 -12 -5z"/>
<path d="M588 523 c6 -2 18 -2 25 0 6 3 1 5 -13 5 -14 0 -19 -2 -12 -5z"/>
<path d="M335 490 c-3 -5 -1 -10 4 -10 6 0 11 5 11 10 0 6 -2 10 -4 10 -3 0
-8 -4 -11 -10z"/>
<path d="M545 490 c-3 -5 -1 -10 4 -10 6 0 11 5 11 10 0 6 -2 10 -4 10 -3 0
-8 -4 -11 -10z"/>
<path d="M1015 490 c-3 -5 -2 -10 4 -10 5 0 13 5 16 10 3 6 2 10 -4 10 -5 0
-13 -4 -16 -10z"/>
</g>
</svg>
