<svg width="299" height="235" viewBox="0 0 299 235" fill="none" xmlns="http://www.w3.org/2000/svg">
<rect width="299" height="235" fill="white"/>
<rect width="55" height="20" transform="translate(20 20)" fill="white"/>
<path fill-rule="evenodd" clip-rule="evenodd" d="M42.7378 37.6409C42.9525 37.4262 43.1692 37.1957 43.3846 36.9644C43.7695 36.5066 44.1906 36.0767 44.6404 35.6779C44.7706 35.5598 44.908 35.4501 45.052 35.3493C45.0709 35.3304 45.0804 35.302 45.0898 35.2737C45.0992 35.2453 45.1087 35.217 45.1276 35.1981C45.0332 35.2359 44.9576 35.2926 44.882 35.3492C44.8064 35.4059 44.7308 35.4626 44.6363 35.5004C44.5985 35.5004 44.5607 35.4627 44.5985 35.4249L45.0023 35.122C44.994 35.1225 44.9852 35.1225 44.9764 35.1225C44.9387 35.1225 44.9387 35.0848 44.9387 35.0469C44.4514 34.972 44.0758 35.3058 43.7378 35.6061L43.7292 35.6138C43.6788 35.6391 43.6284 35.6138 43.5892 35.5942C43.5697 35.5844 43.5529 35.576 43.5403 35.576C43.2432 35.6751 42.9876 35.8572 42.7301 36.0407L42.73 36.0407C42.4961 36.2074 42.2606 36.3752 41.9909 36.4831V36.4075C41.8969 36.4388 41.804 36.4807 41.7109 36.5227C41.5793 36.5821 41.4472 36.6417 41.3106 36.672C41.0548 36.7288 40.8204 36.7216 40.5913 36.7145H40.5912H40.5911H40.5911H40.591H40.5909H40.5909C40.5154 36.7121 40.4405 36.7098 40.3656 36.7098C39.9035 36.766 39.4447 36.8477 38.9915 36.9545L38.9717 36.9594L38.9627 36.9616L38.952 36.9644C38.7068 37.0305 38.4704 37.1257 38.2478 37.248C38.239 37.2527 38.2304 37.2578 38.222 37.263C38.2032 37.2866 38.1847 37.3092 38.1673 37.3284C38.096 37.4195 38.008 37.4962 37.9081 37.5545C37.7438 37.6381 37.6006 37.7657 37.4584 37.8923C37.3997 37.9446 37.3412 37.9968 37.2814 38.0456C37.2636 38.058 37.2425 38.0647 37.2208 38.0648C37.1585 38.1246 37.0965 38.1846 37.0344 38.2446L37.0344 38.2446L37.0344 38.2446L37.0344 38.2447L37.0343 38.2447L37.0343 38.2447L37.0343 38.2447L37.0343 38.2448C36.8945 38.3799 36.7547 38.5152 36.6121 38.6474C36.5761 38.6641 36.5358 38.6689 36.4968 38.6612C36.5072 38.6457 36.5146 38.6338 36.5218 38.6218C36.5536 38.5684 36.5859 38.5153 36.6186 38.4624C36.6552 38.4033 36.6925 38.3448 36.7307 38.2869C36.7822 38.2087 36.8352 38.1314 36.8916 38.0568C36.9047 38.0426 36.9041 38.0206 36.8902 38.0072C36.876 37.9937 36.857 37.9866 36.8374 37.9874C37.0307 37.8066 37.2435 37.6478 37.4718 37.514C37.4466 37.5163 37.4099 37.4961 37.429 37.4695C37.4431 37.4499 37.4554 37.4296 37.4676 37.4092C37.4763 37.3949 37.4849 37.3806 37.4942 37.3665C37.4985 37.3553 37.5024 37.344 37.5063 37.3328C37.5004 37.3263 37.4945 37.3203 37.4886 37.3142L37.4777 37.303C37.4155 37.3399 37.3561 37.3814 37.3001 37.4271C37.2727 37.4518 37.2471 37.4843 37.2209 37.5176L37.2209 37.5176C37.1607 37.5942 37.0973 37.6748 37.0017 37.6737C36.9823 37.6734 36.963 37.6706 36.9444 37.6655C36.9304 37.6636 36.9169 37.659 36.9047 37.652L36.9096 37.6433L36.9152 37.6327L36.9207 37.6229L36.9387 37.5904L36.9484 37.5729L36.9567 37.5578L36.9712 37.5316C36.9802 37.5156 36.9889 37.4999 36.998 37.4837L37.0056 37.4704L37.0097 37.4634L37.0178 37.4495C37.0291 37.43 37.0404 37.4107 37.0518 37.3913L37.0521 37.3907L37.0666 37.3661L37.0899 37.326L37.1065 37.2975L37.1067 37.2973L37.1068 37.297L37.1069 37.2968L37.107 37.2968L37.1184 37.2771L37.1301 37.2573C37.1379 37.2449 37.1391 37.2296 37.1335 37.2161C37.1278 37.2027 37.116 37.1928 37.1017 37.1897C37.172 37.098 37.26 37.0213 37.3605 36.9642H37.3491C37.4487 36.914 37.5483 36.8565 37.6479 36.7989L37.648 36.7988L37.6483 36.7987C37.6932 36.7727 37.7382 36.7467 37.7831 36.7214C37.7971 36.7095 37.8107 36.6975 37.8244 36.6856L37.8456 36.6674C37.6329 36.7393 37.4306 36.8391 37.244 36.9641C37.2216 36.9729 37.2003 36.9845 37.1807 36.9986C37.1452 37.0063 37.1085 36.9928 37.0864 36.9641C37.0803 36.9561 37.0771 36.9463 37.0773 36.9363C37.0994 36.8923 37.1471 36.861 37.198 36.8277C37.2345 36.8038 37.2726 36.7788 37.3042 36.7473C37.3418 36.7473 37.3796 36.7473 37.3796 36.7851C38.1301 36.1988 39.055 36.0637 39.9831 35.9282C40.5507 35.8454 41.1196 35.7623 41.6503 35.5757L41.9904 35.349C42.0876 35.3101 42.1748 35.2412 42.2674 35.1681C42.3549 35.099 42.4471 35.0261 42.5572 34.971C42.8626 34.7614 43.0889 34.4553 43.1997 34.1019C43.1957 34.0732 43.1825 34.0466 43.162 34.0262C42.687 34.5383 42.1238 34.9608 41.4991 35.2734C40.9268 35.5732 40.3152 35.6175 39.7068 35.6615C39.4715 35.6785 39.2366 35.6955 39.0047 35.7273C39.0426 35.6518 39.1182 35.6518 39.1937 35.6518C39.1937 35.562 39.241 35.5196 39.2982 35.4684C39.3133 35.4549 39.3291 35.4408 39.3449 35.425H39.4584C39.4772 35.425 39.4866 35.4061 39.496 35.3872C39.5055 35.3683 39.5149 35.3494 39.5338 35.3494C39.6094 35.3494 39.7229 35.3116 39.6851 35.3116C39.6275 35.2348 39.5407 35.2652 39.4444 35.299C39.3511 35.3316 39.249 35.3674 39.156 35.3116C39.1925 35.2751 39.2025 35.2297 39.2117 35.1883C39.2214 35.1441 39.2302 35.1044 39.2693 35.0849H39.4205C39.4284 35.0276 39.455 34.9744 39.4961 34.9337C39.8328 34.7316 40.1562 34.5562 40.4742 34.3838C40.6916 34.2659 40.9065 34.1494 41.1215 34.0266C41.0775 34.0266 41.0393 34.0436 41.0023 34.0601C40.9438 34.0862 40.8886 34.1108 40.8192 34.0645C40.857 34.0645 40.857 34.0361 40.857 34.0078C40.857 33.9794 40.857 33.951 40.8948 33.951C41.1327 33.8862 41.3458 33.7842 41.5625 33.6804C41.7245 33.6029 41.8885 33.5245 42.0663 33.4598C42.0145 33.4598 41.967 33.4732 41.921 33.4861C41.8329 33.5109 41.7499 33.5343 41.6506 33.4598C41.6757 33.4472 41.6967 33.4304 41.7177 33.4136C41.7597 33.38 41.8017 33.3464 41.8773 33.3464V33.233C41.8773 33.1952 41.9152 33.1952 41.953 33.1952C41.9243 33.1912 41.8977 33.178 41.8773 33.1574C41.8969 33.1184 41.9366 33.1096 41.9808 33.0998C42.0222 33.0906 42.0676 33.0806 42.1041 33.0441C42.0663 33.0441 41.9907 33.0441 41.9907 33.0063C42.1041 32.8551 42.293 32.8172 42.4821 32.7795C42.4631 32.7417 42.4253 32.7417 42.3922 32.7417C42.3592 32.7417 42.3308 32.7417 42.3308 32.7039C42.3308 32.6661 42.3686 32.6661 42.4064 32.6661H42.3308C42.2722 32.6368 42.2818 32.5848 42.289 32.5453L42.289 32.5453C42.2911 32.5338 42.293 32.5234 42.293 32.515C42.4442 32.3386 42.4946 32.1286 42.5449 31.9187C42.5701 31.8137 42.5953 31.7087 42.6331 31.6079C42.5953 31.6079 42.5575 31.6079 42.5575 31.5701C42.1907 31.9737 41.61 32.1279 41.0579 32.2746L41.0081 32.2878H40.8192C40.6098 32.37 40.3749 32.3562 40.1766 32.25C40.0851 32.2042 40.0213 32.1446 39.9517 32.0796C39.9063 32.0371 39.8584 31.9924 39.7988 31.9476C39.5032 31.7589 39.186 31.6065 38.8539 31.4938C37.9155 31.187 36.9307 31.0464 35.9439 31.0782C36.2155 30.93 36.5055 30.8704 36.7989 30.8101C36.9546 30.7781 37.1113 30.7459 37.2667 30.7002C37.3606 30.6726 37.4538 30.6441 37.5464 30.6158C38.0876 30.4505 38.6132 30.29 39.194 30.3222C39.1172 30.2966 39.023 30.3057 38.9349 30.3143C38.8931 30.3183 38.8526 30.3222 38.8161 30.3222C38.3905 30.2918 37.9648 30.3837 37.5192 30.4799C37.411 30.5033 37.3016 30.5269 37.1907 30.5491C37.0019 30.5868 36.8226 30.6435 36.6432 30.7001C36.4636 30.7568 36.284 30.8135 36.0948 30.8513C36.0077 30.8804 35.9373 30.9317 35.8686 30.9818C35.7586 31.0621 35.653 31.1392 35.49 31.1158V31.0025C35.868 30.5486 36.3215 30.0955 36.9262 30.0577C37.5011 29.9619 38.0491 30.0281 38.6157 30.0965L38.616 30.0965C38.7197 30.109 38.824 30.1216 38.9293 30.1333C39.4138 30.1848 39.8936 30.2732 40.3647 30.3978C40.4686 30.3978 40.5268 30.4891 40.5832 30.5776C40.6295 30.6502 40.6746 30.721 40.7428 30.738C40.8334 30.7682 40.9242 30.7743 41.0149 30.7803C41.151 30.7894 41.2871 30.7984 41.4229 30.8891C41.4229 30.8639 41.4187 30.8387 41.4145 30.8136C41.4061 30.7632 41.3977 30.7128 41.4229 30.6624C41.5082 30.577 41.6056 30.6001 41.7014 30.6228C41.7754 30.6403 41.8485 30.6575 41.9143 30.6246C42.1194 30.4964 41.9244 30.2986 41.7306 30.102C41.6388 30.0089 41.5472 29.916 41.4986 29.8309C41.5026 29.8023 41.5158 29.7757 41.5363 29.7553C41.6269 29.8346 41.7107 29.9173 41.7938 29.9993C41.9881 30.1909 42.1787 30.3788 42.4433 30.5112C42.6323 30.5867 43.0858 30.7002 43.0102 30.4735C42.8778 30.182 42.6524 29.9277 42.4254 29.6715C42.3285 29.5622 42.2314 29.4526 42.141 29.3396V29.189C42.0857 29.189 42.0709 29.1687 42.0521 29.1431C42.0452 29.1337 42.0378 29.1235 42.0277 29.1134V28.9623C41.9326 28.9148 41.9123 28.8374 41.8915 28.7583C41.8792 28.7116 41.8668 28.6643 41.8387 28.6222C41.7755 28.5169 41.771 28.3882 41.7663 28.2556C41.7626 28.1501 41.7588 28.0422 41.7253 27.9418C41.6571 27.7323 41.6066 27.5174 41.574 27.2994C41.5296 27.0473 41.4794 26.8069 41.4303 26.5713L41.4302 26.5713L41.4302 26.5712L41.4302 26.5712L41.4302 26.5712C41.3541 26.2062 41.2803 25.8528 41.234 25.4854C41.1758 24.9327 41.4537 24.4693 41.7399 23.992C41.8254 23.8495 41.9117 23.7057 41.9899 23.558C42.2544 23.1041 42.5567 22.6509 43.048 22.3486C43.1612 21.896 43.4622 21.5192 43.7632 21.1424L43.7657 21.1393C44.0675 20.7704 44.569 20.5457 44.9323 20.3833C45.26 20.2378 45.5952 20.1098 45.9365 20H20V39.9994H38.3682C38.8695 39.6385 39.3703 39.4096 39.9676 39.1366C40.2277 39.0177 40.506 38.8905 40.8106 38.7404C40.8691 38.7116 40.9368 38.6789 41.0112 38.6428L41.0119 38.6425L41.0129 38.642L41.0133 38.6418C41.5439 38.385 42.416 37.9629 42.7378 37.6409ZM36.7372 34.8958C36.7637 34.7632 36.9017 34.7237 37.0341 34.6857C37.0905 34.6696 37.1458 34.6538 37.191 34.6312L37.2091 34.6219L37.2295 34.611L37.2296 34.6109C37.3017 34.5723 37.392 34.5239 37.4556 34.5556C37.4984 34.6198 37.5533 34.6355 37.6066 34.6508C37.6474 34.6625 37.6874 34.674 37.7202 34.7068C37.5837 34.8431 37.42 34.8565 37.2537 34.8701C37.1433 34.8792 37.0317 34.8883 36.9262 34.9336C36.9078 34.9336 36.885 34.9358 36.8615 34.9381C36.7883 34.9452 36.7086 34.953 36.7372 34.8958ZM32.3154 32.0991C31.976 32.7794 31.5709 33.4249 31.1061 34.0265C31.11 34.0552 31.1233 34.0818 31.1439 34.1022C32.051 33.0817 32.8824 32.2125 34.0535 31.4944C34.0825 31.48 34.0726 31.4932 34.0579 31.5129C34.0343 31.5447 33.9981 31.5933 34.0913 31.57C34.4841 31.4794 34.6595 31.1472 34.8299 30.8245C34.8726 30.7435 34.915 30.6632 34.9605 30.5874C35.1362 30.3019 35.3885 30.1186 35.6431 29.9335C35.8267 29.8 36.0116 29.6656 36.1699 29.4915C36.175 29.533 36.1611 29.5747 36.1321 29.6048C36.1623 29.6339 36.204 29.6478 36.2455 29.6426C36.3114 29.5933 36.3843 29.5726 36.455 29.5525C36.547 29.5264 36.6353 29.5013 36.6994 29.4159C36.386 29.2904 36.0389 29.277 35.7167 29.378C34.923 29.756 34.2429 30.3607 33.6003 31.041C33.2146 31.4494 32.8067 31.8346 32.3154 32.0991ZM34.1672 31.759C34.1375 31.8265 34.0836 31.8804 34.0161 31.9102C33.9783 31.9102 33.9405 31.9102 33.9405 31.8724C33.9744 31.7137 34.0892 31.5845 34.2429 31.5322C34.2807 31.5321 34.2807 31.57 34.2807 31.6078C34.2613 31.6467 34.2408 31.6677 34.2208 31.6881C34.202 31.7074 34.1836 31.7262 34.1672 31.759ZM35.9925 37.4389C36.023 37.4109 35.9899 37.39 35.9426 37.3804C35.9814 37.3509 36.0131 37.3133 36.0356 37.2701C36.0665 37.1959 35.8667 37.2137 35.8356 37.2353C35.8051 37.2596 35.7778 37.2878 35.7544 37.319C35.705 37.3722 35.6525 37.4224 35.5973 37.4695C35.5558 37.5075 35.5155 37.5466 35.4752 37.5856C35.4235 37.6358 35.3718 37.6859 35.3179 37.7334C35.2543 37.7893 35.4621 37.8186 35.5069 37.7788C35.5552 37.736 35.6017 37.6914 35.6479 37.6466C35.6675 37.6458 35.687 37.6432 35.7061 37.6387C35.8147 37.5933 35.9124 37.5252 35.9925 37.4389ZM35.3491 36.9644L35.3046 36.9958C35.1779 37.0852 35.051 37.1747 34.9176 37.2522C34.7978 37.3217 34.6739 37.3788 34.5496 37.4362C34.5061 37.4562 34.4625 37.4763 34.4191 37.497C34.4179 37.4937 34.4162 37.4906 34.4142 37.4878C34.3998 37.4676 34.3728 37.4611 34.3509 37.4726C34.2119 37.5518 34.0841 37.6492 33.9709 37.7622C33.9533 37.7789 33.9357 37.7959 33.9181 37.8131C33.8942 37.8366 33.8763 37.8544 33.8584 37.8724L33.8521 37.8787C33.8515 37.8793 33.8512 37.88 33.8509 37.8806L33.8498 37.8822C33.8229 37.9089 33.7971 37.9359 33.7675 37.9706C33.7539 37.9909 33.7368 38.0088 33.7171 38.0233C33.6936 38.0389 33.6286 38.0386 33.6346 37.995V37.9876L33.6319 37.9891C33.6105 38.0003 33.5891 38.0116 33.5675 38.022C33.5479 38.0312 33.5304 38.0415 33.5126 38.052L33.5085 38.0544C33.5002 38.0512 33.4913 38.0499 33.4824 38.0506C33.4726 38.0507 33.4631 38.0539 33.4552 38.0597C33.409 38.0959 33.3633 38.1345 33.3187 38.1749C33.2393 38.2464 33.1659 38.3244 33.0994 38.408L33.0886 38.422L33.0773 38.4366C33.0737 38.4416 33.0692 38.4472 33.0653 38.4523L33.0616 38.4569L33.056 38.4649L33.0451 38.4809L33.036 38.4945C33.026 38.5049 33.0151 38.5101 33.0035 38.5117L32.9972 38.5025C32.9941 38.4981 32.991 38.4937 32.9883 38.4891L32.982 38.4784L32.9777 38.4708C32.9662 38.4513 32.9555 38.4311 32.9454 38.4103L32.9443 38.408L32.94 38.3992L32.9354 38.3893C32.9763 38.3453 33.0158 38.2998 33.054 38.2532L33.0616 38.2441C33.0749 38.2279 33.0879 38.2118 33.1009 38.1956L33.1642 38.1147C33.1688 38.1085 33.1733 38.1027 33.1779 38.0969L33.1873 38.0848C33.2288 38.0306 33.2685 37.978 33.3055 37.9252L33.3083 37.9211L33.3149 37.9113C33.3181 37.9067 33.3212 37.902 33.3246 37.8973C33.3427 37.8706 33.3601 37.8436 33.3764 37.8161C33.3911 37.7914 33.4049 37.7663 33.4177 37.7407L33.4208 37.7351L33.4247 37.7273C33.4258 37.7251 33.4268 37.7228 33.4277 37.7205C33.4288 37.7181 33.4298 37.7156 33.4309 37.7132C33.4442 37.6847 33.4562 37.6554 33.4668 37.6251L33.4702 37.6153L33.4723 37.6091C33.4745 37.603 33.4767 37.5968 33.4786 37.5905C33.4829 37.5769 33.4868 37.5629 33.4905 37.5488C33.4912 37.5457 33.4917 37.5426 33.4926 37.5396L33.4959 37.5264L33.4959 37.5263C33.4994 37.5125 33.5029 37.4987 33.5057 37.4842C33.5073 37.4754 33.5057 37.4664 33.5011 37.4588C33.5437 37.3857 33.5939 37.3173 33.6509 37.2547C33.6482 37.2564 33.6453 37.258 33.6424 37.2595L33.6424 37.2595C33.6394 37.2611 33.6364 37.2628 33.6336 37.2646C33.6035 37.284 33.579 37.3076 33.5545 37.3313C33.5351 37.3502 33.5156 37.369 33.4933 37.3857C33.4521 37.4164 33.3763 37.3655 33.425 37.329C33.4552 37.3049 33.4839 37.2789 33.5109 37.2511C33.5747 37.1765 33.639 37.1124 33.7078 37.0532L33.724 37.0415C33.7608 37.0148 33.7934 36.9911 33.8239 36.9645C33.8277 36.9612 33.8312 36.9577 33.835 36.9543L33.8404 36.9494C33.8662 36.9157 33.8944 36.8839 33.9249 36.8544L33.9265 36.8528C33.9272 36.852 33.9279 36.8513 33.9288 36.8507C34.1499 36.6373 34.4634 36.5601 34.7827 36.4816C34.9857 36.4316 35.1911 36.381 35.3765 36.2945C35.4817 36.2524 35.5987 36.2689 35.7144 36.2853C35.8063 36.2984 35.8974 36.3113 35.981 36.2945C36.0996 36.2829 36.2187 36.3095 36.3212 36.3702C36.0593 36.5128 35.8125 36.6697 35.5712 36.8232C35.4999 36.8686 35.4292 36.9136 35.3586 36.9578L35.3491 36.9644ZM35.9812 34.2533H36.2836C36.2623 34.296 36.2048 34.3025 36.1656 34.307C36.1354 34.3104 36.1161 34.3126 36.1325 34.3291C36.246 34.4422 36.4727 34.4045 36.6238 34.3289C36.7386 34.2643 36.8709 34.2378 37.0017 34.2533C37.0395 34.2533 37.0395 34.1777 37.0395 34.14C37.137 34.171 37.2395 34.1839 37.3417 34.1777C38.2488 33.9887 39.1181 33.7998 39.9495 33.384C39.1105 32.7387 38.0786 32.4515 37.0656 32.1696L37.0656 32.1696L37.0656 32.1696C36.8922 32.1214 36.7194 32.0733 36.5481 32.0235C36.5859 32.0235 36.6237 32.0361 36.6615 32.0487C36.7371 32.0739 36.8127 32.0991 36.8883 32.0235C36.7855 31.9413 36.6714 31.9262 36.5583 31.9112C36.4637 31.8987 36.3697 31.8863 36.2836 31.8346C36.2921 31.8346 36.3025 31.8365 36.314 31.8386C36.3535 31.8459 36.4055 31.8554 36.4348 31.7968C36.2333 31.6961 36.0318 31.6625 35.8303 31.6289L35.8303 31.6289C35.7295 31.6121 35.6286 31.5952 35.5277 31.57C35.7088 31.5374 35.838 31.376 35.8301 31.1921C35.8301 31.1544 35.7545 31.1544 35.7167 31.1544C35.2632 31.3811 34.9608 31.7968 34.7719 32.2881C34.9407 32.3846 35.1248 32.3733 35.3047 32.3624C35.4068 32.3562 35.5076 32.35 35.6034 32.3637C35.5192 32.4476 35.3938 32.4694 35.273 32.4904C35.2306 32.4978 35.1888 32.505 35.1495 32.5149C35.0335 32.5438 34.9227 32.6282 34.9605 32.7038C34.9811 32.7324 35.0118 32.7519 35.0464 32.7585C34.9571 32.782 34.8755 32.8283 34.8094 32.8928C34.9176 32.9738 35.0257 32.9584 35.1337 32.9429C35.1769 32.9368 35.22 32.9306 35.2632 32.9306C35.2632 32.981 35.2968 32.9978 35.3305 33.0146L35.3305 33.0146C35.3473 33.023 35.3641 33.0314 35.3767 33.044C35.2115 33.1042 35.076 33.2261 34.9987 33.384C34.9533 33.4975 34.8671 33.57 34.781 33.6426L34.781 33.6426C34.7235 33.691 34.6661 33.7393 34.6208 33.7998V33.9131C34.4923 34.0287 34.3595 34.1311 34.2284 34.2324L34.2284 34.2324C33.9734 34.4292 33.7244 34.6213 33.5248 34.8958C33.5625 34.8958 33.5625 34.9336 33.5625 34.9713C33.5283 35.0227 33.4786 35.0586 33.4309 35.093C33.3733 35.1345 33.3187 35.1738 33.2979 35.2358C33.2979 35.2737 33.2979 35.3115 33.3358 35.3115C33.5735 35.2323 33.78 35.1012 33.9825 34.9726C34.1665 34.8558 34.3473 34.741 34.5452 34.6691C34.7068 34.6286 34.8467 34.5559 34.9824 34.4853C35.1006 34.4239 35.2156 34.3641 35.3388 34.3289C35.4332 34.31 35.5372 34.2817 35.6411 34.2533L35.6411 34.2533L35.6411 34.2533C35.7451 34.225 35.849 34.1966 35.9435 34.1777C35.9435 34.2155 35.9435 34.2533 35.9812 34.2533ZM37.7243 37.5846C37.7273 37.5824 37.7303 37.58 37.7333 37.5776L37.74 37.5722C37.7947 37.5336 37.8455 37.4842 37.891 37.4252C37.8879 37.4242 37.8848 37.4231 37.8817 37.4218C37.8788 37.4207 37.876 37.4193 37.8732 37.4179C37.8228 37.4695 37.7738 37.525 37.7243 37.5846ZM45.0965 35.1046L45.018 35.1633C45.0614 35.1613 45.0965 35.1503 45.0965 35.1046Z" fill="#000091"/>
<path d="M74.9993 20H53.4856C53.5572 20.0235 53.6257 20.0554 53.6898 20.095C53.8645 20.1887 54.0909 20.3096 54.2326 20.3839C54.5225 20.5174 54.7714 20.7262 54.9532 20.9885C55.0288 21.1019 55.1422 21.3287 55.0666 21.4799C54.991 21.6688 54.9532 21.9712 54.7643 22.0468C54.5375 22.1601 54.2351 22.1601 53.9706 22.1223C53.8168 22.1157 53.6644 22.0903 53.5167 22.0468C54.0835 22.2735 54.6126 22.5381 54.9906 23.0672C55.0284 23.1428 55.1795 23.1805 55.3308 23.1805C55.3686 23.1805 55.3686 23.2561 55.3686 23.2939C55.2929 23.3696 55.2173 23.4073 55.2551 23.5206H55.3686C55.5575 23.445 55.5197 23.0668 55.7843 23.1805C55.9772 23.2994 56.0435 23.5483 55.9354 23.7474C55.7937 23.8844 55.642 24.0107 55.4816 24.1253C55.4438 24.2094 55.4438 24.3057 55.4816 24.3899C55.5762 24.526 55.6406 24.6807 55.6705 24.8437C55.784 25.1082 55.8217 25.4106 55.9351 25.6751C56.0863 26.242 56.2374 26.8089 56.1996 27.3758C56.1996 27.6782 56.0484 27.9427 56.1618 28.2451C56.2374 28.5474 56.4263 28.7742 56.5776 29.0387C56.7286 29.2654 56.8799 29.4166 56.9933 29.6434C57.2199 30.0213 57.6357 30.3992 57.4472 30.8527C57.3338 31.1172 56.9181 31.0795 56.6536 31.2307C56.4268 31.4196 56.6158 31.7219 56.7291 31.9109C56.9181 32.2511 56.5023 32.4778 56.2378 32.5912C56.3134 32.7045 56.4646 32.6667 56.5023 32.7423C56.5401 32.9313 56.7291 33.0447 56.6158 33.2336C56.4646 33.4604 56.0111 33.5738 56.2378 33.9139C56.389 34.1785 56.2906 34.4723 56.2001 34.7454C56.0867 35.0855 55.7844 35.2366 55.5198 35.3123C55.2869 35.3812 55.041 35.3941 54.8021 35.35C54.7331 35.3082 54.6557 35.2823 54.5754 35.2745C53.9328 35.1988 53.2903 35.0099 52.6479 35.0099C52.4658 35.0376 52.288 35.0884 52.1188 35.161C51.9542 35.2817 51.8011 35.4171 51.6612 35.5657L51.6568 35.5704C51.6284 35.6006 51.6012 35.6312 51.5744 35.662C51.5579 35.6811 51.5418 35.7006 51.5257 35.72C51.5148 35.7329 51.5041 35.7459 51.4935 35.759C51.3838 35.8967 51.2844 36.0423 51.196 36.1946C51.1904 36.2042 51.1847 36.2138 51.1793 36.2235C51.1694 36.241 51.1598 36.2587 51.1501 36.2763C51.0312 36.497 50.9353 36.7293 50.8639 36.9697C50.607 37.8351 50.7193 38.5777 50.8997 38.7579C50.9499 38.8081 52.1471 39.1777 52.981 39.5487C53.2886 39.6779 53.5867 39.8287 53.873 40H74.9993V20Z" fill="#E1000F"/>
<path d="M54.7651 27.296C54.9164 27.3338 55.143 27.3338 55.143 27.4094C55.0675 27.7116 54.6138 27.7872 54.3871 28.0897H54.274C54.1607 28.1653 54.1985 28.3542 54.0851 28.3542C53.9707 28.3291 53.8512 28.3424 53.745 28.392C53.8962 28.5431 54.0851 28.6567 54.3118 28.6187C54.3769 28.6413 54.4218 28.7012 54.4252 28.7701C54.4542 28.7673 54.4812 28.7538 54.5008 28.7322C54.5387 28.7322 54.5765 28.7322 54.5765 28.7701V28.9212C54.463 29.0724 54.274 28.9967 54.1227 29.0346C54.4075 29.1102 54.7071 29.1102 54.9918 29.0346C55.2187 28.959 54.9918 28.5807 55.1431 28.392C55.0676 28.392 55.1431 28.2786 55.0676 28.2786C55.1431 28.2031 55.2187 28.0897 55.2943 28.0519C55.3841 28.0543 55.4692 28.0118 55.5211 27.9385C55.5211 27.863 55.37 27.8252 55.4077 27.7494C55.6344 27.5985 55.8233 27.3716 55.7479 27.1449C55.71 27.0315 55.4077 27.0315 55.2187 26.9559C55.0296 26.8804 54.8029 26.9559 54.5763 26.9937C54.3872 26.9937 54.1982 27.1071 54.0093 27.1449C53.7519 27.2328 53.5097 27.3602 53.2916 27.5227C53.5622 27.4249 53.8403 27.3491 54.1231 27.296C54.3495 27.296 54.542 27.2402 54.7651 27.296Z" fill="#808080"/>
<mask id="mask0" mask-type="alpha" maskUnits="userSpaceOnUse" x="18" y="20" width="57" height="20">
<rect x="18" y="20" width="57" height="20" fill="#C4C4C4"/>
</mask>
<g mask="url(#mask0)">
</g>
<path d="M20.06 65H22.9V54.96L26.02 60.2H28.02L31.14 54.96V65H33.98V51H30.44L27.02 56.88L23.6 51H20.06V65ZM38.1873 65H41.0273V51H38.1873V65ZM45.2405 65H48.0805V54.88L54.3405 65H57.9805V51H55.1405V61.12L48.8805 51H45.2405V65ZM62.1959 65H65.0359V51H62.1959V65ZM67.9891 63.06C69.2291 64.54 70.8091 65.4 73.1691 65.4C75.7491 65.4 77.7891 63.82 77.8291 61.18C77.8291 56.38 71.4691 57.1 71.4691 54.56C71.4691 53.72 72.1291 53.08 73.1291 53.08C74.1891 53.08 75.1091 53.78 75.9291 54.84L78.0091 52.96C76.8091 51.54 75.2091 50.6 73.1091 50.6C70.4291 50.6 68.5891 52.44 68.5891 54.66C68.5891 59.4 74.9491 58.7 74.9491 61.28C74.9491 62.28 74.2691 62.88 73.1491 62.88C72.0091 62.88 70.8891 62.24 70.0491 61.16L67.9891 63.06ZM79.5692 53.58H83.8892V65H86.7292V53.58H91.0492V51H79.5692V53.58ZM96.6636 49.8H99.2636L97.0036 47.1H94.0836L96.6636 49.8ZM93.8436 65H102.004V62.64H96.6836V59.04H101.204V56.68H96.6836V53.36H102.004V51H93.8436V65ZM105.604 65H108.444V59.34H109.904L113.644 65H116.984L112.604 58.8C114.044 58.14 114.864 56.88 114.864 55.18C114.864 52.58 112.964 51 109.884 51H105.604V65ZM110.044 53.36C111.244 53.36 111.944 54.08 111.944 55.14C111.944 56.28 111.244 56.98 110.044 56.98H108.444V53.36H110.044ZM119.083 65H127.243V62.64H121.923V59.04H126.443V56.68H121.923V53.36H127.243V51H119.083V65ZM20.06 86H25.56C30 86 33 82.78 33 79C33 75.22 30 72 25.56 72H20.06V86ZM25.6 74.58C28.2 74.58 30.08 76.5 30.08 79C30.08 81.48 28.2 83.42 25.6 83.42H22.9V74.58H25.6ZM36.0389 86H44.1989V83.64H38.8789V80.04H43.3989V77.68H38.8789V74.36H44.1989V72H36.0389V86ZM53.2897 86H61.4497V83.42H56.1297V72H53.2897V86ZM63.0945 86H66.1145L67.4545 82.36H73.0545L74.3945 86H77.4145L72.1145 72H68.3945L63.0945 86ZM68.3345 79.94L70.2545 74.68L72.1745 79.94H68.3345ZM91.607 83.74C88.967 83.74 87.087 81.68 87.087 79C87.087 76.32 88.967 74.26 91.607 74.26C93.207 74.26 94.467 75.04 95.267 76.18L97.507 74.44C96.227 72.74 94.147 71.6 91.607 71.6C87.187 71.6 84.167 75 84.167 79C84.167 83 87.187 86.4 91.607 86.4C94.147 86.4 96.227 85.28 97.507 83.54L95.267 81.82C94.467 82.96 93.207 83.74 91.607 83.74ZM106.414 71.6C101.994 71.6 98.9741 75 98.9741 79C98.9741 83 101.994 86.4 106.414 86.4C110.814 86.4 113.834 83 113.834 79C113.834 75 110.814 71.6 106.414 71.6ZM106.414 83.74C103.774 83.74 101.894 81.68 101.894 79C101.894 76.32 103.774 74.26 106.414 74.26C109.034 74.26 110.914 76.32 110.914 79C110.914 81.68 109.034 83.74 106.414 83.74ZM116.856 86H119.696V80.16H126.756V86H129.596V72H126.756V77.58H119.696V72H116.856V86ZM139.152 70.8L141.752 68.1H138.832L136.572 70.8H139.152ZM133.812 86H141.972V83.64H136.652V80.04H141.172V77.68H136.652V74.36H141.972V72H133.812V86ZM144.312 84.06C145.552 85.54 147.132 86.4 149.492 86.4C152.072 86.4 154.112 84.82 154.152 82.18C154.152 77.38 147.792 78.1 147.792 75.56C147.792 74.72 148.452 74.08 149.452 74.08C150.512 74.08 151.432 74.78 152.252 75.84L154.332 73.96C153.132 72.54 151.532 71.6 149.432 71.6C146.752 71.6 144.912 73.44 144.912 75.66C144.912 80.4 151.272 79.7 151.272 82.28C151.272 83.28 150.592 83.88 149.472 83.88C148.332 83.88 147.212 83.24 146.372 82.16L144.312 84.06ZM157.43 86H160.27V72H157.43V86ZM170.723 71.6C166.303 71.6 163.283 75 163.283 79C163.283 83 166.303 86.4 170.723 86.4C175.123 86.4 178.143 83 178.143 79C178.143 75 175.123 71.6 170.723 71.6ZM170.723 83.74C168.083 83.74 166.203 81.68 166.203 79C166.203 76.32 168.083 74.26 170.723 74.26C173.343 74.26 175.223 76.32 175.223 79C175.223 81.68 173.343 83.74 170.723 83.74ZM181.165 86H184.005V75.88L190.265 86H193.905V72H191.065V82.12L184.805 72H181.165V86ZM20.06 107H25.56C30 107 33 103.78 33 100C33 96.22 30 93 25.56 93H20.06V107ZM25.6 95.58C28.2 95.58 30.08 97.5 30.08 100C30.08 102.48 28.2 104.42 25.6 104.42H22.9V95.58H25.6ZM36.0389 107H44.1989V104.64H38.8789V101.04H43.3989V98.68H38.8789V95.36H44.1989V93H36.0389V107ZM46.5391 105.06C47.7791 106.54 49.3591 107.4 51.7191 107.4C54.2991 107.4 56.3391 105.82 56.3791 103.18C56.3791 98.38 50.0191 99.1 50.0191 96.56C50.0191 95.72 50.6791 95.08 51.6791 95.08C52.7391 95.08 53.6591 95.78 54.4791 96.84L56.5591 94.96C55.3591 93.54 53.7591 92.6 51.6591 92.6C48.9791 92.6 47.1391 94.44 47.1391 96.66C47.1391 101.4 53.4991 100.7 53.4991 103.28C53.4991 104.28 52.8191 104.88 51.6991 104.88C50.5591 104.88 49.4391 104.24 48.5991 103.16L46.5391 105.06ZM63.7075 95.58H68.0275V107H70.8675V95.58H75.1875V93H63.7075V95.58ZM77.9819 107H86.1419V104.64H80.8219V101.04H85.3419V98.68H80.8219V95.36H86.1419V93H77.9819V107ZM89.742 107H92.582V101.34H94.042L97.782 107H101.122L96.742 100.8C98.182 100.14 99.002 98.88 99.002 97.18C99.002 94.58 97.102 93 94.022 93H89.742V107ZM94.182 95.36C95.382 95.36 96.082 96.08 96.082 97.14C96.082 98.28 95.382 98.98 94.182 98.98H92.582V95.36H94.182ZM103.221 107H106.061V101.34H107.521L111.261 107H114.601L110.221 100.8C111.661 100.14 112.481 98.88 112.481 97.18C112.481 94.58 110.581 93 107.501 93H103.221V107ZM107.661 95.36C108.861 95.36 109.561 96.08 109.561 97.14C109.561 98.28 108.861 98.98 107.661 98.98H106.061V95.36H107.661ZM116.7 107H119.54V93H116.7V107ZM122.313 95.58H126.633V107H129.473V95.58H133.793V93H122.313V95.58ZM142.183 92.6C137.763 92.6 134.743 96 134.743 100C134.743 104 137.763 107.4 142.183 107.4C146.583 107.4 149.603 104 149.603 100C149.603 96 146.583 92.6 142.183 92.6ZM142.183 104.74C139.543 104.74 137.663 102.68 137.663 100C137.663 97.32 139.543 95.26 142.183 95.26C144.803 95.26 146.683 97.32 146.683 100C146.683 102.68 144.803 104.74 142.183 104.74ZM152.625 107H155.465V93H152.625V107ZM159.678 107H162.518V101.34H163.978L167.718 107H171.058L166.678 100.8C168.118 100.14 168.938 98.88 168.938 97.18C168.938 94.58 167.038 93 163.958 93H159.678V107ZM164.118 95.36C165.318 95.36 166.018 96.08 166.018 97.14C166.018 98.28 165.318 98.98 164.118 98.98H162.518V95.36H164.118ZM173.157 107H181.317V104.64H175.997V101.04H180.517V98.68H175.997V95.36H181.317V93H173.157V107ZM183.657 105.06C184.897 106.54 186.477 107.4 188.837 107.4C191.417 107.4 193.457 105.82 193.497 103.18C193.497 98.38 187.137 99.1 187.137 96.56C187.137 95.72 187.797 95.08 188.797 95.08C189.857 95.08 190.777 95.78 191.597 96.84L193.677 94.96C192.477 93.54 190.877 92.6 188.777 92.6C186.097 92.6 184.257 94.44 184.257 96.66C184.257 101.4 190.617 100.7 190.617 103.28C190.617 104.28 189.937 104.88 188.817 104.88C187.677 104.88 186.557 104.24 185.717 103.16L183.657 105.06ZM20.06 128H28.22V125.64H22.9V122.04H27.42V119.68H22.9V116.36H28.22V114H20.06V128ZM30.6731 116.58H34.9931V128H37.8331V116.58H42.1531V114H30.6731V116.58ZM50.4381 128H55.9381C60.3781 128 63.3781 124.78 63.3781 121C63.3781 117.22 60.3781 114 55.9381 114H50.4381V128ZM55.9781 116.58C58.5781 116.58 60.4581 118.5 60.4581 121C60.4581 123.48 58.5781 125.42 55.9781 125.42H53.2781V116.58H55.9781ZM66.417 128H74.577V125.64H69.257V122.04H73.777V119.68H69.257V116.36H74.577V114H66.417V128ZM76.9172 126.06C78.1572 127.54 79.7372 128.4 82.0972 128.4C84.6772 128.4 86.7172 126.82 86.7572 124.18C86.7572 119.38 80.3972 120.1 80.3972 117.56C80.3972 116.72 81.0572 116.08 82.0572 116.08C83.1172 116.08 84.0372 116.78 84.8572 117.84L86.9372 115.96C85.7372 114.54 84.1372 113.6 82.0372 113.6C79.3572 113.6 77.5172 115.44 77.5172 117.66C77.5172 122.4 83.8772 121.7 83.8772 124.28C83.8772 125.28 83.1972 125.88 82.0772 125.88C80.9372 125.88 79.8172 125.24 78.9772 124.16L76.9172 126.06ZM95.5256 128H98.3656V122.34H99.8256L103.566 128H106.906L102.526 121.8C103.966 121.14 104.786 119.88 104.786 118.18C104.786 115.58 102.886 114 99.8056 114H95.5256V128ZM99.9656 116.36C101.166 116.36 101.866 117.08 101.866 118.14C101.866 119.28 101.166 119.98 99.9656 119.98H98.3656V116.36H99.9656ZM109.005 128H117.165V125.64H111.845V122.04H116.365V119.68H111.845V116.36H117.165V114H109.005V128ZM120.765 128H128.925V125.42H123.605V114H120.765V128ZM130.57 128H133.59L134.93 124.36H140.53L141.87 128H144.89L139.59 114H135.87L130.57 128ZM135.81 121.94L137.73 116.68L139.65 121.94H135.81ZM144.505 116.58H148.825V128H151.665V116.58H155.985V114H144.505V116.58ZM158.78 128H161.62V114H158.78V128ZM172.073 113.6C167.653 113.6 164.633 117 164.633 121C164.633 125 167.653 128.4 172.073 128.4C176.473 128.4 179.493 125 179.493 121C179.493 117 176.473 113.6 172.073 113.6ZM172.073 125.74C169.433 125.74 167.553 123.68 167.553 121C167.553 118.32 169.433 116.26 172.073 116.26C174.693 116.26 176.573 118.32 176.573 121C176.573 123.68 174.693 125.74 172.073 125.74ZM182.515 128H185.355V117.88L191.615 128H195.255V114H192.415V124.12L186.155 114H182.515V128ZM198.21 126.06C199.45 127.54 201.03 128.4 203.39 128.4C205.97 128.4 208.01 126.82 208.05 124.18C208.05 119.38 201.69 120.1 201.69 117.56C201.69 116.72 202.35 116.08 203.35 116.08C204.41 116.08 205.33 116.78 206.15 117.84L208.23 115.96C207.03 114.54 205.43 113.6 203.33 113.6C200.65 113.6 198.81 115.44 198.81 117.66C198.81 122.4 205.17 121.7 205.17 124.28C205.17 125.28 204.49 125.88 203.37 125.88C202.23 125.88 201.11 125.24 200.27 124.16L198.21 126.06ZM18.3 149H21.32L22.66 145.36H28.26L29.6 149H32.62L27.32 135H23.6L18.3 149ZM23.54 142.94L25.46 137.68L27.38 142.94H23.54ZM32.0914 135L37.3914 149H41.1114L46.4114 135H43.3914L39.2514 145.94L35.1114 135H32.0914ZM48.8733 149H57.0333V146.64H51.7133V143.04H56.2333V140.68H51.7133V137.36H57.0333V135H48.8733V149ZM66.5609 146.74C63.9209 146.74 62.0409 144.68 62.0409 142C62.0409 139.32 63.9209 137.26 66.5609 137.26C68.1609 137.26 69.4209 138.04 70.2209 139.18L72.4609 137.44C71.1809 135.74 69.1009 134.6 66.5609 134.6C62.1409 134.6 59.1209 138 59.1209 142C59.1209 146 62.1409 149.4 66.5609 149.4C69.1009 149.4 71.1809 148.28 72.4609 146.54L70.2209 144.82C69.4209 145.96 68.1609 146.74 66.5609 146.74ZM80.7163 149H88.8763V146.42H83.5563V135H80.7163V149ZM91.6756 149H99.8356V146.64H94.5156V143.04H99.0356V140.68H94.5156V137.36H99.8356V135H91.6756V149ZM102.176 147.06C103.416 148.54 104.996 149.4 107.356 149.4C109.936 149.4 111.976 147.82 112.016 145.18C112.016 140.38 105.656 141.1 105.656 138.56C105.656 137.72 106.316 137.08 107.316 137.08C108.376 137.08 109.296 137.78 110.116 138.84L112.196 136.96C110.996 135.54 109.396 134.6 107.296 134.6C104.616 134.6 102.776 136.44 102.776 138.66C102.776 143.4 109.136 142.7 109.136 145.28C109.136 146.28 108.456 146.88 107.336 146.88C106.196 146.88 105.076 146.24 104.236 145.16L102.176 147.06ZM127.024 146.74C124.384 146.74 122.504 144.68 122.504 142C122.504 139.32 124.384 137.26 127.024 137.26C128.624 137.26 129.884 138.04 130.684 139.18L132.924 137.44C131.644 135.74 129.564 134.6 127.024 134.6C122.604 134.6 119.584 138 119.584 142C119.584 146 122.604 149.4 127.024 149.4C129.564 149.4 131.644 148.28 132.924 146.54L130.684 144.82C129.884 145.96 128.624 146.74 127.024 146.74ZM141.831 134.6C137.411 134.6 134.391 138 134.391 142C134.391 146 137.411 149.4 141.831 149.4C146.231 149.4 149.251 146 149.251 142C149.251 138 146.231 134.6 141.831 134.6ZM141.831 146.74C139.191 146.74 137.311 144.68 137.311 142C137.311 139.32 139.191 137.26 141.831 137.26C144.451 137.26 146.331 139.32 146.331 142C146.331 144.68 144.451 146.74 141.831 146.74ZM152.273 149H160.433V146.42H155.113V135H152.273V149ZM163.233 149H171.393V146.42H166.073V135H163.233V149ZM174.192 149H182.352V146.64H177.032V143.04H181.552V140.68H177.032V137.36H182.352V135H174.192V149ZM191.88 146.74C189.24 146.74 187.36 144.68 187.36 142C187.36 139.32 189.24 137.26 191.88 137.26C193.48 137.26 194.74 138.04 195.54 139.18L197.78 137.44C196.5 135.74 194.42 134.6 191.88 134.6C187.46 134.6 184.44 138 184.44 142C184.44 146 187.46 149.4 191.88 149.4C194.42 149.4 196.5 148.28 197.78 146.54L195.54 144.82C194.74 145.96 193.48 146.74 191.88 146.74ZM199.104 137.58H203.424V149H206.264V137.58H210.584V135H199.104V137.58ZM213.379 149H216.219V135H213.379V149ZM218.672 135L223.972 149H227.692L232.992 135H229.972L225.832 145.94L221.692 135H218.672ZM235.454 149H238.294V135H235.454V149ZM241.067 137.58H245.387V149H248.227V137.58H252.547V135H241.067V137.58ZM260.681 133.8L263.281 131.1H260.361L258.101 133.8H260.681ZM255.341 149H263.501V146.64H258.181V143.04H262.701V140.68H258.181V137.36H263.501V135H255.341V149ZM265.841 147.06C267.081 148.54 268.661 149.4 271.021 149.4C273.601 149.4 275.641 147.82 275.681 145.18C275.681 140.38 269.321 141.1 269.321 138.56C269.321 137.72 269.981 137.08 270.981 137.08C272.041 137.08 272.961 137.78 273.781 138.84L275.861 136.96C274.661 135.54 273.061 134.6 270.961 134.6C268.281 134.6 266.441 136.44 266.441 138.66C266.441 143.4 272.801 142.7 272.801 145.28C272.801 146.28 272.121 146.88 271.001 146.88C269.861 146.88 268.741 146.24 267.901 145.16L265.841 147.06ZM18.62 158.58H22.94V170H25.78V158.58H30.1V156H18.62V158.58ZM32.8944 170H41.0544V167.64H35.7344V164.04H40.2544V161.68H35.7344V158.36H41.0544V156H32.8944V170ZM44.6545 170H47.4945V164.34H48.9545L52.6945 170H56.0345L51.6545 163.8C53.0945 163.14 53.9145 161.88 53.9145 160.18C53.9145 157.58 52.0145 156 48.9345 156H44.6545V170ZM49.0945 158.36C50.2945 158.36 50.9945 159.08 50.9945 160.14C50.9945 161.28 50.2945 161.98 49.0945 161.98H47.4945V158.36H49.0945ZM58.1334 170H60.9734V164.34H62.4334L66.1734 170H69.5134L65.1334 163.8C66.5734 163.14 67.3934 161.88 67.3934 160.18C67.3934 157.58 65.4934 156 62.4134 156H58.1334V170ZM62.5734 158.36C63.7734 158.36 64.4734 159.08 64.4734 160.14C64.4734 161.28 63.7734 161.98 62.5734 161.98H60.9734V158.36H62.5734ZM71.6123 170H74.4523V156H71.6123V170ZM77.2255 158.58H81.5455V170H84.3855V158.58H88.7055V156H77.2255V158.58ZM97.0953 155.6C92.6753 155.6 89.6553 159 89.6553 163C89.6553 167 92.6753 170.4 97.0953 170.4C101.495 170.4 104.515 167 104.515 163C104.515 159 101.495 155.6 97.0953 155.6ZM97.0953 167.74C94.4553 167.74 92.5753 165.68 92.5753 163C92.5753 160.32 94.4553 158.26 97.0953 158.26C99.7153 158.26 101.595 160.32 101.595 163C101.595 165.68 99.7153 167.74 97.0953 167.74ZM107.537 170H110.377V164.34H111.837L115.577 170H118.917L114.537 163.8C115.977 163.14 116.797 161.88 116.797 160.18C116.797 157.58 114.897 156 111.817 156H107.537V170ZM111.977 158.36C113.177 158.36 113.877 159.08 113.877 160.14C113.877 161.28 113.177 161.98 111.977 161.98H110.377V158.36H111.977ZM121.016 170H123.856V156H121.016V170ZM126.309 170H129.329L130.669 166.36H136.269L137.609 170H140.629L135.329 156H131.609L126.309 170ZM131.549 163.94L133.469 158.68L135.389 163.94H131.549ZM143.091 170H151.251V167.42H145.931V156H143.091V170ZM154.051 170H162.211V167.64H156.891V164.04H161.411V161.68H156.891V158.36H162.211V156H154.051V170ZM164.551 168.06C165.791 169.54 167.371 170.4 169.731 170.4C172.311 170.4 174.351 168.82 174.391 166.18C174.391 161.38 168.031 162.1 168.031 159.56C168.031 158.72 168.691 158.08 169.691 158.08C170.751 158.08 171.671 158.78 172.491 159.84L174.571 157.96C173.371 156.54 171.771 155.6 169.671 155.6C166.991 155.6 165.151 157.44 165.151 159.66C165.151 164.4 171.511 163.7 171.511 166.28C171.511 167.28 170.831 167.88 169.711 167.88C168.571 167.88 167.451 167.24 166.611 166.16L164.551 168.06Z" fill="#1E1E1E"/>
<path fill-rule="evenodd" clip-rule="evenodd" d="M71.96 205.7L70.1 207.4H69.62L70.72 205.46H71.96V205.7ZM70.62 212.28H70.22C69.72 212.88 69.16 213.36 68.62 213.36C68.06 213.36 67.78 213.02 67.78 212.28C67.78 211.98 67.82 211.66 67.88 211.38L71.14 210.3C71.78 208.78 71.02 208.12 70.12 208.12C68.58 208.12 66.82 210.82 66.82 212.98C66.82 214 67.3 214.56 68.06 214.56C68.94 214.54 69.86 213.68 70.62 212.28ZM69.5 209C69.94 209 70.32 209.34 70.12 210.12L68.1 210.66C68.42 209.7 69.02 209 69.5 209ZM63.14 209.04H64.22L62.5 213.76C62.34 214.16 62.56 214.56 62.98 214.56C64.2 214.56 65.66 213.52 66.22 212.04H65.92C65.48 212.66 64.52 213.34 63.8 213.46L65.38 209.04H67L67.2 208.36H65.62L66.22 206.66H65.6L64.48 208.36L63.14 208.54V209.04ZM61.64 208.14C61.86 208.14 62.16 208.38 62.02 208.82L60.08 213.52C60.58 213.44 61.1 212.96 61.4 212.52H61.72C61.26 213.7 60.22 214.56 59.32 214.56C59.1 214.56 58.78 214.32 58.94 213.88L60.74 209.18C60.24 209.26 59.72 209.74 59.42 210.18H59.12C59.58 208.98 60.7 208.14 61.64 208.14ZM62.2 206.94C62.6 206.94 62.94 206.62 62.94 206.2C62.94 205.8 62.6 205.46 62.2 205.46C61.78 205.46 61.46 205.8 61.46 206.2C61.46 206.6 61.8 206.94 62.2 206.94ZM53.46 210.84C53.9 209.88 53.74 209.44 53.46 209.44C53.22 209.44 52.94 209.7 52.66 210.18H52.36C52.82 209.16 53.42 208.14 54.08 208.14C54.64 208.14 54.84 208.7 54.84 209.32V210.2C54.931 210.094 55.0195 209.99 55.106 209.889L55.1061 209.889C55.951 208.897 56.5961 208.14 57.34 208.14C57.92 208.14 58.22 208.5 58.22 209.04C58.22 209.36 58.12 209.76 57.9 210.18L56.24 213.52C56.74 213.44 57.26 212.96 57.56 212.52H57.86C57.4 213.72 56.28 214.56 55.34 214.56C54.92 214.56 54.68 214.12 54.86 213.76L56.78 210.06C57 209.64 57.04 209.36 56.7 209.36C56.24 209.36 55.16 210.12 54.58 210.82L53.32 214.14C53.18 214.48 53.04 214.56 52.72 214.56C52.2 214.56 51.94 214.22 52.18 213.68L53.46 210.84ZM52.16 209.56C52.38 208.8 52.26 208.12 51.68 208.12C50.9567 208.12 50.7302 208.598 50.0292 210.076L49.98 210.18V209.3C49.98 208.68 49.78 208.12 49.22 208.12C48.56 208.12 47.96 209.14 47.5 210.16H47.8C48.12 209.7 48.42 209.42 48.66 209.42C48.94 209.42 49.1 209.86 48.66 210.82L47.38 213.66C47.14 214.2 47.4 214.54 47.92 214.54C48.24 214.54 48.38 214.46 48.52 214.12L49.78 210.8C50.14 210.36 50.46 209.98 50.86 209.56H52.16ZM45.84 210.12C46.04 209.34 45.66 209 45.22 209C44.74 209 44.14 209.7 43.82 210.66L45.84 210.12ZM46.34 212.28H45.94C45.44 212.88 44.88 213.36 44.34 213.36C43.78 213.36 43.5 213.02 43.5 212.28C43.5 211.98 43.54 211.66 43.6 211.38L46.86 210.3C47.5 208.78 46.74 208.12 45.84 208.12C44.3 208.12 42.54 210.82 42.54 212.98C42.54 214 43.02 214.56 43.78 214.56C44.66 214.54 45.58 213.68 46.34 212.28ZM39.94 209.04H38.86V208.54L40.2 208.36L41.32 206.66H41.94L41.34 208.36H42.92L42.72 209.04H41.1L39.52 213.46C40.24 213.34 41.2 212.66 41.64 212.04H41.94C41.38 213.52 39.92 214.56 38.7 214.56C38.28 214.56 38.06 214.16 38.22 213.76L39.94 209.04ZM33.14 212.7C33.14 211.24 34.76 209.28 35.66 209.28C35.86 209.28 36.06 209.3 36.22 209.36L35.28 211.88C34.74 212.54 33.9 213.34 33.5 213.34C33.28 213.34 33.14 213.14 33.14 212.7ZM37.6 207.82L38.1 207.86L36.36 211.86C35.94 212.82 36.12 213.26 36.36 213.26C36.6 213.26 36.9 212.98 37.22 212.52H37.52C37.06 213.54 36.46 214.56 35.8 214.56C35.24 214.56 34.9 213.96 35 212.88L35.04 212.5L34.9311 212.652C34.2147 213.654 33.5664 214.56 32.9 214.56C32.32 214.56 32.02 214.2 32.02 213.66C32.02 211.34 34.56 208.38 36.94 208.38H37.04L37.6 207.82ZM33.02 209.56C33.24 208.8 33.12 208.12 32.54 208.12C31.8167 208.12 31.5902 208.598 30.8892 210.076L30.84 210.18V209.3C30.84 208.68 30.64 208.12 30.08 208.12C29.42 208.12 28.82 209.14 28.36 210.16H28.66C28.98 209.7 29.28 209.42 29.5 209.42C29.78 209.42 29.94 209.86 29.5 210.82L28.22 213.68C27.98 214.22 28.24 214.56 28.76 214.56C29.08 214.56 29.22 214.48 29.36 214.14L30.62 210.82C30.98 210.38 31.3 210 31.7 209.58H33.02V209.56ZM24.78 213.96L24.66 214.32H20L20.12 213.94C21.56 213.68 21.8 213.56 22.4 211.94L23.7 208.46C24.28 206.84 24.16 206.72 22.9 206.46L23.02 206.1H29.08L28.72 208.04H28.28C28.28 206.88 28.16 206.58 27.06 206.58H26.78C25.7 206.58 25.56 206.74 25.26 207.58L24.4 209.92H25.66C26.5 209.92 26.82 209.4 27.2 208.72H27.64L26.6 211.56H26.16C26.26 210.7 26.26 210.36 25.48 210.36H24.22L23.64 211.96C23.013 213.625 23.1922 213.659 24.6851 213.942C24.7162 213.948 24.7478 213.954 24.78 213.96Z" fill="black"/>
<path fill-rule="evenodd" clip-rule="evenodd" d="M28.74 190.4L26.88 191.74V191.76H26.4L27.5 190.16H28.74V190.4ZM41.74 199.78L44.72 191.86L44.62 191.74L42.56 191.98V192.22L42.96 192.52C43.3015 192.786 43.2111 193.033 42.9277 193.809L42.88 193.94L40.6 200.02C40.42 200.38 40.66 200.82 41.08 200.82C42.02 200.82 43.02 199.96 43.48 198.78H43.18C42.86 199.22 42.22 199.7 41.74 199.78ZM55.4 193.68L57.26 191.98V191.74H56.02L54.92 193.68H55.4ZM55.52 198.54H55.92C55.18 199.96 54.26 200.82 53.38 200.82C52.62 200.82 52.14 200.26 52.14 199.24C52.14 197.08 53.9 194.38 55.44 194.38C56.32 194.38 57.1 195.04 56.46 196.56L53.18 197.64C53.12 197.92 53.08 198.24 53.08 198.54C53.08 199.28 53.36 199.62 53.92 199.62C54.46 199.62 55.02 199.14 55.52 198.54ZM55.42 196.38C55.62 195.62 55.24 195.28 54.8 195.28C54.34 195.28 53.74 195.98 53.4 196.92L55.42 196.38ZM49.54 195.32H48.46V194.82L49.8 194.64L50.92 192.94H51.54L50.94 194.64H52.52L52.32 195.32H50.7L49.12 199.74C49.84 199.62 50.8 198.94 51.24 198.32H51.54C50.98 199.8 49.52 200.84 48.3 200.84C47.88 200.84 47.66 200.44 47.82 200.04L49.54 195.32ZM47.34 195.08C47.46 194.64 47.18 194.4 46.94 194.4C46 194.4 44.88 195.26 44.42 196.44H44.72C45.02 196 45.54 195.52 46.04 195.44L44.24 200.14C44.08 200.58 44.4 200.82 44.62 200.82C45.52 200.82 46.56 199.96 47.02 198.78H46.72C46.42 199.22 45.9 199.7 45.4 199.78L47.34 195.08ZM48.26 192.48C48.26 192.88 47.92 193.22 47.52 193.22C47.12 193.22 46.78 192.88 46.78 192.48C46.78 192.08 47.1 191.74 47.52 191.74C47.92 191.74 48.26 192.08 48.26 192.48ZM38.16 195.56C37.26 195.56 35.64 197.52 35.64 198.98C35.64 199.42 35.78 199.62 36.02 199.62C36.4 199.62 37.24 198.82 37.78 198.16L38.72 195.64C38.54 195.58 38.36 195.56 38.16 195.56ZM40.6 194.14L40.1 194.1L39.54 194.66H39.44C37.06 194.66 34.52 197.62 34.52 199.94C34.52 200.48 34.82 200.84 35.4 200.84C36.0664 200.84 36.7147 199.934 37.4311 198.932L37.54 198.78L37.5 199.16C37.4 200.24 37.74 200.84 38.3 200.84C38.96 200.84 39.56 199.82 40.02 198.8H39.72C39.4 199.26 39.1 199.54 38.86 199.54C38.62 199.54 38.44 199.1 38.86 198.14L40.6 194.14ZM30.52 200.62C29.66 200.96 29.06 201.36 29.06 201.98C29.06 202.56 29.6 202.8 30.72 202.8C32.22 202.8 33.04 202.36 33.04 201.78C33.04 201.52 32.7 201.4 31.8 201.1C31.22 200.92 30.8 200.76 30.52 200.62ZM31.52 198.16C31.12 198.16 30.98 197.82 30.98 197.46C30.98 196.3 31.54 194.86 32.44 194.86C32.84 194.86 32.98 195.2 32.98 195.56C32.96 196.74 32.4 198.16 31.52 198.16ZM32.28 200.04C33.38 200.38 34.06 200.64 34.06 201.4C34.06 202.38 32.26 203.54 30.08 203.52C28.82 203.52 27.74 203.18 27.74 202.36C27.74 201.58 28.46 200.94 30.22 200.42C29.98 200.26 29.88 200.06 29.88 199.78C29.88 199.3 30.32 198.92 31.08 198.56C30.34 198.46 29.86 197.9 29.86 197.08C29.86 195.82 30.9 194.38 32.54 194.38C32.88 194.38 33.18 194.46 33.42 194.62H35.22L35.02 195.3H33.96C34.02 195.48 34.06 195.68 34.06 195.9C34.06 197.12 33.08 198.52 31.52 198.6C31.12 198.82 30.92 199.12 30.92 199.36C30.92 199.642 31.2472 199.738 31.9702 199.949L31.9705 199.949C32.0666 199.977 32.1697 200.007 32.28 200.04ZM25.94 196.62C26.72 196.62 26.74 196.96 26.62 197.82H27.06L28.1 194.98H27.66C27.28 195.66 26.96 196.18 26.12 196.18H24.4L25.24 193.84C25.54 193 25.68 192.84 26.76 192.84H27.52C28.62 192.84 28.74 193.14 28.74 194.3H29.18L29.54 192.36H23.02L22.9 192.72C24.16 192.98 24.28 193.1 23.7 194.72L22.4 198.22C21.8 199.84 21.56 199.96 20.1 200.22L20 200.6H27.24L28.54 198.54H28.04C27.2 199.36 26.36 200.12 24.72 200.12C22.9161 200.12 22.9483 200.032 23.4895 198.545C23.5243 198.449 23.5613 198.348 23.6 198.24L24.2 196.64H25.94V196.62Z" fill="black"/>
<path fill-rule="evenodd" clip-rule="evenodd" d="M31.92 179.48C32.32 179.48 32.66 179.14 32.66 178.74C32.66 178.34 32.32 178 31.92 178C31.5 178 31.18 178.34 31.18 178.74C31.18 179.16 31.5 179.48 31.92 179.48ZM33.66 187.08C35.22 187.1 37.84 184.22 37.84 182C37.84 181.04 37.6 180.68 36.92 180.68C36.08 180.68 35.3 181.58 34.52 182.66L36.2 178.16L36.1 178.02L34.04 178.26V178.5L34.44 178.8C34.7883 179.071 34.6873 179.342 34.3906 180.138L34.36 180.22L32.54 184.98C32.38 185.38 32.2 185.86 32.2 185.98C32.2 186.54 32.96 187.08 33.66 187.08ZM55.18 179.96L57.04 178.26V178.02H55.8L54.7 179.96H55.18ZM55.3 184.82H55.7C54.94 186.24 54.02 187.1 53.14 187.08C52.38 187.08 51.9 186.54 51.9 185.52C51.9 183.36 53.66 180.66 55.2 180.66C56.08 180.66 56.86 181.32 56.22 182.84L52.96 183.92C52.9 184.2 52.86 184.52 52.86 184.82C52.86 185.56 53.14 185.9 53.7 185.9C54.24 185.9 54.8 185.42 55.3 184.82ZM55.2 182.66C55.4 181.9 55.02 181.56 54.58 181.56C54.1 181.56 53.5 182.26 53.18 183.2L55.2 182.66ZM49.3 181.6H48.22V181.1L49.56 180.92L50.68 179.22H51.3L50.7 180.92H52.28L52.08 181.6H50.46L48.88 186.02C49.6 185.9 50.56 185.22 51 184.6H51.3C50.74 186.08 49.28 187.12 48.06 187.12C47.64 187.12 47.42 186.72 47.58 186.32L49.3 181.6ZM47.66 182.12C47.88 181.36 47.76 180.68 47.18 180.68C46.4567 180.68 46.2302 181.158 45.5292 182.636L45.48 182.74V181.86C45.48 181.24 45.28 180.68 44.72 180.68C44.06 180.68 43.46 181.7 43 182.72H43.3C43.62 182.26 43.92 181.98 44.14 181.98C44.42 181.98 44.58 182.42 44.14 183.38L42.86 186.22C42.62 186.76 42.88 187.1 43.4 187.1C43.72 187.1 43.86 187.02 44 186.68L45.26 183.36C45.62 182.92 45.94 182.54 46.34 182.12H47.66ZM41.32 182.66C41.52 181.9 41.14 181.56 40.7 181.56C40.22 181.56 39.64 182.26 39.3 183.2L41.32 182.66ZM41.82 184.82H41.42C40.92 185.42 40.36 185.9 39.82 185.9C39.26 185.9 38.98 185.56 38.98 184.82C38.98 184.52 39.02 184.2 39.08 183.92L42.34 182.84C42.98 181.32 42.22 180.66 41.32 180.66C39.78 180.66 38.02 183.36 38.02 185.52C38.02 186.54 38.5 187.08 39.26 187.08C40.14 187.1 41.06 186.24 41.82 184.82ZM33.42 185.58C33.42 185.84 33.88 186.14 34.2 186.14C35.5 186.14 36.72 183.8 36.7 182.5C36.7 182.06 36.48 181.88 36.18 181.88C35.7 181.88 34.82 182.6 34.26 183.28L33.74 184.68C33.56 185.14 33.42 185.5 33.42 185.58ZM31.32 180.68C31.56 180.68 31.84 180.92 31.72 181.36L29.8 186.06C30.3 185.98 30.82 185.5 31.12 185.06H31.42C30.96 186.24 29.92 187.1 29.02 187.1C28.78 187.1 28.46 186.86 28.62 186.42L30.42 181.72C29.92 181.8 29.4 182.28 29.1 182.72H28.8C29.26 181.54 30.38 180.68 31.32 180.68ZM23.02 178.6H27.32L27.2 178.98C25.74 179.24 25.5 179.36 24.9 180.98L23.62 184.5C23 186.18 23.16 186.38 24.26 186.38C25.619 186.38 26.5102 185.392 27.2883 184.53C27.3461 184.466 27.4033 184.402 27.46 184.34H27.96L26.54 186.86H20L20.12 186.5C21.56 186.24 21.8 186.12 22.4 184.5L23.7 180.96C24.28 179.34 24.16 179.22 22.9 178.96L23.02 178.6Z" fill="black"/>
<mask id="mask1" mask-type="alpha" maskUnits="userSpaceOnUse" x="18" y="178" width="54" height="37">
<rect x="18" y="178" width="54" height="37" fill="#C4C4C4"/>
</mask>
<g mask="url(#mask1)">
</g>
</svg>
